<?xml version="1.0" standalone="no"?>
<!DOCTYPE svg PUBLIC "-//W3C//DTD SVG 1.1//EN" "http://www.w3.org/Graphics/SVG/1.1/DTD/svg11.dtd" >
<svg>
<metadata>
Created by FontForge 20090622 at Fri Jun 26 21:03:12 2020
 By deploy user
Copyright (c) 2011 by IBRAHIM HAMDI's. All rights reserved.
</metadata>
<defs>
<font id="CoconNextArabic-Light" horiz-adv-x="0" >
  <font-face 
    font-family="Cocon® Next Arabic"
    font-weight="300"
    font-stretch="normal"
    units-per-em="1000"
    panose-1="2 10 5 3 2 1 2 2 2 4"
    ascent="800"
    descent="-200"
    x-height="455"
    cap-height="604"
    bbox="-173 -334 1492 902"
    underline-thickness="50"
    underline-position="-50"
    unicode-range="U+0020-U+FEFC"
  />
<missing-glyph horiz-adv-x="550" 
 />
    <glyph glyph-name="lam_alef_madda.isol" unicode="&#xfedf;&#xfe82;" horiz-adv-x="560" arabic-form="isolated" 
d="M451 603q33 0 46 -15t13 -52v-343q0 -184 -140 -193h-280q-60 0 -60 54v30h105v519h40q17 0 30.5 -12t13.5 -29v-478h129q71 0 76 75v444h27zM240 640h-155v30q0 9 6.5 17.5t15.5 8.5h165v-15q0 -14 -8.5 -27.5t-23.5 -13.5z" />
    <glyph glyph-name="lam_alef_madda.fina" unicode="&#xfee0;&#xfe82;" horiz-adv-x="599" arabic-form="final" 
d="M451 603q33 0 46 -15t13 -52v-382q5 -70 76 -70h23v-84h-45q-61 3 -99 41q-37 -38 -95 -41h-280q-60 0 -60 54v30h105v519h40q17 0 30.5 -12t13.5 -29v-478h129q71 0 76 75v444h27zM240 640h-155v30q0 9 6.5 17.5t15.5 8.5h165v-15q0 -14 -8.5 -27.5t-23.5 -13.5z" />
    <glyph glyph-name="lam_alef_hamza_above.isol" unicode="&#xfedf;&#xfe84;" horiz-adv-x="560" arabic-form="isolated" 
d="M451 603q33 0 46 -15t13 -52v-343q0 -184 -140 -193h-280q-60 0 -60 54v30h105v519h40q17 0 30.5 -12t13.5 -29v-478h129q71 0 76 75v444h27zM233 641h-121q-9 0 -14.5 6t-5.5 13v16h36l-3 6q-4 8 -4 28q0 32 18 52t48 20q46 0 56 -40q0 -6 -5 -16.5t-5 -15.5
q-17 42 -49 42q-27 0 -27 -39q0 -28 12 -37h85v-16q0 -7 -6 -13t-15 -6z" />
    <glyph glyph-name="lam_alef_hamza_above.fina" unicode="&#xfee0;&#xfe84;" horiz-adv-x="599" arabic-form="final" 
d="M451 603q33 0 46 -15t13 -52v-382q5 -70 76 -70h23v-84h-45q-61 3 -99 41q-37 -38 -95 -41h-280q-60 0 -60 54v30h105v519h40q17 0 30.5 -12t13.5 -29v-478h129q71 0 76 75v444h27zM233 641h-121q-9 0 -14.5 6t-5.5 13v16h36l-3 6q-4 8 -4 28q0 32 18 52t48 20
q46 0 56 -40q0 -6 -5 -16.5t-5 -15.5q-17 42 -49 42q-27 0 -27 -39q0 -28 12 -37h85v-16q0 -7 -6 -13t-15 -6z" />
    <glyph glyph-name="lam_alef_hamza_below.isol" unicode="&#xfedf;&#xfe88;" horiz-adv-x="560" arabic-form="isolated" 
d="M50 -190h121q9 0 15 6t6 13v16h-85q-12 9 -12 37q0 39 27 39q32 0 49 -42q0 5 5 15.5t5 16.5q-10 40 -56 40q-30 0 -48 -20t-18 -52q0 -20 4 -28l3 -6h-36v-16q0 -7 5.5 -13t14.5 -6zM451 603q33 0 46 -15t13 -52v-343q0 -184 -140 -193h-280q-60 0 -60 54v30h105v519h40
q17 0 30.5 -12t13.5 -29v-478h129q71 0 76 75v444h27z" />
    <glyph glyph-name="lam_alef_hamza_below.fina" unicode="&#xfee0;&#xfe88;" horiz-adv-x="599" arabic-form="final" 
d="M451 603q33 0 46 -15t13 -52v-382q5 -70 76 -70h23v-84h-45q-61 3 -99 41q-37 -38 -95 -41h-280q-60 0 -60 54v30h105v519h40q17 0 30.5 -12t13.5 -29v-478h129q71 0 76 75v444h27zM50 -190h121q9 0 15 6t6 13v16h-85q-12 9 -12 37q0 39 27 39q32 0 49 -42q0 5 5 15.5
t5 16.5q-10 40 -56 40q-30 0 -48 -20t-18 -52q0 -20 4 -28l3 -6h-36v-16q0 -7 5.5 -13t14.5 -6z" />
    <glyph glyph-name="lam_alef.isol" unicode="&#xfedf;&#xfe8e;" horiz-adv-x="560" arabic-form="isolated" 
d="M451 603q33 0 46 -15t13 -52v-343q0 -184 -140 -193h-280q-60 0 -60 54v30h105v519h40q17 0 30.5 -12t13.5 -29v-478h129q71 0 76 75v444h27z" />
    <glyph glyph-name="lam_alef.fina" unicode="&#xfee0;&#xfe8e;" horiz-adv-x="599" arabic-form="final" 
d="M451 603q33 0 46 -15t13 -52v-382q5 -70 76 -70h23v-84h-45q-61 3 -99 41q-37 -38 -95 -41h-280q-60 0 -60 54v30h105v519h40q17 0 30.5 -12t13.5 -29v-478h129q71 0 76 75v444h27z" />
    <glyph glyph-name="hamza.isol" unicode="&#x621;" horiz-adv-x="428" arabic-form="isolated" 
d="M346 0h-285q-18 0 -29.5 12t-11.5 29v31h88l-12 21q-16 29 -16 74q0 80 43 130t115 50q113 0 131 -89q0 -39 -14 -70q-36 89 -122 89q-33 0 -53 -26t-20 -72q0 -87 34 -106l194 -1v-31q0 -15 -10.5 -28t-31.5 -13z" />
    <glyph glyph-name="alef_madda.isol" unicode="&#x622;" horiz-adv-x="267" arabic-form="isolated" 
d="M195 640h-155v30q0 9 6.5 17.5t15.5 8.5h165v-15q0 -14 -8.5 -27.5t-23.5 -13.5zM174 0h-30q-54 0 -54 60v543h40q17 0 30.5 -12t13.5 -29v-562z" />
    <glyph glyph-name="alef_hamza_above.isol" unicode="&#x623;" horiz-adv-x="226" arabic-form="isolated" 
d="M173 641h-121q-9 0 -14.5 6t-5.5 13v16h36l-3 6q-4 8 -4 28q0 32 18 52t48 20q46 0 56 -40q0 -6 -5 -16.5t-5 -15.5q-17 42 -49 42q-27 0 -27 -39q0 -28 12 -37h85v-16q0 -7 -6 -13t-15 -6zM159 0h-30q-54 0 -54 60v543h40q17 0 30.5 -12t13.5 -29v-562z" />
    <glyph glyph-name="waw_hamza.isol" unicode="&#x624;" horiz-adv-x="467" arabic-form="isolated" 
d="M220 425q57 0 98 -24.5t61 -67t28.5 -87t8.5 -96.5q0 -98 -18 -158q-23 -74 -86.5 -120.5t-152.5 -46.5q-82 0 -82 46v33q24 -6 55 -6q71 0 118 27.5t66 74.5q-286 7 -286 206q0 102 51.5 160.5t138.5 58.5zM110 220q0 -36 11.5 -61.5t29 -40t47.5 -22.5t58 -10t70 -2v25
v49.5t-1.5 44t-4.5 41.5t-8 34t-13.5 30t-20.5 21t-29 15t-38 4q-46 0 -73.5 -35t-27.5 -93zM284 482h-121q-9 0 -14.5 6t-5.5 13v16h36l-3 6q-4 8 -4 28q0 32 18 52t48 20q46 0 56 -40q0 -19 -10 -32q-17 42 -49 42q-27 0 -27 -39q0 -28 12 -37h85v-16q0 -7 -6 -13t-15 -6z
" />
    <glyph glyph-name="alef_hamza_below.isol" unicode="&#x625;" horiz-adv-x="226" arabic-form="isolated" 
d="M144 0h-30q-54 0 -54 60v543h40q17 0 30.5 -12t13.5 -29v-562zM173 -187h-121q-9 0 -14.5 6t-5.5 13v16h36l-3 6q-4 8 -4 28q0 32 18 52t48 20q46 0 56 -40q0 -6 -5 -16.5t-5 -15.5q-17 42 -49 42q-27 0 -27 -39q0 -28 12 -37h85v-16q0 -7 -6 -13t-15 -6z" />
    <glyph glyph-name="yeh_hamza_above.isol" unicode="&#x626;" horiz-adv-x="894" arabic-form="isolated" 
d="M743 425h86v-380q0 -20 -14 -32.5t-30 -12.5h-42v336q-77 0 -123 -26.5t-61.5 -69t-21 -93.5t-10 -102t-18.5 -93.5t-57 -69t-117 -26.5q-138 0 -201.5 68t-63.5 186q0 74 30.5 118t92.5 44l36 -4v-3q-33 -15 -56.5 -60t-23.5 -87q0 -43 5.5 -70t24 -55t59 -41.5
t103.5 -14.5q42 0 65.5 21t30 55.5t11 78t6.5 89.5t18 89.5t43.5 78t85.5 55.5t142 21zM211 312h-121q-9 0 -14.5 6t-5.5 13v16h36l-3 6q-4 8 -4 28q0 32 18 52t48 20q46 0 56 -40q0 -19 -10 -32q-17 42 -49 42q-27 0 -27 -39q0 -28 12 -37h85v-16q0 -7 -6 -13t-15 -6z" />
    <glyph glyph-name="alef.isol" unicode="&#x627;" horiz-adv-x="204" arabic-form="isolated" 
d="M144 0h-30q-54 0 -54 60v543h40q17 0 30.5 -12t13.5 -29v-562z" />
    <glyph glyph-name="beh.isol" unicode="&#x628;" horiz-adv-x="791" arabic-form="isolated" 
d="M741 193q0 -184 -140 -193h-342q-88 0 -138.5 67t-50.5 153q0 85 33 125t81 40h34q-3 -2 -7.5 -5.5t-17 -17t-22 -29t-17 -41.5t-7.5 -54q0 -32 8.5 -64.5t36 -61t68.5 -28.5h319q72 0 76 75v182h27q33 0 46 -15t13 -52v-81zM424 -157q-20 0 -34.5 14t-14.5 34t14.5 34
t34.5 14t34 -14t14 -34t-14 -34t-34 -14z" />
    <glyph glyph-name="tehmarbuta.isol" unicode="&#x629;" horiz-adv-x="464" arabic-form="isolated" 
d="M241 425q87 0 140 -66t53 -153q0 -94 -53 -150t-149 -56q-88 0 -140 60t-52 146q0 95 53 157t148 62zM234 74q63 0 89.5 36t26.5 110q0 54 -31 91.5t-78 37.5q-60 0 -88 -41t-28 -103q0 -55 28 -93t81 -38zM298 495q-21 0 -35.5 14t-14.5 34t14.5 34t35.5 14
q19 0 33.5 -14t14.5 -34t-14.5 -34t-33.5 -14zM173 495q-20 0 -34.5 14t-14.5 34t14.5 34t34.5 14t34 -14t14 -34t-14 -34t-34 -14z" />
    <glyph glyph-name="teh.isol" unicode="&#x62a;" horiz-adv-x="791" arabic-form="isolated" 
d="M371 394q-20 0 -34.5 14t-14.5 34t14.5 34t34.5 14t34 -14t14 -34t-14 -34t-34 -14zM486 394q-21 0 -35.5 14t-14.5 34t14.5 34t35.5 14q19 0 33.5 -14t14.5 -34t-14.5 -34t-33.5 -14zM741 193q0 -184 -140 -193h-334q-4 -1 -8 -1q-88 0 -138.5 67.5t-50.5 153.5
q0 85 33 125t81 40h34q-3 -2 -7.5 -5.5t-17 -17t-22 -29t-17 -41.5t-7.5 -54q0 -32 8.5 -64.5t36 -61t68.5 -28.5h319q72 0 76 75v182h27q33 0 46 -15t13 -52v-81z" />
    <glyph glyph-name="theh.isol" unicode="&#x62b;" horiz-adv-x="791" arabic-form="isolated" 
d="M486 394q-21 0 -35.5 14t-14.5 34t14.5 34t35.5 14q19 0 33.5 -14t14.5 -34t-14.5 -34t-33.5 -14zM370 393q-20 0 -34.5 14t-14.5 34t14.5 34t34.5 14t34 -14t14 -34t-14 -34t-34 -14zM429 496q-21 0 -35.5 14t-14.5 34t14.5 34t35.5 14q19 0 33.5 -14t14.5 -34
t-14.5 -34t-33.5 -14zM741 193q0 -184 -140 -193h-342q-88 0 -138.5 67t-50.5 153q0 85 33 125t81 40h34q-3 -2 -7.5 -5.5t-17 -17t-22 -29t-17 -41.5t-7.5 -54q0 -32 8.5 -64.5t36 -61t68.5 -28.5h319q72 0 76 75v182h27q33 0 46 -15t13 -52v-81z" />
    <glyph glyph-name="jeem.isol" unicode="&#x62c;" horiz-adv-x="580" arabic-form="isolated" 
d="M276 425q58 0 104 -24.5t73 -63.5t45 -92.5t24.5 -105t6.5 -107.5q0 -48 -5 -96q-2 3 -5.5 7t-16.5 15t-28.5 19.5t-43 15.5t-58.5 7h-27q-77 0 -132.5 -32t-55.5 -77q0 -49 14 -80t41.5 -43.5t50 -16t59.5 -3.5q86 0 128 43v-35q0 -30 -36 -58.5t-107 -28.5
q-33 0 -64 5.5t-62.5 20t-55 37.5t-38.5 60.5t-16 85.5q0 60 24 103t66 65t89.5 32t105.5 10q47 0 83 -4q-2 38 -12 78t-30 82t-56 68.5t-83 26.5q-31 0 -57.5 -6.5t-42 -15.5t-27 -18.5t-15.5 -16.5l-5 -6v35q0 48 40.5 81t124.5 33zM330 -171q-21 0 -34 14t-13 35
q0 20 13 33.5t34 13.5q20 0 34.5 -13.5t14.5 -33.5t-14.5 -34.5t-34.5 -14.5z" />
    <glyph glyph-name="hah.isol" unicode="&#x62d;" horiz-adv-x="580" arabic-form="isolated" 
d="M276 425q58 0 104 -24.5t73 -63.5t45 -92.5t24.5 -105t6.5 -107.5q0 -48 -5 -96q-2 3 -5.5 7t-16.5 15t-28.5 19.5t-43 15.5t-58.5 7h-27q-77 0 -132.5 -32t-55.5 -77q0 -49 14 -80t41.5 -43.5t50 -16t59.5 -3.5q86 0 128 43v-35q0 -30 -36 -58.5t-107 -28.5
q-33 0 -64 5.5t-62.5 20t-55 37.5t-38.5 60.5t-16 85.5q0 60 24 103t66 65t89.5 32t105.5 10q47 0 83 -4q-2 38 -12 78t-30 82t-56 68.5t-83 26.5q-31 0 -57.5 -6.5t-42 -15.5t-27 -18.5t-15.5 -16.5l-5 -6v35q0 48 40.5 81t124.5 33z" />
    <glyph glyph-name="khah.isol" unicode="&#x62e;" horiz-adv-x="580" arabic-form="isolated" 
d="M276 425q58 0 104 -24.5t73 -63.5t45 -92.5t24.5 -105t6.5 -107.5q0 -48 -5 -96q-2 3 -5.5 7t-16.5 15t-28.5 19.5t-43 15.5t-58.5 7h-27q-77 0 -132.5 -32t-55.5 -77q0 -49 14 -80t41.5 -43.5t50 -16t59.5 -3.5q86 0 128 43v-35q0 -30 -36 -58.5t-107 -28.5
q-33 0 -64 5.5t-62.5 20t-55 37.5t-38.5 60.5t-16 85.5q0 60 24 103t66 65t89.5 32t105.5 10q47 0 83 -4q-2 38 -12 78t-30 82t-56 68.5t-83 26.5q-31 0 -57.5 -6.5t-42 -15.5t-27 -18.5t-15.5 -16.5l-5 -6v35q0 48 40.5 81t124.5 33zM277 497q-21 0 -34 14t-13 35
q0 20 13 33.5t34 13.5q20 0 34.5 -13.5t14.5 -33.5t-14.5 -34.5t-34.5 -14.5z" />
    <glyph glyph-name="dal.isol" unicode="&#x62f;" horiz-adv-x="460" arabic-form="isolated" 
d="M300 363q57 -34 88.5 -119.5t31.5 -159.5v-84h-339q-17 0 -29 13.5t-12 30.5v40h295q-4 62 -37 134t-84 93q-42 17 -79 17q-15 0 -27.5 -2.5t-17.5 -5.5l-6 -2l14 26q28 53 102 53q52 0 100 -34z" />
    <glyph glyph-name="thal.isol" unicode="&#x630;" horiz-adv-x="460" arabic-form="isolated" 
d="M300 363q57 -34 88.5 -119.5t31.5 -159.5v-84h-339q-17 0 -29 13.5t-12 30.5v40h295q-4 62 -37 134t-84 93q-42 17 -79 17q-15 0 -27.5 -2.5t-17.5 -5.5l-6 -2l14 26q28 53 102 53q52 0 100 -34zM229 496q-21 0 -35.5 14t-14.5 34t14.5 34t35.5 14q19 0 33.5 -14
t14.5 -34t-14.5 -34t-33.5 -14z" />
    <glyph glyph-name="reh.isol" unicode="&#x631;" horiz-adv-x="306" arabic-form="isolated" 
d="M256 93v-98v-43q0 -51 -39.5 -89t-97.5 -38q-31 0 -50 12.5t-19 33.5v23q16 -2 24 -2q21 0 36.5 3.5t26 8t17.5 16.5t10.5 20t5 29t1.5 32.5t-0.5 41t-0.5 45.5v254h27q33 0 46 -15t13 -52v-182z" />
    <glyph glyph-name="zain.isol" unicode="&#x632;" horiz-adv-x="301" arabic-form="isolated" 
d="M203 395q-21 0 -35.5 14t-14.5 34t14.5 34t35.5 14q19 0 33.5 -14t14.5 -34t-14.5 -34t-33.5 -14zM246 93v-98v-43q0 -51 -39.5 -89t-97.5 -38q-31 0 -50 12.5t-19 33.5v23q16 -2 24 -2q21 0 36.5 3.5t26 8t17.5 16.5t10.5 20t5 29t1.5 32.5t-0.5 41t-0.5 45.5v254h27
q33 0 46 -15t13 -52v-182z" />
    <glyph glyph-name="seen.isol" unicode="&#x633;" horiz-adv-x="1164" arabic-form="isolated" 
d="M1054 392q33 0 46 -15t13 -52v-132q0 -86 -38.5 -139.5t-112.5 -53.5q-97 0 -145 38q-40 -38 -95 -38h-113q-21 -84 -84 -140t-172 -56q-72 0 -128 24t-89 65t-49.5 90.5t-16.5 104.5q0 70 29.5 111t88.5 41l35 -3v-4q-32 -13 -53.5 -55t-21.5 -83q0 -82 47 -143.5
t146 -61.5q76 0 129.5 47t53.5 115v340h27q33 0 46 -15t13 -52v-241h90q72 0 76 75v233h27q33 0 46 -15t13 -52q0 -175 1 -177q-2 -23 -6 -41q44 -26 90 -26q43 0 60.5 20t19.5 58v233h27z" />
    <glyph glyph-name="sheen.isol" unicode="&#x634;" horiz-adv-x="1164" arabic-form="isolated" 
d="M1054 392q33 0 46 -15t13 -52v-132q0 -86 -38.5 -139.5t-112.5 -53.5q-97 0 -145 38q-40 -38 -95 -38h-113q-21 -84 -84 -140t-172 -56q-72 0 -128 24t-89 65t-49.5 90.5t-16.5 104.5q0 70 29.5 111t88.5 41l35 -3v-4q-32 -13 -53.5 -55t-21.5 -83q0 -82 47 -143.5
t146 -61.5q76 0 129.5 47t53.5 115v340h27q33 0 46 -15t13 -52v-241h90q72 0 76 75v233h27q33 0 46 -15t13 -52q0 -175 1 -177q-2 -23 -6 -41q44 -26 90 -26q43 0 60.5 20t19.5 58v233h27zM756 495q-20 0 -34.5 14t-14.5 34t14.5 34t34.5 14t34 -14t14 -34t-14 -34t-34 -14z
M871 495q-21 0 -35.5 14t-14.5 34t14.5 34t35.5 14q19 0 33.5 -14t14.5 -34t-14.5 -34t-33.5 -14zM812 598q-21 0 -35.5 14t-14.5 34t14.5 34t35.5 14q19 0 33.5 -14t14.5 -34t-14.5 -34t-33.5 -14z" />
    <glyph glyph-name="sad.isol" unicode="&#x635;" horiz-adv-x="1150" arabic-form="isolated" 
d="M826 425q71 0 125 -26.5t85 -71.5t46.5 -99t15.5 -115q0 -113 -40 -113h-449q-21 -84 -84 -140t-172 -56q-72 0 -128 24t-89 65t-49.5 90.5t-16.5 104.5q0 70 29.5 111t88.5 41l35 -3v-4q-32 -13 -53.5 -55t-21.5 -83q0 -82 47 -143.5t146 -61.5q76 0 129.5 47t53.5 115
v276h27q33 0 46 -15t13 -52v-17q32 77 88.5 129t127.5 52zM828 332q-74 0 -131.5 -73.5t-80.5 -174.5h393q-14 248 -181 248z" />
    <glyph glyph-name="dad.isol" unicode="&#x636;" horiz-adv-x="1148" arabic-form="isolated" 
d="M826 425q71 0 125 -26.5t85 -71.5t46.5 -99t15.5 -115q0 -113 -40 -113h-449q-21 -84 -84 -140t-172 -56q-72 0 -128 24t-89 65t-49.5 90.5t-16.5 104.5q0 70 29.5 111t88.5 41l35 -3v-4q-32 -13 -53.5 -55t-21.5 -83q0 -82 47 -143.5t146 -61.5q76 0 129.5 47t53.5 115
v276h27q33 0 46 -15t13 -52v-17q32 77 88.5 129t127.5 52zM828 332q-74 0 -131.5 -73.5t-80.5 -174.5h393q-14 248 -181 248zM823 492q-21 0 -35.5 14t-14.5 34t14.5 34t35.5 14q19 0 33.5 -14t14.5 -34t-14.5 -34t-33.5 -14z" />
    <glyph glyph-name="tah.isol" unicode="&#x637;" horiz-adv-x="774" arabic-form="isolated" 
d="M70 54v30h80v519h27q33 0 46 -15t13 -52v-292q32 77 88.5 129t127.5 52t125 -26.5t85 -71.5t46.5 -99t15.5 -115q0 -113 -40 -113h-554q-60 0 -60 54zM454 332q-74 0 -131.5 -73.5t-80.5 -174.5h393q-14 248 -181 248z" />
    <glyph glyph-name="zah.isol" unicode="&#x638;" horiz-adv-x="774" arabic-form="isolated" 
d="M70 54v30h80v519h27q33 0 46 -15t13 -52v-292q32 77 88.5 129t127.5 52t125 -26.5t85 -71.5t46.5 -99t15.5 -115q0 -113 -40 -113h-554q-60 0 -60 54zM454 332q-74 0 -131.5 -73.5t-80.5 -174.5h393q-14 248 -181 248zM448 492q-21 0 -35.5 14t-14.5 34t14.5 34t35.5 14
q19 0 33.5 -14t14.5 -34t-14.5 -34t-33.5 -14z" />
    <glyph glyph-name="ain.isol" unicode="&#x639;" horiz-adv-x="573" arabic-form="isolated" 
d="M310 84h213v-25q0 -33 -15 -46t-51 -13h-147q-66 0 -88 -10q-24 -13 -44.5 -41.5t-20.5 -69.5q0 -130 165 -130q86 0 128 43v-35q0 -30 -36 -58.5t-107 -28.5q-42 0 -80.5 9.5t-74.5 31t-58 61.5t-23 94q0 127 101 190q-48 73 -48 151q0 88 57.5 148.5t138.5 60.5
q83 0 126.5 -44t43.5 -86q0 -26 -10 -41l-20 -29q-8 43 -45 80.5t-89 37.5q-47 0 -81 -35t-34 -90q0 -60 44 -125h55z" />
    <glyph glyph-name="ghain.isol" unicode="&#x63a;" horiz-adv-x="573" arabic-form="isolated" 
d="M310 84h213v-25q0 -33 -15 -46t-51 -13h-147q-66 0 -88 -10q-24 -13 -44.5 -41.5t-20.5 -69.5q0 -130 165 -130q86 0 128 43v-35q0 -30 -36 -58.5t-107 -28.5q-42 0 -80.5 9.5t-74.5 31t-58 61.5t-23 94q0 127 101 190q-48 73 -48 151q0 88 57.5 148.5t138.5 60.5
q83 0 126.5 -44t43.5 -86q0 -26 -10 -41l-20 -29q-8 43 -45 80.5t-89 37.5q-47 0 -81 -35t-34 -90q0 -60 44 -125h55zM334 493q-20 0 -34 14t-14 34t14 34.5t34 14.5q21 0 35 -14t14 -34q0 -21 -14 -35t-35 -14z" />
    <glyph glyph-name="feh.isol" unicode="&#x641;" horiz-adv-x="874" arabic-form="isolated" 
d="M147 238q0 -32 8.5 -64.5t36 -61t68.5 -28.5h230q-40 46 -40 122q0 102 51.5 160.5t138.5 58.5q82 0 133 -56.5t51 -147.5v-221h-579q-80 0 -127.5 70t-47.5 150q0 85 33 125t81 40h34q-3 -2 -7.5 -5.5t-17 -17t-22 -29t-17 -41.5t-7.5 -54zM746 84v25v49.5t-1.5 44
t-4.5 41.5t-8 34t-13.5 30t-20.5 21t-29 15t-38 4q-46 0 -73.5 -35t-27.5 -93q0 -36 11.5 -61.5t29 -40t47.5 -22.5t58 -10t70 -2zM641 493q-20 0 -34 14t-14 34t14 34.5t34 14.5q21 0 35 -14t14 -34q0 -21 -14 -35t-35 -14z" />
    <glyph glyph-name="qaf.isol" unicode="&#x642;" horiz-adv-x="655" arabic-form="isolated" 
d="M429 425q58 0 98.5 -25t60.5 -67.5t28.5 -87t8.5 -96.5q0 -88 -16 -149q-21 -79 -89.5 -133.5t-171.5 -54.5q-137 0 -207.5 83t-70.5 199q0 70 29 112t89 42l35 -3l-1 -4q-33 -13 -53.5 -55.5t-20.5 -84.5q0 -37 10.5 -71.5t32 -65t60.5 -48.5t90 -18q72 0 119 28t65 74
q-286 7 -286 206q0 102 51.5 160.5t138.5 58.5zM319 220q0 -36 11.5 -61.5t29 -40t47.5 -22.5t58 -10t70 -2v25v49.5t-1.5 44t-4.5 41.5t-8 34t-13.5 30t-20.5 21t-29 15t-38 4q-46 0 -73.5 -35t-27.5 -93zM497 493q-21 0 -35.5 14t-14.5 34t14.5 34t35.5 14q19 0 33.5 -14
t14.5 -34t-14.5 -34t-33.5 -14zM372 493q-20 0 -34.5 14t-14.5 34t14.5 34t34.5 14t34 -14t14 -34t-14 -34t-34 -14z" />
    <glyph glyph-name="kaf.isol" unicode="&#x643;" horiz-adv-x="769" arabic-form="isolated" 
d="M714 193q0 -184 -140 -193h-307q-4 -1 -8 -1q-88 0 -138.5 67.5t-50.5 153.5q0 85 33 125t81 40h34q-3 -2 -7.5 -5.5t-17 -17t-22 -29t-17 -41.5t-7.5 -54q0 -32 8.5 -64.5t36 -61t68.5 -28.5h292q72 0 76 75v444h27q33 0 46 -15t13 -52v-343zM338 312h121q9 0 15 6t6 13
v16h-85q-12 9 -12 37q0 39 27 39q32 0 49 -42q0 5 5 15.5t5 16.5q-10 40 -56 40q-30 0 -48 -20t-18 -52q0 -20 4 -28l3 -6h-36v-16q0 -7 5.5 -13t14.5 -6z" />
    <glyph glyph-name="lam.isol" unicode="&#x644;" horiz-adv-x="661" arabic-form="isolated" 
d="M610 536v-320q0 -412 -262 -412q-71 0 -126 24t-87.5 65t-48.5 90.5t-16 104.5q0 70 29.5 111t88.5 41l35 -3v-4q-32 -13 -53.5 -55t-21.5 -83q0 -82 47 -143.5t146 -61.5q38 0 69 15t49.5 36.5t32 53.5t19.5 57t9.5 57.5t3.5 44.5v27v3v419h27q33 0 46 -15t13 -52z" />
    <glyph glyph-name="meem.isol" unicode="&#x645;" horiz-adv-x="656" arabic-form="isolated" 
d="M433 424q81 0 132 -56.5t51 -147.5q0 -102 -49.5 -161t-133.5 -59q-72 0 -122 44q-18 -63 -58 -104t-104 -43q-24 0 -38.5 2.5t-27.5 15t-13 35.5v30l61 1q37 1 60.5 11.5t35 32t15.5 44.5t4 58q0 13 -1.5 40t-1.5 41q0 89 48.5 150.5t141.5 65.5zM440 79q45 0 70 34.5
t25 90.5q0 67 -28.5 102t-81.5 35q-45 0 -72 -33.5t-27 -90.5q0 -64 30 -101t84 -37z" />
    <glyph glyph-name="noon.isol" unicode="&#x646;" horiz-adv-x="661" arabic-form="isolated" 
d="M610 275v-59q0 -412 -262 -412q-71 0 -126 24t-87.5 65t-48.5 90.5t-16 104.5q0 70 29.5 111t88.5 41l35 -3v-4q-32 -13 -53.5 -55t-21.5 -83q0 -82 47 -143.5t146 -61.5q38 0 69 15t49.5 36.5t32 53.5t19.5 57t9.5 57.5t3.5 44.5v27v3v158h27q33 0 46 -15t13 -52z
M360 342q-20 0 -34 14t-14 34t14 34.5t34 14.5q21 0 35 -14t14 -34q0 -21 -14 -35t-35 -14z" />
    <glyph glyph-name="heh.isol" unicode="&#x647;" horiz-adv-x="464" arabic-form="isolated" 
d="M241 425q87 0 140 -66t53 -153q0 -94 -53 -150t-149 -56q-88 0 -140 60t-52 146q0 95 53 157t148 62zM234 74q63 0 89.5 36t26.5 110q0 54 -31 91.5t-78 37.5q-60 0 -88 -41t-28 -103q0 -55 28 -93t81 -38z" />
    <glyph glyph-name="waw.isol" unicode="&#x648;" horiz-adv-x="456" arabic-form="isolated" 
d="M220 425q57 0 98 -24.5t61 -67t28.5 -87t8.5 -96.5q0 -98 -18 -158q-23 -74 -86.5 -120.5t-152.5 -46.5q-82 0 -82 46v33q24 -6 55 -6q71 0 118 27.5t66 74.5q-286 7 -286 206q0 102 51.5 160.5t138.5 58.5zM110 220q0 -36 11.5 -61.5t29 -40t47.5 -22.5t58 -10t70 -2v25
v49.5t-1.5 44t-4.5 41.5t-8 34t-13.5 30t-20.5 21t-29 15t-38 4q-46 0 -73.5 -35t-27.5 -93z" />
    <glyph glyph-name="alefmaksura.isol" unicode="&#x649;" horiz-adv-x="894" arabic-form="isolated" 
d="M743 425h86v-380q0 -20 -14 -32.5t-30 -12.5h-42v336q-77 0 -123 -26.5t-61.5 -69t-21 -93.5t-10 -102t-18.5 -93.5t-57 -69t-117 -26.5q-138 0 -201.5 68t-63.5 186q0 74 30.5 118t92.5 44l36 -4v-3q-33 -15 -56.5 -60t-23.5 -87q0 -43 5.5 -70t24 -55t59 -41.5
t103.5 -14.5q42 0 65.5 21t30 55.5t11 78t6.5 89.5t18 89.5t43.5 78t85.5 55.5t142 21z" />
    <glyph glyph-name="yeh.isol" unicode="&#x64a;" horiz-adv-x="894" arabic-form="isolated" 
d="M273 -288q-20 0 -34.5 14t-14.5 34t14.5 34t34.5 14t34 -14t14 -34t-14 -34t-34 -14zM388 -288q-21 0 -35.5 14t-14.5 34t14.5 34t35.5 14q19 0 33.5 -14t14.5 -34t-14.5 -34t-33.5 -14zM743 425h86v-381q0 -20 -14 -32.5t-30 -12.5h-42v337q-77 0 -123 -26.5t-61.5 -69
t-21 -93.5t-10 -102t-18.5 -93.5t-57 -69t-117 -26.5q-138 0 -201.5 68t-63.5 186q0 74 30.5 118t92.5 44l36 -4v-3q-33 -15 -56.5 -60t-23.5 -87q0 -43 5.5 -70t24 -55t59 -41.5t103.5 -14.5q42 0 65.5 21t30 55.5t11 78t6.5 89.5t18 89.5t43.5 78t85.5 55.5t142 21z" />
    <glyph glyph-name="fathatan" unicode="&#xfe70;" arabic-form="isolated" 
d="M30 -119q-67 -4 -146 -7q-13 0 -13 23l89 3.5t54 2.5q10 0 16 -22zM24 -81q-79 -4 -146 -7q-13 0 -13 23q40 1 84.5 3t58.5 3q10 0 16 -22z" />
    <glyph glyph-name="dammatan" unicode="&#xfe72;" arabic-form="isolated" 
d="M20 25q24 0 40.5 -17t16.5 -42q0 -30 -22.5 -50.5t-57.5 -28.5t-58 -10.5t-44 -2.5q-14 0 -17 3t-4 16l8 1q22 13 22 44q0 36 -36 36q-18 0 -27 -13q-4 8 -4 12q0 8 9.5 15t25.5 7q27 0 42.5 -17t15.5 -40q0 -18 -15 -42q48 4 75 11q-29 23 -29 53q0 27 17 46t42 19z
M18 -79q33 0 33 42q0 19 -9.5 30t-24.5 11t-23.5 -11t-8.5 -28q0 -18 9.5 -31t23.5 -13z" />
    <glyph glyph-name="kasratan" unicode="&#xfe74;" arabic-form="isolated" 
d="M30 -60q-67 -4 -146 -7q-13 0 -13 23l89 3.5t54 2.5q10 0 16 -22zM24 -22q-79 -4 -146 -7q-13 0 -13 23q40 1 84.5 3t58.5 3q10 0 16 -22z" />
    <glyph glyph-name="fatha" unicode="&#xfe76;" arabic-form="isolated" 
d="M30 -119q-67 -4 -146 -7q-13 0 -13 23l89 3.5t54 2.5q10 0 16 -22z" />
    <glyph glyph-name="damma" unicode="&#xfe78;" arabic-form="isolated" 
d="M-13 -36q0 -25 16.5 -37.5t32.5 -2.5t16 38q0 20 -10 31.5t-25 11.5q-14 0 -22 -11.5t-8 -29.5zM19 24q24 0 41 -15.5t17 -40.5q0 -94 -186 -94q-10 0 -12.5 4t-3.5 14l19 1q63 2 95 14q-26 20 -26 52q0 28 16 46.5t40 18.5z" />
    <glyph glyph-name="kasra" unicode="&#xfe7a;" arabic-form="isolated" 
d="M30 -22q-67 -4 -146 -7q-13 0 -13 23l89 3.5t54 2.5q10 0 16 -22z" />
    <glyph glyph-name="shadda" unicode="&#xfe7c;" arabic-form="isolated" 
d="M-126 -1h4l7 -71q1 -15 10 -24t20 -9q9 0 16 6.5t7 18.5l-3 31.5t-3 29.5q-1 10 5 13.5t19 3.5l8 -73q3 -30 27 -30q12 0 19 10t5 28q-3 23 -5 51q0 13 22 13l8 -76q0 -43 -44 -47q-28 0 -44 17q-12 -16 -36 -16q-23 0 -38.5 16t-17.5 40q-4 40 -4 52q0 16 18 16z" />
    <glyph glyph-name="sukun" unicode="&#xfe7e;" arabic-form="isolated" 
d="M-28 45q33 0 50.5 -22t17.5 -51q0 -32 -22.5 -54.5t-52.5 -22.5q-31 0 -48 23t-17 52q0 34 20.5 54.5t51.5 20.5zM-26 20q-21 0 -32 -15.5t-11 -38.5q0 -46 39 -46q18 0 27.5 16.5t9.5 40.5q0 37 -33 43z" />
    <glyph glyph-name="alef_wasla.isol" unicode="&#x671;" horiz-adv-x="264" arabic-form="isolated" 
d="M32 656v10h24v79h8q18 0 18 -21v-9q24 55 66 55q43 0 63 -27.5t20 -67.5q0 -35 -11 -35h-170q-18 0 -18 16zM149 742q-22 0 -40 -22.5t-25 -53.5h120q-3 76 -55 76zM153 0h30v562q0 17 -13.5 29t-30.5 12h-40v-543q0 -60 54 -60z" />
    <glyph glyph-name="tteh.isol" unicode="&#x679;" horiz-adv-x="791" arabic-form="isolated" 
d="M325 412v10h24v159h8q18 0 18 -21v-89q24 55 66 55q43 0 63 -27.5t20 -67.5q0 -35 -11 -35h-170q-18 0 -18 16zM442 498q-22 0 -40 -22.5t-25 -53.5h120q-3 76 -55 76zM741 193q0 -184 -140 -193h-342q-88 0 -138.5 67t-50.5 153q0 85 33 125t81 40h34q-3 -2 -7.5 -5.5
t-17 -17t-22 -29t-17 -41.5t-7.5 -54q0 -32 8.5 -64.5t36 -61t68.5 -28.5h319q72 0 76 75v182h27q33 0 46 -15t13 -52v-81z" />
    <glyph glyph-name="peh.isol" unicode="&#x67e;" horiz-adv-x="791" arabic-form="isolated" 
d="M485 -61q-21 0 -35.5 -14t-14.5 -34t14.5 -34t35.5 -14q19 0 33.5 14t14.5 34t-14.5 34t-33.5 14zM426 -164q-21 0 -35.5 -14t-14.5 -34t14.5 -34t35.5 -14q19 0 33.5 14t14.5 34t-14.5 34t-33.5 14zM370 -61q-20 0 -34.5 -14t-14.5 -34t14.5 -34t34.5 -14t34 14t14 34
t-14 34t-34 14zM741 193q0 -184 -140 -193h-342q-88 0 -138.5 67t-50.5 153q0 85 33 125t81 40h34q-3 -2 -7.5 -5.5t-17 -17t-22 -29t-17 -41.5t-7.5 -54q0 -32 8.5 -64.5t36 -61t68.5 -28.5h319q72 0 76 75v182h27q33 0 46 -15t13 -52v-81z" />
    <glyph glyph-name="tcheh.isol" unicode="&#x686;" horiz-adv-x="571" arabic-form="isolated" 
d="M267 425q58 0 104 -24.5t73 -63.5t45 -92.5t24.5 -105t6.5 -107.5q0 -48 -5 -96q-2 3 -5.5 7t-16.5 15t-28.5 19.5t-43 15.5t-58.5 7h-26q-187 0 -187 -131q0 -41 19 -85q34 -80 91 -100l-32 -14q-8 -4 -22 -4q-16 0 -37 11t-44 32.5t-39 63t-16 94.5q0 56 22 105t61 75
q7 5 20.5 12.5t61.5 19.5t104 12q45 0 91 -7q-2 38 -12 78t-30 82t-56 68.5t-83 26.5q-31 0 -57.5 -6.5t-42 -15.5t-27 -18.5t-16.5 -16.5l-4 -6v35q0 48 40.5 81t124.5 33zM325 -164q-21 0 -35.5 -14t-14.5 -34t14.5 -34t35.5 -14q19 0 33.5 14t14.5 34t-14.5 34t-33.5 14z
M384 -61q-21 0 -35.5 -14t-14.5 -34t14.5 -34t35.5 -14q19 0 33.5 14t14.5 34t-14.5 34t-33.5 14zM269 -61q-20 0 -34.5 -14t-14.5 -34t14.5 -34t34.5 -14t34 14t14 34t-14 34t-34 14z" />
    <glyph glyph-name="ddal.isol" unicode="&#x688;" horiz-adv-x="460" arabic-form="isolated" 
d="M121 515v10h24v159h8q18 0 18 -21v-89q24 55 66 55q43 0 63 -27.5t20 -67.5q0 -35 -11 -35h-170q-18 0 -18 16zM238 601q-22 0 -40 -22.5t-25 -53.5h120q-3 76 -55 76zM300 363q57 -34 88.5 -119.5t31.5 -159.5v-84h-339q-17 0 -29 13.5t-12 30.5v40h295q-4 62 -37 134
t-84 93q-42 17 -79 17q-15 0 -27.5 -2.5t-17.5 -5.5l-6 -2l14 26q28 53 102 53q52 0 100 -34z" />
    <glyph glyph-name="uni0691" unicode="&#x691;" horiz-adv-x="341" arabic-form="isolated" 
d="M92 412v10h24v159h8q18 0 18 -21v-89q24 55 66 55q43 0 63 -27.5t20 -67.5q0 -35 -11 -35h-170q-18 0 -18 16zM209 498q-22 0 -40 -22.5t-25 -53.5h120q-3 76 -55 76zM246 93v-98v-43q0 -51 -39.5 -89t-97.5 -38q-31 0 -50 12.5t-19 33.5v23q16 -2 24 -2q21 0 36.5 3.5
t26 8t17.5 16.5t10.5 20t5 29t1.5 32.5t-0.5 41t-0.5 45.5v254h27q33 0 46 -15t13 -52v-182z" />
    <glyph glyph-name="uni0698" unicode="&#x698;" horiz-adv-x="355" arabic-form="isolated" 
d="M142 395q-20 0 -34.5 14t-14.5 34t14.5 34t34.5 14t34 -14t14 -34t-14 -34t-34 -14zM257 395q-21 0 -35.5 14t-14.5 34t14.5 34t35.5 14q19 0 33.5 -14t14.5 -34t-14.5 -34t-33.5 -14zM198 498q-21 0 -35.5 14t-14.5 34t14.5 34t35.5 14q19 0 33.5 -14t14.5 -34
t-14.5 -34t-33.5 -14zM246 93v-98v-43q0 -51 -39.5 -89t-97.5 -38q-31 0 -50 12.5t-19 33.5v23q16 -2 24 -2q21 0 36.5 3.5t26 8t17.5 16.5t10.5 20t5 29t1.5 32.5t-0.5 41t-0.5 45.5v254h27q33 0 46 -15t13 -52v-182z" />
    <glyph glyph-name="veh.isol" unicode="&#x6a4;" horiz-adv-x="874" arabic-form="isolated" 
d="M147 238q0 -32 8.5 -64.5t36 -61t68.5 -28.5h230q-40 46 -40 122q0 102 51.5 160.5t138.5 58.5q82 0 133 -56.5t51 -147.5v-221h-557h-22q-80 0 -127.5 70t-47.5 150q0 85 33 125t81 40h34q-3 -2 -7.5 -5.5t-17 -17t-22 -29t-17 -41.5t-7.5 -54zM746 84v25v49.5t-1.5 44
t-4.5 41.5t-8 34t-13.5 30t-20.5 21t-29 15t-38 4q-46 0 -73.5 -35t-27.5 -93q0 -36 11.5 -61.5t29 -40t47.5 -22.5t58 -10t70 -2zM590 495q-20 0 -34.5 14t-14.5 34t14.5 34t34.5 14t34 -14t14 -34t-14 -34t-34 -14zM705 495q-21 0 -35.5 14t-14.5 34t14.5 34t35.5 14
q19 0 33.5 -14t14.5 -34t-14.5 -34t-33.5 -14zM646 598q-21 0 -35.5 14t-14.5 34t14.5 34t35.5 14q19 0 33.5 -14t14.5 -34t-14.5 -34t-33.5 -14z" />
    <glyph glyph-name="kheh.isol" unicode="&#x6a9;" horiz-adv-x="835" arabic-form="isolated" 
d="M147 238q0 -32 8.5 -64.5t36 -61t68.5 -28.5h385q-13 235 -191 235q-27 0 -54 -8l-17 23q-13 16 -13 31q0 29 28 49l374 278l24 -32q9 -12 9 -28q0 -20 -15 -32l-268 -200q62 -12 106.5 -45t66.5 -79.5t31.5 -93.5t9.5 -98l-1 -84h-490q-80 0 -127.5 70t-47.5 150
q0 85 33 125t81 40h34q-3 -2 -7.5 -5.5t-17 -17t-22 -29t-17 -41.5t-7.5 -54z" />
    <glyph glyph-name="Gaf.isol" unicode="&#x6af;" horiz-adv-x="835" arabic-form="isolated" 
d="M725 781q21 -31 21 -40q0 -25 -19 -39l-391 -292q-24 24 -24 49q0 17 8 23zM147 238q0 -32 8.5 -64.5t36 -61t68.5 -28.5h385q-13 235 -191 235q-27 0 -54 -8l-17 23q-13 16 -13 31q0 29 28 49l374 278l24 -32q9 -12 9 -28q0 -20 -15 -32l-268 -200q62 -12 106.5 -45
t66.5 -79.5t31.5 -93.5t9.5 -98l-1 -84h-490q-80 0 -127.5 70t-47.5 150q0 85 33 125t81 40h34q-3 -2 -7.5 -5.5t-17 -17t-22 -29t-17 -41.5t-7.5 -54z" />
    <glyph glyph-name="ghunna.isol" unicode="&#x6ba;" horiz-adv-x="661" arabic-form="isolated" 
d="M610 275v-59q0 -412 -262 -412q-71 0 -126 24t-87.5 65t-48.5 90.5t-16 104.5q0 70 29.5 111t88.5 41l35 -3v-4q-32 -13 -53.5 -55t-21.5 -83q0 -82 47 -143.5t146 -61.5q38 0 69 15t49.5 36.5t32 53.5t19.5 57t9.5 57.5t3.5 44.5v27v3v158h27q33 0 46 -15t13 -52z" />
    <glyph glyph-name="uni06BE" unicode="&#x6be;" horiz-adv-x="598" arabic-form="isolated" 
d="M0 20q0 14 3.5 26.5t17.5 25t36 12.5h62q-32 49 -32 100q0 59 41 99.5t105 40.5q61 0 99 -41.5t38 -109.5v-89h87q7 35 7 70q0 64 -20.5 119.5t-73 96t-130.5 40.5q-76 0 -132 -46v21q0 54 31 81t123 27q135 0 210.5 -96t75.5 -256q0 -76 -17 -141h-95q-64 3 -90 29
q-26 -29 -95 -29q-53 0 -92.5 2t-58 5t-17.5 7l-1 -74h-27q-55 0 -55 80zM303 84v16q0 35 -0.5 51.5t-4 41t-11.5 35.5t-23 19.5t-37 8.5q-30 0 -48 -23t-18 -61q0 -29 16 -48t42.5 -27t45.5 -10.5t38 -2.5z" />
    <glyph glyph-name="hehhamza" unicode="&#x6c0;" horiz-adv-x="464" arabic-form="isolated" 
d="M241 425q87 0 140 -66t53 -153q0 -94 -53 -150t-149 -56q-88 0 -140 60t-52 146q0 95 53 157t148 62zM234 74q63 0 89.5 36t26.5 110q0 54 -31 91.5t-78 37.5q-60 0 -88 -41t-28 -103q0 -55 28 -93t81 -38zM284 482h-121q-9 0 -14.5 6t-5.5 13v16h36l-3 6q-4 8 -4 28
q0 32 18 52t48 20q46 0 56 -40q0 -21 -10 -32q-17 42 -49 42q-27 0 -27 -39q0 -28 12 -37h85v-16q0 -7 -6 -13t-15 -6z" />
    <glyph glyph-name="uni06C1" unicode="&#x6c1;" horiz-adv-x="464" arabic-form="isolated" 
d="M241 425q87 0 140 -66t53 -153q0 -94 -53 -150t-149 -56q-88 0 -140 60t-52 146q0 95 53 157t148 62zM234 74q63 0 89.5 36t26.5 110q0 54 -31 91.5t-78 37.5q-60 0 -88 -41t-28 -103q0 -55 28 -93t81 -38z" />
    <glyph glyph-name="uni06CC" unicode="&#x6cc;" horiz-adv-x="894" arabic-form="isolated" 
d="M743 425h86v-380q0 -20 -14 -32.5t-30 -12.5h-42v336q-77 0 -123 -26.5t-61.5 -69t-21 -93.5t-10 -102t-18.5 -93.5t-57 -69t-117 -26.5q-138 0 -201.5 68t-63.5 186q0 74 30.5 118t92.5 44l36 -4v-3q-33 -15 -56.5 -60t-23.5 -87q0 -43 5.5 -70t24 -55t59 -41.5
t103.5 -14.5q42 0 65.5 21t30 55.5t11 78t6.5 89.5t18 89.5t43.5 78t85.5 55.5t142 21z" />
    <glyph glyph-name="yehbarree" unicode="&#x6d2;" horiz-adv-x="515" arabic-form="isolated" 
d="M304 425q84 0 124.5 -33t40.5 -81v-35q-2 3 -5 7t-15 15t-27.5 19t-42 15t-57.5 7q-47 0 -83 -26.5t-56 -68.5t-30 -82t-12 -78h384v-84h-317q-49 0 -87 -16t-51 -32l-14 -16q-5 48 -5 96q0 56 6.5 107.5t24.5 105t45 92.5t73 63.5t104 24.5z" />
    <glyph glyph-name="uni06D3" unicode="&#x6d3;" horiz-adv-x="540" arabic-form="isolated" 
d="M324 425q84 0 124.5 -33t40.5 -81v-35q-2 3 -5 7t-15 15t-27.5 19t-42 15t-57.5 7q-47 0 -83 -26.5t-56 -68.5t-30 -82t-12 -78h384v-84h-317q-49 0 -87 -16t-51 -32l-14 -16q-5 48 -5 96q0 56 6.5 107.5t24.5 105t45 92.5t73 63.5t104 24.5zM396 482h-121q-9 0 -14.5 6
t-5.5 13v16h36l-3 6q-4 8 -4 28q0 32 18 52t48 20q46 0 56 -40q0 -19 -10 -32q-17 42 -49 42q-27 0 -27 -39q0 -28 12 -37h85v-16q0 -7 -6 -13t-15 -6z" />
    <glyph glyph-name="alef_wasla.fina" unicode="&#x671;" horiz-adv-x="263" arabic-form="final" 
d="M184 536v-373q0 -79 76 -79h13v-84h-35q-67 3 -103.5 45.5t-36.5 113.5v444h27q33 0 46 -15t13 -52zM32 656v10h24v79h8q18 0 18 -21v-9q24 55 66 55q43 0 63 -27.5t20 -67.5q0 -35 -11 -35h-170q-18 0 -18 16zM149 742q-22 0 -40 -22.5t-25 -53.5h120q-3 76 -55 76z" />
    <glyph glyph-name="peh.fina" unicode="&#x67e;" horiz-adv-x="828" arabic-form="final" 
d="M741 274q0 -19 -0.5 -46t-0.5 -35q0 -66 17 -87.5t58 -21.5h23v-84h-45q-62 3 -97 38h-4q-34 -35 -91 -38h-342q-88 0 -138.5 67t-50.5 153q0 85 33 125t81 40h34q-3 -2 -7.5 -5.5t-17 -17t-22 -29t-17 -41.5t-7.5 -54q0 -32 8.5 -64.5t36 -61t68.5 -28.5h319q72 0 76 75
v182h27q33 0 46 -15t13 -52zM485 -61q-21 0 -35.5 -14t-14.5 -34t14.5 -34t35.5 -14q19 0 33.5 14t14.5 34t-14.5 34t-33.5 14zM426 -164q-21 0 -35.5 -14t-14.5 -34t14.5 -34t35.5 -14q19 0 33.5 14t14.5 34t-14.5 34t-33.5 14zM370 -61q-20 0 -34.5 -14t-14.5 -34
t14.5 -34t34.5 -14t34 14t14 34t-14 34t-34 14z" />
    <glyph glyph-name="peh.init" unicode="&#x67e;" horiz-adv-x="260" arabic-form="initial" 
d="M210 193q0 -184 -140 -193h-85v84h63q72 0 76 75v182h27q33 0 46 -15t13 -52v-81zM173 -61q-21 0 -35.5 -14t-14.5 -34t14.5 -34t35.5 -14q19 0 33.5 14t14.5 34t-14.5 34t-33.5 14zM114 -164q-21 0 -35.5 -14t-14.5 -34t14.5 -34t35.5 -14q19 0 33.5 14t14.5 34
t-14.5 34t-33.5 14zM58 -61q-20 0 -34.5 -14t-14.5 -34t14.5 -34t34.5 -14t34 14t14 34t-14 34t-34 14z" />
    <glyph glyph-name="peh.medi" unicode="&#x67e;" horiz-adv-x="264" arabic-form="medial" 
d="M175 274v-120q3 -70 76 -70h23v-84h-45q-62 3 -97 38q-37 -35 -97 -38h-45v84h23q72 0 76 75v182h27q33 0 46 -15t13 -52zM178 -61q-21 0 -35.5 -14t-14.5 -34t14.5 -34t35.5 -14q19 0 33.5 14t14.5 34t-14.5 34t-33.5 14zM119 -164q-21 0 -35.5 -14t-14.5 -34t14.5 -34
t35.5 -14q19 0 33.5 14t14.5 34t-14.5 34t-33.5 14zM63 -61q-20 0 -34.5 -14t-14.5 -34t14.5 -34t34.5 -14t34 14t14 34t-14 34t-34 14z" />
    <glyph glyph-name="uniFB67" unicode="&#x679;" horiz-adv-x="828" arabic-form="final" 
d="M741 274q0 -19 -0.5 -46t-0.5 -35q0 -66 17 -87.5t58 -21.5h23v-84h-45q-62 3 -97 38h-4q-34 -35 -91 -38h-342q-88 0 -138.5 67t-50.5 153q0 85 33 125t81 40h34q-3 -2 -7.5 -5.5t-17 -17t-22 -29t-17 -41.5t-7.5 -54q0 -32 8.5 -64.5t36 -61t68.5 -28.5h319q72 0 76 75
v182h27q33 0 46 -15t13 -52zM325 412v10h24v159h8q18 0 18 -21v-89q24 55 66 55q43 0 63 -27.5t20 -67.5q0 -35 -11 -35h-170q-18 0 -18 16zM442 498q-22 0 -40 -22.5t-25 -53.5h120q-3 76 -55 76z" />
    <glyph glyph-name="uniFB68" unicode="&#x679;" horiz-adv-x="260" arabic-form="initial" 
d="M210 193q0 -184 -140 -193h-85v84h63q72 0 76 75v182h27q33 0 46 -15t13 -52v-81zM65 412v10h24v159h8q18 0 18 -21v-89q24 55 66 55q43 0 63 -27.5t20 -67.5q0 -35 -11 -35h-170q-18 0 -18 16zM182 498q-22 0 -40 -22.5t-25 -53.5h120q-3 76 -55 76z" />
    <glyph glyph-name="uniFB69" unicode="&#x679;" horiz-adv-x="264" arabic-form="medial" 
d="M175 274v-120q3 -70 76 -70h23v-84h-45q-62 3 -97 38q-37 -35 -97 -38h-45v84h23q72 0 76 75v182h27q33 0 46 -15t13 -52zM33 412v10h24v159h8q18 0 18 -21v-89q24 55 66 55q43 0 63 -27.5t20 -67.5q0 -35 -11 -35h-170q-18 0 -18 16zM150 498q-22 0 -40 -22.5t-25 -53.5
h120q-3 76 -55 76z" />
    <glyph glyph-name="veh.fina" unicode="&#x6a4;" horiz-adv-x="881" arabic-form="final" 
d="M876 84h15v-84h-4q-57 0 -95 28q-2 -3 -6.5 -7.5t-25.5 -12.5t-49 -8h-466q-80 0 -127.5 70t-47.5 150q0 85 33 125t81 40h34q-3 -2 -7.5 -5.5t-17 -17t-22 -29t-17 -41.5t-7.5 -54q0 -32 8.5 -64.5t36 -61t68.5 -28.5h230q-40 46 -40 122q0 102 51.5 160.5t138.5 58.5
q82 0 133 -56.5t51 -147.5v-128q18 -9 52 -9zM746 84v25v49.5t-1.5 44t-4.5 41.5t-8 34t-13.5 30t-20.5 21t-29 15t-38 4q-46 0 -73.5 -35t-27.5 -93q0 -36 11.5 -61.5t29 -40t47.5 -22.5t58 -10t70 -2zM590 495q-20 0 -34.5 14t-14.5 34t14.5 34t34.5 14t34 -14t14 -34
t-14 -34t-34 -14zM705 495q-21 0 -35.5 14t-14.5 34t14.5 34t35.5 14q19 0 33.5 -14t14.5 -34t-14.5 -34t-33.5 -14zM646 598q-21 0 -35.5 14t-14.5 34t14.5 34t35.5 14q19 0 33.5 -14t14.5 -34t-14.5 -34t-33.5 -14z" />
    <glyph glyph-name="veh.init" unicode="&#x6a4;" horiz-adv-x="511" arabic-form="initial" 
d="M-10 0v84h137q-40 46 -40 122q0 102 51.5 160.5t138.5 58.5q82 0 133 -56.5t51 -147.5v-221h-471zM383 84v25v49.5t-1.5 44t-4.5 41.5t-8 34t-13.5 30t-20.5 21t-29 15t-38 4q-46 0 -73.5 -35t-27.5 -93q0 -36 11.5 -61.5t29 -40t47.5 -22.5t58 -10t70 -2zM227 495
q-20 0 -34.5 14t-14.5 34t14.5 34t34.5 14t34 -14t14 -34t-14 -34t-34 -14zM342 495q-21 0 -35.5 14t-14.5 34t14.5 34t35.5 14q19 0 33.5 -14t14.5 -34t-14.5 -34t-33.5 -14zM283 598q-21 0 -35.5 14t-14.5 34t14.5 34t35.5 14q19 0 33.5 -14t14.5 -34t-14.5 -34t-33.5 -14
z" />
    <glyph glyph-name="veh.medi" unicode="&#x6a4;" horiz-adv-x="547" arabic-form="medial" 
d="M-10 0v84h127q-40 46 -40 122q0 102 51.5 160.5t138.5 58.5q82 0 133 -56.5t51 -147.5v-137h106v-84h-567zM373 84v25v49.5t-1.5 44t-4.5 41.5t-8 34t-13.5 30t-20.5 21t-29 15t-38 4q-46 0 -73.5 -35t-27.5 -93q0 -36 11.5 -61.5t29 -40t47.5 -22.5t58 -10t70 -2z
M217 495q-20 0 -34.5 14t-14.5 34t14.5 34t34.5 14t34 -14t14 -34t-14 -34t-34 -14zM332 495q-21 0 -35.5 14t-14.5 34t14.5 34t35.5 14q19 0 33.5 -14t14.5 -34t-14.5 -34t-33.5 -14zM273 598q-21 0 -35.5 14t-14.5 34t14.5 34t35.5 14q19 0 33.5 -14t14.5 -34t-14.5 -34
t-33.5 -14z" />
    <glyph glyph-name="tcheh.fina" unicode="&#x686;" horiz-adv-x="602" arabic-form="final" 
d="M589 84h23v-84h-11q-66 0 -97 28q-26 -25 -97 -28h-70q-187 0 -187 -131q0 -41 19 -85q34 -80 91 -100l-32 -14q-8 -4 -22 -4q-16 0 -37 11t-44 32.5t-39 63t-16 94.5q0 56 22 105t61 75q7 5 20.5 12.5t61.5 19.5t104 12q44 0 92 -7q-2 38 -12 78t-30 82t-56 68.5
t-83 26.5q-31 0 -57.5 -6.5t-42 -15.5t-27 -18.5t-15.5 -16.5l-5 -6v35q0 48 40.5 81t124.5 33q59 0 105 -24.5t74 -67.5t44.5 -92t24.5 -109q12 -48 73 -48zM384 -61q-21 0 -35.5 -14t-14.5 -34t14.5 -34t35.5 -14q19 0 33.5 14t14.5 34t-14.5 34t-33.5 14zM325 -164
q-21 0 -35.5 -14t-14.5 -34t14.5 -34t35.5 -14q19 0 33.5 14t14.5 34t-14.5 34t-33.5 14zM269 -61q-20 0 -34.5 -14t-14.5 -34t14.5 -34t34.5 -14t34 14t14 34t-14 34t-34 14z" />
    <glyph glyph-name="tcheh.init" unicode="&#x686;" horiz-adv-x="515" arabic-form="initial" 
d="M211 425q58 0 104 -24.5t73 -63.5t45 -92.5t24.5 -105t6.5 -107.5q0 -48 -5 -96q-2 3 -5.5 7t-16.5 15t-28.5 19.5t-43 15.5t-58.5 7h-317v84h384q-2 38 -12 78t-30 82t-56 68.5t-83 26.5q-31 0 -57.5 -6.5t-42 -15.5t-27 -18.5t-16.5 -16.5l-4 -6v35q0 48 40.5 81
t124.5 33zM274 -61q-21 0 -35.5 -14t-14.5 -34t14.5 -34t35.5 -14q19 0 33.5 14t14.5 34t-14.5 34t-33.5 14zM215 -164q-21 0 -35.5 -14t-14.5 -34t14.5 -34t35.5 -14q19 0 33.5 14t14.5 34t-14.5 34t-33.5 14zM159 -61q-20 0 -34.5 -14t-14.5 -34t14.5 -34t34.5 -14t34 14
t14 34t-14 34t-34 14z" />
    <glyph glyph-name="tcheh.medi" unicode="&#x686;" horiz-adv-x="524" arabic-form="medial" 
d="M211 425q66 0 114.5 -29.5t76.5 -81t42 -108t18 -122.5h72v-84h-544v84h384q-2 38 -12 78t-30 82t-56 68.5t-83 26.5q-31 0 -57.5 -6.5t-42 -15.5t-27 -18.5t-16.5 -16.5l-4 -6v35q0 48 40.5 81t124.5 33zM304 -61q-21 0 -35.5 -14t-14.5 -34t14.5 -34t35.5 -14
q19 0 33.5 14t14.5 34t-14.5 34t-33.5 14zM245 -164q-21 0 -35.5 -14t-14.5 -34t14.5 -34t35.5 -14q19 0 33.5 14t14.5 34t-14.5 34t-33.5 14zM189 -61q-20 0 -34.5 -14t-14.5 -34t14.5 -34t34.5 -14t34 14t14 34t-14 34t-34 14z" />
    <glyph glyph-name="ddal.fina" unicode="&#x688;" horiz-adv-x="512" arabic-form="final" 
d="M131 515v10h24v159h8q18 0 18 -21v-89q24 55 66 55q43 0 63 -27.5t20 -67.5q0 -35 -11 -35h-170q-18 0 -18 16zM248 601q-22 0 -40 -22.5t-25 -53.5h120q-3 76 -55 76zM499 84h23v-84h-15q-68 0 -96 28q-29 -28 -127 -28h-193q-17 0 -29 13.5t-12 30.5v40h295
q-7 104 -62 174t-138 70q-15 0 -27.5 -2.5t-17.5 -5.5l-6 -2l14 26q28 53 102 53q52 0 100 -34q47 -28 77.5 -95t39.5 -138q11 -46 72 -46z" />
    <glyph glyph-name="uniFB8B" unicode="&#x698;" horiz-adv-x="329" arabic-form="final" 
d="M138 395q-20 0 -34.5 14t-14.5 34t14.5 34t34.5 14t34 -14t14 -34t-14 -34t-34 -14zM253 395q-21 0 -35.5 14t-14.5 34t14.5 34t35.5 14q19 0 33.5 -14t14.5 -34t-14.5 -34t-33.5 -14zM194 498q-21 0 -35.5 14t-14.5 34t14.5 34t35.5 14q19 0 33.5 -14t14.5 -34
t-14.5 -34t-33.5 -14zM264 0q-15 0 -27 3q-2 -6 -2 -8v-44q0 -51 -37 -89t-94 -38q-31 0 -50 12.5t-19 33.5v23q16 -2 24 -2q18 0 32 2t24 8.5l17 11t11.5 18l7 21t3.5 28l1.5 30.5t0 37.5t-0.5 40.5v254h27q33 0 46 -15t13 -52v-182q18 -9 45 -9h53v-84h-75z" />
    <glyph glyph-name="uniFB8D" unicode="&#x691;" horiz-adv-x="329" arabic-form="final" 
d="M85 412v10h24v159h8q18 0 18 -21v-89q24 55 66 55q43 0 63 -27.5t20 -67.5q0 -35 -11 -35h-170q-18 0 -18 16zM202 498q-22 0 -40 -22.5t-25 -53.5h120q-3 76 -55 76zM264 0q-15 0 -27 3q-2 -6 -2 -8v-44q0 -51 -37 -89t-94 -38q-31 0 -50 12.5t-19 33.5v23q16 -2 24 -2
q18 0 32 2t24 8.5l17 11t11.5 18l7 21t3.5 28l1.5 30.5t0 37.5t-0.5 40.5v254h27q33 0 46 -15t13 -52v-182q18 -9 45 -9h53v-84h-75z" />
    <glyph glyph-name="kheh.fina" unicode="&#x6a9;" horiz-adv-x="814" arabic-form="final" 
d="M147 238q0 -32 8.5 -64.5t36 -61t68.5 -28.5h385q-13 235 -191 235q-27 0 -54 -8l-17 23q-14 18 -13 34q0 25 28 46l374 278l24 -32q9 -12 9 -28q0 -20 -15 -32l-268 -200q62 -12 106.5 -45t66.5 -80t31.5 -93t9.5 -98h88v-84h-579q-80 0 -127.5 70t-47.5 150
q0 85 33 125t81 40h34q-3 -2 -7.5 -5.5t-17 -17t-22 -29t-17 -41.5t-7.5 -54z" />
    <glyph glyph-name="kheh.init" unicode="&#x6a9;" horiz-adv-x="502" arabic-form="initial" 
d="M67 311l-1 2l-16 21q-13 16 -13 34q0 25 28 46l374 278l24 -32q9 -12 9 -28q0 -20 -15 -32l-268 -200q62 -12 106.5 -45t66.5 -79.5t31.5 -93.5t9.5 -98l-1 -84h-412v84h322q-13 235 -191 235q-27 0 -54 -8z" />
    <glyph glyph-name="kheh.medi" unicode="&#x6a9;" horiz-adv-x="482" arabic-form="medial" 
d="M-10 0v84h322q-13 235 -191 235q-27 0 -54 -8l-17 23q-14 18 -13 34q0 25 28 46l374 278l24 -32q9 -12 9 -28q0 -20 -15 -32l-268 -200q62 -12 106.5 -45t66.5 -80t31.5 -93t9.5 -98h89v-84h-502z" />
    <glyph glyph-name="Gaf.fina" unicode="&#x6af;" horiz-adv-x="814" arabic-form="final" 
d="M147 238q0 -32 8.5 -64.5t36 -61t68.5 -28.5h385q-13 235 -191 235q-27 0 -54 -8l-17 23q-14 18 -13 34q0 25 28 46l374 278l24 -32q9 -12 9 -28q0 -20 -15 -32l-268 -200q62 -12 106.5 -45t66.5 -80t31.5 -93t9.5 -98h88v-84h-579q-80 0 -127.5 70t-47.5 150
q0 85 33 125t81 40h34q-3 -2 -7.5 -5.5t-17 -17t-22 -29t-17 -41.5t-7.5 -54zM725 781q21 -31 21 -40q0 -25 -19 -39l-391 -292q-24 24 -24 49q0 17 8 23z" />
    <glyph glyph-name="Gaf.init" unicode="&#x6af;" horiz-adv-x="502" arabic-form="initial" 
d="M67 311l-1 2l-16 21q-13 16 -13 34q0 25 28 46l374 278l24 -32q9 -12 9 -28q0 -20 -15 -32l-268 -200q62 -12 106.5 -45t66.5 -79.5t31.5 -93.5t9.5 -98l-1 -84h-412v84h322q-13 235 -191 235q-27 0 -54 -8zM392 781q21 -31 21 -40q0 -25 -19 -39l-391 -292
q-24 24 -24 49q0 17 8 23z" />
    <glyph glyph-name="Gaf.medi" unicode="&#x6af;" horiz-adv-x="482" arabic-form="medial" 
d="M-10 0v84h322q-13 235 -191 235q-27 0 -54 -8l-17 23q-14 18 -13 34q0 25 28 46l374 278l24 -32q9 -12 9 -28q0 -20 -15 -32l-268 -200q62 -12 106.5 -45t66.5 -80t31.5 -93t9.5 -98h89v-84h-502zM392 781q21 -31 21 -40q0 -25 -19 -39l-391 -292q-24 24 -24 49
q0 17 8 23z" />
    <glyph glyph-name="ghunna.fina" unicode="&#x6ba;" horiz-adv-x="680" arabic-form="final" 
d="M610 275v-59q0 -66 -4 -110q21 -22 61 -22h23v-84h-45q-25 0 -56 11q-56 -207 -241 -207q-71 0 -126 24t-87.5 65t-48.5 90.5t-16 104.5q0 70 29.5 111t88.5 41l35 -3v-4q-32 -13 -53.5 -55t-21.5 -83q0 -82 47 -143.5t146 -61.5q38 0 69 15t49.5 36.5t32 53.5t19.5 57
t9.5 57.5t3.5 44.5v27v3v158h27q33 0 46 -15t13 -52z" />
    <glyph glyph-name="hehhamza.fina" unicode="&#x6c0;" horiz-adv-x="525" arabic-form="final" 
d="M540 84v-84h-196q-304 0 -304 206q0 102 51.5 160.5t138.5 58.5q82 0 133 -56.5t51 -147.5v-137h126zM336 84v25v49.5t-1.5 44t-4.5 41.5t-8 34t-13.5 30t-20.5 21t-29 15t-38 4q-46 0 -73.5 -35t-27.5 -93q0 -36 11.5 -61.5t29 -40t47.5 -22.5t58 -10t70 -2zM284 482
h-121q-9 0 -14.5 6t-5.5 13v16h36l-3 6q-4 8 -4 28q0 32 18 52t48 20q46 0 56 -40q0 -6 -5 -16.5t-5 -15.5q-17 42 -49 42q-27 0 -27 -39q0 -28 12 -37h85v-16q0 -7 -6 -13t-15 -6z" />
    <glyph glyph-name="hehfinaltone" unicode="&#x6c1;" horiz-adv-x="557" arabic-form="final" 
d="M565 84v-84h-34q-106 0 -152 60t-46 177v35q-61 -14 -125 -58t-104 -108l-63 49q62 92 148 144.5t190 52.5l39 -2v-115q0 -79 28.5 -115t91.5 -36h27z" />
    <glyph glyph-name="hehinitialaltone" unicode="&#x6c1;" horiz-adv-x="260" arabic-form="initial" 
d="M66 -170q0 49 30.5 87t71.5 38h14q-14 -14 -23 -37.5t-9 -40.5q0 -20 16 -40t16 -38q0 -22 -16 -37t-39 -15q-28 0 -44.5 21.5t-16.5 61.5zM210 193q0 -184 -140 -193h-85v84h63q72 0 76 75v182h27q33 0 46 -15t13 -52v-81z" />
    <glyph glyph-name="hehmedialaltone" unicode="&#x6c1;" horiz-adv-x="696" arabic-form="medial" 
d="M706 84v-84h-142v-241h-74q-140 0 -200 69.5t-60 215.5q0 4 3 28q-24 -34 -70.5 -53t-98.5 -19h-69v84h79q62 0 109 54.5t47 131.5v105h84v-343q0 -90 43.5 -139.5t121.5 -54.5v246h227zM36 -170q0 49 30.5 87t71.5 38h14q-14 -14 -23 -37.5t-9 -40.5q0 -20 16 -40
t16 -38q0 -22 -16 -37t-39 -15q-28 0 -44.5 21.5t-16.5 61.5z" />
    <glyph glyph-name="uniFBAB" unicode="&#x6be;" horiz-adv-x="572" arabic-form="final" 
d="M-10 0v84h94q7 260 178 260q80 0 125 -45t45 -129q0 -56 -14 -86h164v-84h-117q25 -48 25 -98q0 -97 -54 -149t-146 -52q-51 0 -89.5 18.5t-59.5 45.5t-34.5 68t-17.5 75t-5 77q0 2 0.5 7t0.5 8h-95zM293 -225q111 0 111 110q0 70 -40.5 92.5t-119.5 22.5
q-14 0 -40.5 -0.5t-38.5 -0.5q0 -8 0.5 -29.5t1 -35.5t3 -36.5t7 -37.5t14 -32.5t23 -28t33.5 -17.5t46 -7zM274 268q-34 0 -56 -14t-31 -39.5t-12 -47t-3 -51.5v-32h62q63 0 94.5 18.5t31.5 75.5q0 90 -86 90z" />
    <glyph glyph-name="yehbarree.fina" unicode="&#x6d2;" horiz-adv-x="750" arabic-form="final" 
d="M657 -307h-585q-2 24 -2 45q0 151 86.5 248t257.5 97h346v-83h-357q-59 0 -107.5 -21t-78 -54t-46 -71.5t-18.5 -76.5h504v-84z" />
    <glyph glyph-name="uniFBB1" unicode="&#x6d3;" horiz-adv-x="750" arabic-form="final" 
d="M657 -307h-585q-2 24 -2 45q0 151 86.5 248t257.5 97h346v-83h-357q-59 0 -107.5 -21t-78 -54t-46 -71.5t-18.5 -76.5h504v-84zM418 159h-121q-9 0 -14.5 6t-5.5 13v16h36l-3 6q-4 8 -4 28q0 32 18 52t48 20q46 0 56 -40q0 -19 -10 -32q-17 42 -49 42q-27 0 -27 -39
q0 -28 12 -37h85v-16q0 -7 -6 -13t-15 -6z" />
    <glyph glyph-name="alefmaksura.init" unicode="&#x649;" horiz-adv-x="260" arabic-form="initial" 
d="M210 193q0 -184 -140 -193h-85v84h63q72 0 76 75v182h27q33 0 46 -15t13 -52v-81z" />
    <glyph glyph-name="alefmaksura.medi" unicode="&#x649;" horiz-adv-x="264" arabic-form="medial" 
d="M175 274v-120q3 -70 76 -70h23v-84h-45q-62 3 -97 38q-37 -35 -97 -38h-45v84h23q72 0 76 75v182h27q33 0 46 -15t13 -52z" />
    <glyph glyph-name="uniFBFD" unicode="&#x6cc;" horiz-adv-x="715" arabic-form="final" 
d="M341 -63q29 0 49 10.5t30.5 26t17 43.5t8 51l4 61t5.5 63q-4 1 -13 4.5t-15.5 5t-18 3.5t-23.5 2q-17 0 -29 13.5t-12 30.5v41q4 0 12 0.5t12 0.5q68 0 118 -21.5t76 -52.5t46 -61.5t42.5 -52t51.5 -21.5h23v-84h-20q-19 0 -36 3t-30 6.5t-25.5 11t-20.5 13t-16.5 15.5
t-13 16t-10.5 17t-8 15t-6.5 14t-4.5 11q-9 -109 -15 -135q-23 -98 -108 -122q-33 -9 -76 -9q-138 0 -201.5 68t-63.5 186q0 70 28.5 116t85.5 46l45 -4v-3q-33 -15 -56.5 -60t-23.5 -87q0 -43 5.5 -70t24 -55t59 -41.5t103.5 -14.5z" />
    <glyph glyph-name="uniFBFE" unicode="&#x6cc;" horiz-adv-x="260" arabic-form="initial" 
d="M210 193q0 -184 -140 -193h-85v84h63q72 0 76 75v182h27q33 0 46 -15t13 -52v-81zM57 -157q-20 0 -34.5 14t-14.5 34t14.5 34t34.5 14t34 -14t14 -34t-14 -34t-34 -14zM172 -157q-21 0 -35.5 14t-14.5 34t14.5 34t35.5 14q19 0 33.5 -14t14.5 -34t-14.5 -34t-33.5 -14z
" />
    <glyph glyph-name="uniFBFF" unicode="&#x6cc;" horiz-adv-x="264" arabic-form="medial" 
d="M175 274v-120q3 -70 76 -70h23v-84h-45q-62 3 -97 38q-37 -35 -97 -38h-45v84h23q72 0 76 75v182h27q33 0 46 -15t13 -52zM62 -157q-20 0 -34.5 14t-14.5 34t14.5 34t34.5 14t34 -14t14 -34t-14 -34t-34 -14zM177 -157q-21 0 -35.5 14t-14.5 34t14.5 34t35.5 14
q19 0 33.5 -14t14.5 -34t-14.5 -34t-33.5 -14z" />
    <glyph glyph-name="shadda_dammatan" unicode="&#xfc5e;" arabic-form="isolated" 
d="M10 165q24 0 40.5 -17t16.5 -42q0 -30 -22.5 -50.5t-57.5 -28.5t-58 -10.5t-44 -2.5q-14 0 -17 3t-4 16l8 1q22 13 22 44q0 36 -36 36q-18 0 -27 -13q-4 8 -4 12q0 8 9.5 15t25.5 7q27 0 42.5 -17t15.5 -40q0 -18 -15 -42q48 4 75 11q-29 23 -29 53q0 27 17 46t42 19z
M8 61q33 0 33 42q0 19 -9.5 30t-24.5 11t-23.5 -11t-8.5 -28q0 -18 9.5 -31t23.5 -13zM-126 -1h4l7 -71q1 -15 10 -24t20 -9q9 0 16 6.5t7 18.5l-3 31.5t-3 29.5q-1 10 5 13.5t19 3.5l8 -73q3 -30 27 -30q12 0 19 10t5 28q-3 23 -5 51q0 13 22 13l8 -76q0 -43 -44 -47
q-28 0 -44 17q-12 -16 -36 -16q-23 0 -38.5 16t-17.5 40q-4 40 -4 52q0 16 18 16z" />
    <glyph glyph-name="shadda_kasratan" unicode="&#xfc5f;" arabic-form="isolated" 
d="M-126 77h4l7 -71q1 -15 10 -24t20 -9q9 0 16 6.5t7 18.5l-3 31.5t-3 29.5q-1 10 5 13.5t19 3.5l8 -73q3 -30 27 -30q12 0 19 10t5 28q-3 23 -5 51q0 13 22 13l8 -76q0 -43 -44 -47q-28 0 -44 17q-12 -16 -36 -16q-23 0 -38.5 16t-17.5 40q-4 40 -4 52q0 16 18 16z
M30 -119q-67 -4 -146 -7q-13 0 -13 23l89 3.5t54 2.5q10 0 16 -22zM24 -81q-79 -4 -146 -7q-13 0 -13 23q40 1 84.5 3t58.5 3q10 0 16 -22z" />
    <glyph glyph-name="shadda_fatha" unicode="&#xfc60;" arabic-form="isolated" 
d="M-126 -1h4l7 -71q1 -15 10 -24t20 -9q9 0 16 6.5t7 18.5l-3 31.5t-3 29.5q-1 10 5 13.5t19 3.5l8 -73q3 -30 27 -30q12 0 19 10t5 28q-3 23 -5 51q0 13 22 13l8 -76q0 -43 -44 -47q-28 0 -44 17q-12 -16 -36 -16q-23 0 -38.5 16t-17.5 40q-4 40 -4 52q0 16 18 16zM27 32
q-67 -4 -146 -7q-13 0 -13 23l89 3.5t54 2.5q10 0 16 -22z" />
    <glyph glyph-name="shadda_damma" unicode="&#xfc61;" arabic-form="isolated" 
d="M-42 104q0 -25 16 -37.5t32.5 -2.5t16.5 38q0 20 -10 31.5t-25 11.5q-14 0 -22 -11.5t-8 -29.5zM-10 164q24 0 41 -15.5t17 -40.5q0 -94 -186 -94q-10 0 -12.5 4t-3.5 14l19 1q63 2 95 14q-26 20 -26 52q0 28 16 46.5t40 18.5zM-126 -1h4l7 -71q1 -15 10 -24t20 -9
q9 0 16 6.5t7 18.5l-3 31.5t-3 29.5q-1 10 5 13.5t19 3.5l8 -73q3 -30 27 -30q12 0 19 10t5 28q-3 23 -5 51q0 13 22 13l8 -76q0 -43 -44 -47q-28 0 -44 17q-12 -16 -36 -16q-23 0 -38.5 16t-17.5 40q-4 40 -4 52q0 16 18 16z" />
    <glyph glyph-name="shadda_kasra" unicode="&#xfc62;" arabic-form="isolated" 
d="M-126 39h4l7 -71q1 -15 10 -24t20 -9q9 0 16 6.5t7 18.5l-3 31.5t-3 29.5q-1 10 5 13.5t19 3.5l8 -73q3 -30 27 -30q12 0 19 10t5 28q-3 23 -5 51q0 13 22 13l8 -76q0 -43 -44 -47q-28 0 -44 17q-12 -16 -36 -16q-23 0 -38.5 16t-17.5 40q-4 40 -4 52q0 16 18 16z
M32 -119q-67 -4 -146 -7q-13 0 -13 23l89 3.5t54 2.5q10 0 16 -22z" />
    <glyph glyph-name="shadda_alefsuperscript" unicode="&#xfc63;" arabic-form="isolated" 
d="M-45 12h-10q-15 0 -15 23v82h11q5 0 9.5 -5.5t4.5 -11.5v-88zM-126 -1h4l7 -71q1 -15 10 -24t20 -9q9 0 16 6.5t7 18.5l-3 31.5t-3 29.5q-1 10 5 13.5t19 3.5l8 -73q3 -30 27 -30q12 0 19 10t5 28q-3 23 -5 51q0 13 22 13l8 -76q0 -43 -44 -47q-28 0 -44 17
q-12 -16 -36 -16q-23 0 -38.5 16t-17.5 40q-4 40 -4 52q0 16 18 16z" />
    <glyph glyph-name="alah" unicode="&#xfdf2;" horiz-adv-x="1068" arabic-form="isolated" 
d="M1008 193q0 -184 -140 -193h-96q-62 3 -97 38q-37 -35 -97 -38h-204q-304 0 -304 206q0 102 51.5 160.5t138.5 58.5q82 0 133 -56.5t51 -147.5v-137h112q72 0 76 75v445h27q33 0 46 -15t13 -52v-383q3 -70 76 -70h52q72 0 76 75v445h27q33 0 46 -15t13 -52v-344zM366 84
v25v49.5t-1.5 44t-4.5 41.5t-8 34t-13.5 30t-20.5 21t-29 15t-38 4q-46 0 -73.5 -35t-27.5 -93q0 -36 11.5 -61.5t29 -40t47.5 -22.5t58 -10t70 -2z" />
    <glyph glyph-name="alef_madda.fina" unicode="&#x622;" horiz-adv-x="247" arabic-form="final" 
d="M168 536v-373q0 -79 76 -79h13v-84h-35q-67 3 -103.5 45.5t-36.5 113.5v444h27q33 0 46 -15t13 -52zM187 640h-155v30q0 9 6.5 17.5t15.5 8.5h165v-15q0 -14 -8.5 -27.5t-23.5 -13.5z" />
    <glyph glyph-name="alef_hamza_above.fina" unicode="&#x623;" horiz-adv-x="240" arabic-form="final" 
d="M173 641h-121q-9 0 -14.5 6t-5.5 13v16h36l-3 6q-4 8 -4 28q0 32 18 52t48 20q46 0 56 -40q0 -6 -5 -16.5t-5 -15.5q-17 42 -49 42q-27 0 -27 -39q0 -28 12 -37h85v-16q0 -7 -6 -13t-15 -6zM161 536v-373q0 -79 76 -79h13v-84h-35q-67 3 -103.5 45.5t-36.5 113.5v444h27
q33 0 46 -15t13 -52z" />
    <glyph glyph-name="waw_hamza.fina" unicode="&#x624;" horiz-adv-x="490" arabic-form="final" 
d="M500 84v-84h-100q-14 -74 -80 -124.5t-159 -50.5q-83 0 -83 46v40q21 -4 50 -4q69 0 124 24.5t64 68.5q-286 9 -286 206q0 102 51.5 160.5t138.5 58.5q82 0 133 -56.5t51 -147.5q0 -135 1 -137h95zM110 220q0 -36 11.5 -61.5t29 -40t47.5 -22.5t58 -10t70 -2v25v49.5
t-1.5 44t-4.5 41.5t-8 34t-13.5 30t-20.5 21t-29 15t-38 4q-46 0 -73.5 -35t-27.5 -93zM284 482h-121q-9 0 -14.5 6t-5.5 13v16h36l-3 6q-4 8 -4 28q0 32 18 52t48 20q46 0 56 -40q0 -19 -10 -32q-17 42 -49 42q-27 0 -27 -39q0 -28 12 -37h85v-16q0 -7 -6 -13t-15 -6z" />
    <glyph glyph-name="alef_hamza_below.fina" unicode="&#x625;" horiz-adv-x="225" arabic-form="final" 
d="M52 -187h121q9 0 15 6t6 13v16h-85q-12 9 -12 37q0 39 27 39q32 0 49 -42q0 5 5 15.5t5 16.5q-10 40 -56 40q-30 0 -48 -20t-18 -52q0 -20 4 -28l3 -6h-36v-16q0 -7 5.5 -13t14.5 -6zM146 536v-373q0 -79 76 -79h13v-84h-35q-67 3 -103.5 45.5t-36.5 113.5v444h27
q33 0 46 -15t13 -52z" />
    <glyph glyph-name="yeh_hamza_above.fina" unicode="&#x626;" horiz-adv-x="920" arabic-form="final" 
d="M743 425h86v-341h101v-84h-187v336q-77 0 -123 -26.5t-61.5 -69t-21 -93.5t-10 -102t-18.5 -93.5t-57 -69t-117 -26.5q-138 0 -201.5 68t-63.5 186q0 70 28.5 116t85.5 46l45 -4v-3q-33 -15 -56.5 -60t-23.5 -87q0 -43 5.5 -70t24 -55t59 -41.5t103.5 -14.5q42 0 65.5 21
t30 55.5t11 78t6.5 89.5t18 89.5t43.5 78t85.5 55.5t142 21zM211 312h-121q-9 0 -14.5 6t-5.5 13v16h36l-3 6q-4 8 -4 28q0 32 18 52t48 20q46 0 56 -40q0 -19 -10 -32q-17 42 -49 42q-27 0 -27 -39q0 -28 12 -37h85v-16q0 -7 -6 -13t-15 -6z" />
    <glyph glyph-name="yeh_hamza_above.init" unicode="&#x626;" horiz-adv-x="260" arabic-form="initial" 
d="M210 193q0 -184 -140 -193h-85v84h63q72 0 76 75v182h27q33 0 46 -15t13 -52v-81zM218 397h-121q-9 0 -14.5 6t-5.5 13v16h36l-3 6q-4 8 -4 28q0 32 18 52t48 20q46 0 56 -40q0 -19 -10 -32q-17 42 -49 42q-27 0 -27 -39q0 -28 12 -37h85v-16q0 -7 -6 -13t-15 -6z" />
    <glyph glyph-name="yeh_hamza_above.medi" unicode="&#x626;" horiz-adv-x="264" arabic-form="medial" 
d="M175 274v-120q3 -70 76 -70h23v-84h-45q-62 3 -97 38q-37 -35 -97 -38h-45v84h23q72 0 76 75v182h27q33 0 46 -15t13 -52zM192 397h-121q-9 0 -14.5 6t-5.5 13v16h36l-3 6q-4 8 -4 28q0 32 18 52t48 20q46 0 56 -40q0 -19 -10 -32q-17 42 -49 42q-27 0 -27 -39
q0 -28 12 -37h85v-16q0 -7 -6 -13t-15 -6z" />
    <glyph glyph-name="alef.fina" unicode="&#x627;" horiz-adv-x="197" arabic-form="final" 
d="M118 536v-373q0 -79 76 -79h13v-84h-35q-67 3 -103.5 45.5t-36.5 113.5v444h27q33 0 46 -15t13 -52z" />
    <glyph glyph-name="beh.fina" unicode="&#x628;" horiz-adv-x="828" arabic-form="final" 
d="M741 274q0 -19 -0.5 -46t-0.5 -35q0 -66 17 -87.5t58 -21.5h23v-84h-45q-60 3 -101 38q-34 -35 -91 -38h-342q-88 0 -138.5 67t-50.5 153q0 85 33 125t81 40h34q-3 -2 -7.5 -5.5t-17 -17t-22 -29t-17 -41.5t-7.5 -54q0 -32 8.5 -64.5t36 -61t68.5 -28.5h319q72 0 76 75
v182h27q33 0 46 -15t13 -52zM424 -157q-20 0 -34.5 14t-14.5 34t14.5 34t34.5 14t34 -14t14 -34t-14 -34t-34 -14z" />
    <glyph glyph-name="beh.init" unicode="&#x628;" horiz-adv-x="260" arabic-form="initial" 
d="M101 -157q-20 0 -34.5 14t-14.5 34t14.5 34t34.5 14t34 -14t14 -34t-14 -34t-34 -14zM210 193q0 -184 -140 -193h-85v84h63q72 0 76 75v182h27q33 0 46 -15t13 -52v-81z" />
    <glyph glyph-name="beh.medi" unicode="&#x628;" horiz-adv-x="264" arabic-form="medial" 
d="M175 274v-120q3 -70 76 -70h23v-84h-45q-62 3 -97 38q-37 -35 -97 -38h-45v84h23q72 0 76 75v182h27q33 0 46 -15t13 -52zM122 -157q-20 0 -34.5 14t-14.5 34t14.5 34t34.5 14t34 -14t14 -34t-14 -34t-34 -14z" />
    <glyph glyph-name="tehmarbuta.fina" unicode="&#x629;" horiz-adv-x="525" arabic-form="final" 
d="M540 84v-84h-196q-304 0 -304 206q0 102 51.5 160.5t138.5 58.5q82 0 133 -56.5t51 -147.5v-137h126zM336 84v25v49.5t-1.5 44t-4.5 41.5t-8 34t-13.5 30t-20.5 21t-29 15t-38 4q-46 0 -73.5 -35t-27.5 -93q0 -36 11.5 -61.5t29 -40t47.5 -22.5t58 -10t70 -2zM298 493
q-21 0 -35.5 14t-14.5 34t14.5 34t35.5 14q19 0 33.5 -14t14.5 -34t-14.5 -34t-33.5 -14zM173 493q-20 0 -34.5 14t-14.5 34t14.5 34t34.5 14t34 -14t14 -34t-14 -34t-34 -14z" />
    <glyph glyph-name="teh.fina" unicode="&#x62a;" horiz-adv-x="828" arabic-form="final" 
d="M741 274q0 -19 -0.5 -46t-0.5 -35q0 -66 17 -87.5t58 -21.5h23v-84h-45q-62 3 -97 38h-4q-34 -35 -91 -38h-342q-88 0 -138.5 67t-50.5 153q0 85 33 125t81 40h34q-3 -2 -7.5 -5.5t-17 -17t-22 -29t-17 -41.5t-7.5 -54q0 -32 8.5 -64.5t36 -61t68.5 -28.5h319q72 0 76 75
v182h27q33 0 46 -15t13 -52zM371 394q-20 0 -34.5 14t-14.5 34t14.5 34t34.5 14t34 -14t14 -34t-14 -34t-34 -14zM486 394q-21 0 -35.5 14t-14.5 34t14.5 34t35.5 14q19 0 33.5 -14t14.5 -34t-14.5 -34t-33.5 -14z" />
    <glyph glyph-name="teh.init" unicode="&#x62a;" horiz-adv-x="260" arabic-form="initial" 
d="M210 193q0 -184 -140 -193h-85v84h63q72 0 76 75v182h27q33 0 46 -15t13 -52v-81zM104 394q-20 0 -34.5 14t-14.5 34t14.5 34t34.5 14t34 -14t14 -34t-14 -34t-34 -14zM219 394q-21 0 -35.5 14t-14.5 34t14.5 34t35.5 14q19 0 33.5 -14t14.5 -34t-14.5 -34t-33.5 -14z
" />
    <glyph glyph-name="teh.medi" unicode="&#x62a;" horiz-adv-x="264" arabic-form="medial" 
d="M175 274v-120q3 -70 76 -70h23v-84h-45q-62 3 -97 38q-37 -35 -97 -38h-45v84h23q72 0 76 75v182h27q33 0 46 -15t13 -52zM67 396q-20 0 -34.5 14t-14.5 34t14.5 34t34.5 14t34 -14t14 -34t-14 -34t-34 -14zM182 396q-21 0 -35.5 14t-14.5 34t14.5 34t35.5 14
q19 0 33.5 -14t14.5 -34t-14.5 -34t-33.5 -14z" />
    <glyph glyph-name="theh.fina" unicode="&#x62b;" horiz-adv-x="828" arabic-form="final" 
d="M741 274q0 -19 -0.5 -46t-0.5 -35q0 -66 17 -87.5t58 -21.5h23v-84h-45q-60 3 -101 38q-34 -35 -91 -38h-342q-88 0 -138.5 67t-50.5 153q0 85 33 125t81 40h34q-3 -2 -7.5 -5.5t-17 -17t-22 -29t-17 -41.5t-7.5 -54q0 -32 8.5 -64.5t36 -61t68.5 -28.5h319q72 0 76 75
v182h27q33 0 46 -15t13 -52zM486 394q-21 0 -35.5 14t-14.5 34t14.5 34t35.5 14q19 0 33.5 -14t14.5 -34t-14.5 -34t-33.5 -14zM370 393q-20 0 -34.5 14t-14.5 34t14.5 34t34.5 14t34 -14t14 -34t-14 -34t-34 -14zM429 496q-21 0 -35.5 14t-14.5 34t14.5 34t35.5 14
q19 0 33.5 -14t14.5 -34t-14.5 -34t-33.5 -14z" />
    <glyph glyph-name="theh.init" unicode="&#x62b;" horiz-adv-x="260" arabic-form="initial" 
d="M210 193q0 -184 -140 -193h-85v84h63q72 0 76 75v182h27q33 0 46 -15t13 -52v-81zM218 394q-21 0 -35.5 14t-14.5 34t14.5 34t35.5 14q19 0 33.5 -14t14.5 -34t-14.5 -34t-33.5 -14zM102 393q-20 0 -34.5 14t-14.5 34t14.5 34t34.5 14t34 -14t14 -34t-14 -34t-34 -14z
M161 496q-21 0 -35.5 14t-14.5 34t14.5 34t35.5 14q19 0 33.5 -14t14.5 -34t-14.5 -34t-33.5 -14z" />
    <glyph glyph-name="theh.medi" unicode="&#x62b;" horiz-adv-x="264" arabic-form="medial" 
d="M175 274v-120q3 -70 76 -70h23v-84h-45q-62 3 -97 38q-37 -35 -97 -38h-45v84h23q72 0 76 75v182h27q33 0 46 -15t13 -52zM183 394q-21 0 -35.5 14t-14.5 34t14.5 34t35.5 14q19 0 33.5 -14t14.5 -34t-14.5 -34t-33.5 -14zM67 393q-20 0 -34.5 14t-14.5 34t14.5 34
t34.5 14t34 -14t14 -34t-14 -34t-34 -14zM126 496q-21 0 -35.5 14t-14.5 34t14.5 34t35.5 14q19 0 33.5 -14t14.5 -34t-14.5 -34t-33.5 -14z" />
    <glyph glyph-name="jeem.fina" unicode="&#x62c;" horiz-adv-x="610" arabic-form="final" 
d="M331 -171q-21 0 -34 14t-13 35q0 20 13 33.5t34 13.5q20 0 34.5 -13.5t14.5 -33.5t-14.5 -34.5t-34.5 -14.5zM597 84h23v-84h-11q-66 0 -97 28q-26 -25 -97 -28h-70q-77 0 -132.5 -32t-55.5 -77q0 -49 14 -80t41.5 -43.5t50 -16t59.5 -3.5q86 0 128 43v-35
q0 -30 -36 -58.5t-107 -28.5q-33 0 -64 5.5t-62.5 20t-55 37.5t-38.5 60.5t-16 85.5q0 60 24 103t66 65t89.5 32t105.5 10q47 0 83 -4q-2 38 -12 78t-30 82t-56 68.5t-83 26.5q-31 0 -57.5 -6.5t-42 -15.5t-27 -18.5t-15.5 -16.5l-5 -6v35q0 48 40.5 81t124.5 33
q59 0 105 -24.5t74 -67.5t44.5 -92t24.5 -109q12 -48 73 -48z" />
    <glyph glyph-name="jeem.init" unicode="&#x62c;" horiz-adv-x="541" arabic-form="initial" 
d="M206 425q58 0 104 -24.5t73 -63.5t45 -92.5t24.5 -105t6.5 -107.5q0 -48 -5 -96q-2 3 -5.5 7t-16.5 15t-28.5 19.5t-43 15.5t-58.5 7h-317v84h384q-2 38 -12 78t-30 82t-56 68.5t-83 26.5q-31 0 -57.5 -6.5t-42 -15.5t-27 -18.5t-15.5 -16.5l-5 -6v35q0 48 40.5 81
t124.5 33zM250 -157q-21 0 -35.5 14t-14.5 34t14.5 34t35.5 14q19 0 33.5 -14t14.5 -34t-14.5 -34t-33.5 -14z" />
    <glyph glyph-name="jeem.medi" unicode="&#x62c;" horiz-adv-x="524" arabic-form="medial" 
d="M227 -157q-21 0 -34.5 14t-13.5 34t13.5 34t34.5 14q20 0 34 -14t14 -34t-14 -34t-34 -14zM211 425q66 0 114.5 -29.5t76.5 -81t42 -108t18 -122.5h72v-84h-544v84h384q-2 38 -12 78t-30 82t-56 68.5t-83 26.5q-31 0 -57.5 -6.5t-42 -15.5t-27 -18.5t-16.5 -16.5l-4 -6
v35q0 48 40.5 81t124.5 33z" />
    <glyph glyph-name="hah.fina" unicode="&#x62d;" horiz-adv-x="590" arabic-form="final" 
d="M577 84h23v-84h-11q-66 0 -97 28q-26 -25 -97 -28h-70q-77 0 -132.5 -32t-55.5 -77q0 -49 14 -80t41.5 -43.5t50 -16t59.5 -3.5q86 0 128 43v-35q0 -30 -36 -58.5t-107 -28.5q-33 0 -64 5.5t-62.5 20t-55 37.5t-38.5 60.5t-16 85.5q0 60 24 103t66 65t89.5 32t105.5 10
q47 0 83 -4q-2 38 -12 78t-30 82t-56 68.5t-83 26.5q-31 0 -57.5 -6.5t-42 -15.5t-27 -18.5t-15.5 -16.5l-5 -6v35q0 48 40.5 81t124.5 33q59 0 105 -24.5t74 -67.5t44.5 -92t24.5 -109q12 -48 73 -48z" />
    <glyph glyph-name="hah.init" unicode="&#x62d;" horiz-adv-x="522" arabic-form="initial" 
d="M206 425q58 0 104 -24.5t73 -63.5t45 -92.5t24.5 -105t6.5 -107.5q0 -48 -5 -96q-2 3 -5.5 7t-16.5 15t-28.5 19.5t-43 15.5t-58.5 7h-317v84h384q-2 38 -12 78t-30 82t-56 68.5t-83 26.5q-31 0 -57.5 -6.5t-42 -15.5t-27 -18.5t-15.5 -16.5l-5 -6v35q0 48 40.5 81
t124.5 33z" />
    <glyph glyph-name="hah.medi" unicode="&#x62d;" horiz-adv-x="524" arabic-form="medial" 
d="M211 425q66 0 114.5 -29.5t76.5 -81t42 -108t18 -122.5h72v-84h-544v84h384q-2 38 -12 78t-30 82t-56 68.5t-83 26.5q-31 0 -57.5 -6.5t-42 -15.5t-27 -18.5t-16.5 -16.5l-4 -6v35q0 48 40.5 81t124.5 33z" />
    <glyph glyph-name="khah.fina" unicode="&#x62e;" horiz-adv-x="590" arabic-form="final" 
d="M577 84h23v-84h-11q-66 0 -97 28q-26 -25 -97 -28h-70q-77 0 -132.5 -32t-55.5 -77q0 -49 14 -80t41.5 -43.5t50 -16t59.5 -3.5q86 0 128 43v-35q0 -30 -36 -58.5t-107 -28.5q-33 0 -64 5.5t-62.5 20t-55 37.5t-38.5 60.5t-16 85.5q0 60 24 103t66 65t89.5 32t105.5 10
q47 0 83 -4q-2 38 -12 78t-30 82t-56 68.5t-83 26.5q-31 0 -57.5 -6.5t-42 -15.5t-27 -18.5t-15.5 -16.5l-5 -6v35q0 48 40.5 81t124.5 33q59 0 105 -24.5t74 -67.5t44.5 -92t24.5 -109q12 -48 73 -48zM257 497q-21 0 -34 14t-13 35q0 20 13 33.5t34 13.5q20 0 34.5 -13.5
t14.5 -33.5t-14.5 -34.5t-34.5 -14.5z" />
    <glyph glyph-name="khah.init" unicode="&#x62e;" horiz-adv-x="500" arabic-form="initial" 
d="M214 496q-20 0 -33.5 14.5t-13.5 35.5q0 20 13.5 33.5t33.5 13.5t34.5 -14t14.5 -33q0 -21 -14.5 -35.5t-34.5 -14.5zM206 425q58 0 104 -24.5t73 -63.5t45 -92.5t24.5 -105t6.5 -107.5q0 -48 -5 -96q-2 3 -5.5 7t-16.5 15t-28.5 19.5t-43 15.5t-58.5 7h-317v84h384
q-2 38 -12 78t-30 82t-56 68.5t-83 26.5q-31 0 -57.5 -6.5t-42 -15.5t-27 -18.5t-15.5 -16.5l-5 -6v35q0 48 40.5 81t124.5 33z" />
    <glyph glyph-name="khah.medi" unicode="&#x62e;" horiz-adv-x="524" arabic-form="medial" 
d="M211 425q66 0 114.5 -29.5t76.5 -81t42 -108t18 -122.5h72v-84h-544v84h384q-2 38 -12 78t-30 82t-56 68.5t-83 26.5q-31 0 -57.5 -6.5t-42 -15.5t-27 -18.5t-16.5 -16.5l-4 -6v35q0 48 40.5 81t124.5 33zM212 497q-21 0 -34 14t-13 35q0 20 13 33.5t34 13.5
q20 0 34.5 -13.5t14.5 -33.5t-14.5 -34.5t-34.5 -14.5z" />
    <glyph glyph-name="dal.fina" unicode="&#x62f;" horiz-adv-x="512" arabic-form="final" 
d="M499 84h23v-84h-15q-68 0 -96 28q-29 -28 -127 -28h-193q-17 0 -29 13.5t-12 30.5v40h295q-7 104 -62 174t-138 70q-15 0 -27.5 -2.5t-17.5 -5.5l-6 -2l14 26q28 53 102 53q52 0 100 -34q47 -28 77.5 -95t39.5 -138q11 -46 72 -46z" />
    <glyph glyph-name="thal.fina" unicode="&#x630;" horiz-adv-x="512" arabic-form="final" 
d="M239 496q-21 0 -35.5 14t-14.5 34t14.5 34t35.5 14q19 0 33.5 -14t14.5 -34t-14.5 -34t-33.5 -14zM499 84h23v-84h-15q-68 0 -96 28q-29 -28 -127 -28h-193q-17 0 -29 13.5t-12 30.5v40h295q-7 104 -62 174t-138 70q-15 0 -27.5 -2.5t-17.5 -5.5l-6 -2l14 26
q28 53 102 53q52 0 100 -34q47 -28 77.5 -95t39.5 -138q11 -46 72 -46z" />
    <glyph glyph-name="reh.fina" unicode="&#x631;" horiz-adv-x="349" arabic-form="final" 
d="M284 0q-15 0 -27 3q-2 -6 -2 -8v-44q0 -51 -37 -89t-94 -38q-31 0 -50 12.5t-19 33.5v23q16 -2 24 -2q18 0 32 2t24 8.5l17 11t11.5 18l7 21t3.5 28l1.5 30.5t0 37.5t-0.5 40.5v254h27q33 0 46 -15t13 -52v-182q18 -9 45 -9h53v-84h-75z" />
    <glyph glyph-name="zain.fina" unicode="&#x632;" horiz-adv-x="329" arabic-form="final" 
d="M190 395q-21 0 -35.5 14t-14.5 34t14.5 34t35.5 14q19 0 33.5 -14t14.5 -34t-14.5 -34t-33.5 -14zM264 0q-15 0 -27 3q-2 -6 -2 -8v-44q0 -51 -37 -89t-94 -38q-31 0 -50 12.5t-19 33.5v23q16 -2 24 -2q18 0 32 2t24 8.5l17 11t11.5 18l7 21t3.5 28l1.5 30.5t0 37.5
t-0.5 40.5v254h27q33 0 46 -15t13 -52v-182q18 -9 45 -9h53v-84h-75z" />
    <glyph glyph-name="seen.fina" unicode="&#x633;" horiz-adv-x="1202" arabic-form="final" 
d="M1113 325v-171q3 -70 76 -70h23v-84h-45q-64 3 -103 42q-39 -42 -102 -42q-97 0 -145 38q-40 -38 -95 -38h-113q-21 -84 -84 -140t-172 -56q-72 0 -128 24t-89 65t-49.5 90.5t-16.5 104.5q0 70 29.5 111t88.5 41l35 -3v-4q-32 -13 -53.5 -55t-21.5 -83q0 -82 47 -143.5
t146 -61.5q76 0 129.5 47t53.5 115v340h27q33 0 46 -15t13 -52v-241h90q72 0 76 75v233h27q33 0 46 -15t13 -52q0 -175 1 -177q-2 -23 -6 -41q44 -26 90 -26q43 0 60.5 20t19.5 58v233h27q33 0 46 -15t13 -52z" />
    <glyph glyph-name="seen.init" unicode="&#x633;" horiz-adv-x="746" arabic-form="initial" 
d="M-5 0v84h112v308h27q33 0 46 -15t13 -52v-241h90q72 0 76 75v233h27q33 0 46 -15t13 -52q0 -175 1 -177q-2 -23 -6 -41q44 -26 90 -26q43 0 60.5 20t19.5 58v233h27q33 0 46 -15t13 -52v-132q0 -93 -41.5 -143t-109.5 -50q-97 0 -145 38q-37 -37 -95 -38h-310z" />
    <glyph glyph-name="seen.medi" unicode="&#x633;" horiz-adv-x="790" arabic-form="medial" 
d="M-5 0v84h112v308h27q33 0 46 -15t13 -52v-241h90q72 0 76 75v233h27q33 0 46 -15t13 -52q0 -175 1 -177q-2 -23 -6 -41q44 -26 90 -26q43 0 60.5 20t19.5 58v233h27q33 0 46 -15t13 -52v-171q3 -70 76 -70h23v-84h-45q-64 3 -103 42q-39 -42 -102 -42q-97 0 -145 38
q-37 -37 -95 -38h-310z" />
    <glyph glyph-name="sheen.fina" unicode="&#x634;" horiz-adv-x="1202" arabic-form="final" 
d="M1113 325v-171q3 -70 76 -70h23v-84h-45q-64 3 -103 42q-39 -42 -102 -42q-97 0 -145 38q-40 -38 -95 -38h-113q-21 -84 -84 -140t-172 -56q-72 0 -128 24t-89 65t-49.5 90.5t-16.5 104.5q0 70 29.5 111t88.5 41l35 -3v-4q-32 -13 -53.5 -55t-21.5 -83q0 -82 47 -143.5
t146 -61.5q76 0 129.5 47t53.5 115v340h27q33 0 46 -15t13 -52v-241h90q72 0 76 75v233h27q33 0 46 -15t13 -52q0 -175 1 -177q-2 -23 -6 -41q44 -26 90 -26q43 0 60.5 20t19.5 58v233h27q33 0 46 -15t13 -52zM871 495q-21 0 -35.5 14t-14.5 34t14.5 34t35.5 14
q19 0 33.5 -14t14.5 -34t-14.5 -34t-33.5 -14zM812 598q-21 0 -35.5 14t-14.5 34t14.5 34t35.5 14q19 0 33.5 -14t14.5 -34t-14.5 -34t-33.5 -14zM756 495q-20 0 -34.5 14t-14.5 34t14.5 34t34.5 14t34 -14t14 -34t-14 -34t-34 -14z" />
    <glyph glyph-name="sheen.init" unicode="&#x634;" horiz-adv-x="746" arabic-form="initial" 
d="M-5 0v84h112v308h27q33 0 46 -15t13 -52v-241h90q72 0 76 75v233h27q33 0 46 -15t13 -52q0 -175 1 -177q-2 -23 -6 -41q44 -26 90 -26q43 0 60.5 20t19.5 58v233h27q33 0 46 -15t13 -52v-132q0 -93 -41.5 -143t-109.5 -50q-97 0 -145 38q-37 -37 -95 -38h-310zM339 495
q-20 0 -34.5 14t-14.5 34t14.5 34t34.5 14t34 -14t14 -34t-14 -34t-34 -14zM454 495q-21 0 -35.5 14t-14.5 34t14.5 34t35.5 14q19 0 33.5 -14t14.5 -34t-14.5 -34t-33.5 -14zM395 598q-21 0 -35.5 14t-14.5 34t14.5 34t35.5 14q19 0 33.5 -14t14.5 -34t-14.5 -34t-33.5 -14
z" />
    <glyph glyph-name="sheen.medi" unicode="&#x634;" horiz-adv-x="790" arabic-form="medial" 
d="M-5 0v84h112v308h27q33 0 46 -15t13 -52v-241h90q72 0 76 75v233h27q33 0 46 -15t13 -52q0 -175 1 -177q-2 -23 -6 -41q44 -26 90 -26q43 0 60.5 20t19.5 58v233h27q33 0 46 -15t13 -52v-171q3 -70 76 -70h23v-84h-45q-64 3 -103 42q-39 -42 -102 -42q-97 0 -145 38
q-37 -37 -95 -38h-310zM454 495q-21 0 -35.5 14t-14.5 34t14.5 34t35.5 14q19 0 33.5 -14t14.5 -34t-14.5 -34t-33.5 -14zM395 598q-21 0 -35.5 14t-14.5 34t14.5 34t35.5 14q19 0 33.5 -14t14.5 -34t-14.5 -34t-33.5 -14zM339 495q-20 0 -34.5 14t-14.5 34t14.5 34t34.5 14
t34 -14t14 -34t-14 -34t-34 -14z" />
    <glyph glyph-name="sad.fina" unicode="&#x635;" horiz-adv-x="1183" arabic-form="final" 
d="M826 425q133 0 201 -88t71 -229q21 -24 62 -24h33v-84h-55q-27 0 -57 14q-3 -2 -19 -14h-453q-21 -84 -84 -140t-172 -56q-72 0 -128 24t-89 65t-49.5 90.5t-16.5 104.5q0 70 29.5 111t88.5 41l35 -3v-4q-32 -13 -53.5 -55t-21.5 -83q0 -82 47 -143.5t146 -61.5
q76 0 129.5 47t53.5 115v276h27q33 0 46 -15t13 -52v-17q32 77 88.5 129t127.5 52zM828 332q-74 0 -131.5 -73.5t-80.5 -174.5h393q-14 248 -181 248z" />
    <glyph glyph-name="sad.init" unicode="&#x635;" horiz-adv-x="717" arabic-form="initial" 
d="M397 332q-74 0 -131.5 -73.5t-80.5 -174.5h393q-14 248 -181 248zM-10 0v84h103v244h27q33 0 46 -15t13 -52v-17q32 77 88.5 129t127.5 52t125 -26.5t85 -71.5t46.5 -99t15.5 -115q0 -113 -40 -113h-637z" />
    <glyph glyph-name="sad.medi" unicode="&#x635;" horiz-adv-x="741" arabic-form="medial" 
d="M-10 0v84h104v244h27q33 0 46 -15t13 -52v-17q32 77 88.5 129t127.5 52q74 0 128 -28t84.5 -77t44.5 -107.5t14 -128.5h84v-84h-761zM398 332q-74 0 -131.5 -73.5t-80.5 -174.5h393q-14 248 -181 248z" />
    <glyph glyph-name="dad.fina" unicode="&#x636;" horiz-adv-x="1183" arabic-form="final" 
d="M826 425q133 0 201 -88t71 -229q21 -24 62 -24h33v-84h-55q-27 0 -57 14q-3 -2 -19 -14h-453q-21 -84 -84 -140t-172 -56q-72 0 -128 24t-89 65t-49.5 90.5t-16.5 104.5q0 70 29.5 111t88.5 41l35 -3v-4q-32 -13 -53.5 -55t-21.5 -83q0 -82 47 -143.5t146 -61.5
q76 0 129.5 47t53.5 115v276h27q33 0 46 -15t13 -52v-17q32 77 88.5 129t127.5 52zM828 332q-74 0 -131.5 -73.5t-80.5 -174.5h393q-14 248 -181 248zM823 492q-21 0 -35.5 14t-14.5 34t14.5 34t35.5 14q19 0 33.5 -14t14.5 -34t-14.5 -34t-33.5 -14z" />
    <glyph glyph-name="dad.init" unicode="&#x636;" horiz-adv-x="717" arabic-form="initial" 
d="M397 332q-74 0 -131.5 -73.5t-80.5 -174.5h393q-14 248 -181 248zM-10 0v84h103v244h27q33 0 46 -15t13 -52v-17q32 77 88.5 129t127.5 52t125 -26.5t85 -71.5t46.5 -99t15.5 -115q0 -113 -40 -113h-637zM392 492q-21 0 -35.5 14t-14.5 34t14.5 34t35.5 14q19 0 33.5 -14
t14.5 -34t-14.5 -34t-33.5 -14z" />
    <glyph glyph-name="dad.medi" unicode="&#x636;" horiz-adv-x="741" arabic-form="medial" 
d="M-10 0v84h104v244h27q33 0 46 -15t13 -52v-17q32 77 88.5 129t127.5 52q74 0 128 -28t84.5 -77t44.5 -107.5t14 -128.5h84v-84h-761zM398 332q-74 0 -131.5 -73.5t-80.5 -174.5h393q-14 248 -181 248zM392 492q-21 0 -35.5 14t-14.5 34t14.5 34t35.5 14q19 0 33.5 -14
t14.5 -34t-14.5 -34t-33.5 -14z" />
    <glyph glyph-name="tah.fina" unicode="&#x637;" horiz-adv-x="797" arabic-form="final" 
d="M70 54v30h80v519h27q33 0 46 -15t13 -52v-292q32 77 88.5 129t127.5 52q74 0 128 -28t84.5 -77t44.5 -107.5t14 -128.5h84v-84h-677q-60 0 -60 54zM454 332q-74 0 -131.5 -73.5t-80.5 -174.5h393q-14 248 -181 248z" />
    <glyph glyph-name="tah.init" unicode="&#x637;" horiz-adv-x="717" arabic-form="initial" 
d="M397 332q-74 0 -131.5 -73.5t-80.5 -174.5h393q-14 248 -181 248zM-10 0v84h103v519h27q33 0 46 -15t13 -52v-292q32 77 88.5 129t127.5 52t125 -26.5t85 -71.5t46.5 -99t15.5 -115q0 -113 -40 -113h-637z" />
    <glyph glyph-name="tah.medi" unicode="&#x637;" horiz-adv-x="741" arabic-form="medial" 
d="M-10 0v84h104v519h27q33 0 46 -15t13 -52v-292q32 77 88.5 129t127.5 52q74 0 128 -28t84.5 -77t44.5 -107.5t14 -128.5h84v-84h-761zM398 332q-74 0 -131.5 -73.5t-80.5 -174.5h393q-14 248 -181 248z" />
    <glyph glyph-name="zah.fina" unicode="&#x638;" horiz-adv-x="797" arabic-form="final" 
d="M70 54v30h80v519h27q33 0 46 -15t13 -52v-292q32 77 88.5 129t127.5 52q74 0 128 -28t84.5 -77t44.5 -107.5t14 -128.5h84v-84h-677q-60 0 -60 54zM454 332q-74 0 -131.5 -73.5t-80.5 -174.5h393q-14 248 -181 248zM448 492q-21 0 -35.5 14t-14.5 34t14.5 34t35.5 14
q19 0 33.5 -14t14.5 -34t-14.5 -34t-33.5 -14z" />
    <glyph glyph-name="zah.init" unicode="&#x638;" horiz-adv-x="717" arabic-form="initial" 
d="M397 332q-74 0 -131.5 -73.5t-80.5 -174.5h393q-14 248 -181 248zM-10 0v84h103v519h27q33 0 46 -15t13 -52v-292q32 77 88.5 129t127.5 52t125 -26.5t85 -71.5t46.5 -99t15.5 -115q0 -113 -40 -113h-637zM392 492q-21 0 -35.5 14t-14.5 34t14.5 34t35.5 14
q19 0 33.5 -14t14.5 -34t-14.5 -34t-33.5 -14z" />
    <glyph glyph-name="zah.medi" unicode="&#x638;" horiz-adv-x="741" arabic-form="medial" 
d="M-10 0v84h104v519h27q33 0 46 -15t13 -52v-292q32 77 88.5 129t127.5 52q74 0 128 -28t84.5 -77t44.5 -107.5t14 -128.5h84v-84h-761zM398 332q-74 0 -131.5 -73.5t-80.5 -174.5h393q-14 248 -181 248zM392 492q-21 0 -35.5 14t-14.5 34t14.5 34t35.5 14q19 0 33.5 -14
t14.5 -34t-14.5 -34t-33.5 -14z" />
    <glyph glyph-name="ain.fina" unicode="&#x639;" horiz-adv-x="626" arabic-form="final" 
d="M634 84v-84h-47h-26h-25.5t-22 1t-25 3l-23.5 6t-28.5 10l-30 14.5t-36.5 19.5q-30 -25 -81 -32.5t-67 -19.5q-24 -13 -44.5 -41.5t-20.5 -69.5q0 -49 14 -80t41.5 -43.5t50 -16t59.5 -3.5q86 0 128 43v-35q0 -30 -36 -58.5t-107 -28.5q-33 0 -64 5.5t-62.5 20t-55 37.5
t-38.5 60.5t-16 85.5q0 95 60 157t161 74q-34 46 -85 82.5t-87 45.5q0 7 2.5 38.5t2.5 46.5q24 11 70.5 39t86 44t80.5 16q52 0 95.5 -17.5t86.5 -48.5t49 -34q-20 -48 -63.5 -114.5t-90.5 -105.5q28 -17 90 -17h105zM207 284q32 -16 85 -67t79 -66q54 45 135 157
q-71 36 -131 36q-30 0 -60.5 -8.5t-48 -17.5t-36.5 -20.5t-23 -13.5z" />
    <glyph glyph-name="ain.init" unicode="&#x639;" horiz-adv-x="540" arabic-form="initial" 
d="M-10 0v84h132q-31 59 -31 123q0 88 57.5 148.5t138.5 60.5q83 0 126.5 -44t43.5 -86q0 -26 -10 -41l-20 -29q-8 43 -45 80.5t-89 37.5q-47 0 -81 -35t-34 -90q0 -60 44 -125h268v-25q0 -33 -15 -46t-51 -13h-434z" />
    <glyph glyph-name="ain.medi" unicode="&#x639;" horiz-adv-x="557" arabic-form="medial" 
d="M562 84v-84h-47h-26h-25.5t-22 1t-25 3l-23.5 6t-28.5 10l-30 14.5t-36.5 19.5q-23 -19 -72.5 -36.5t-118.5 -17.5h-112v84h140q23 0 49.5 7t36.5 17q-33 46 -85 83t-88 46q0 7 2.5 38.5t2.5 46.5q24 11 70.5 39t86 44t80.5 16q52 0 95.5 -17.5t86.5 -48.5t49 -34
q-20 -48 -63.5 -114.5t-90.5 -105.5q28 -17 90 -17h105zM135 284q32 -16 85 -67t79 -66q54 45 135 157q-71 36 -131 36q-30 0 -60.5 -8.5t-48 -17.5t-36.5 -20.5t-23 -13.5z" />
    <glyph glyph-name="ghain.fina" unicode="&#x63a;" horiz-adv-x="629" arabic-form="final" 
d="M634 84v-84h-47h-26h-25.5t-22 1t-25 3l-23.5 6t-28.5 10l-30 14.5t-36.5 19.5q-30 -25 -81 -32.5t-67 -19.5q-24 -13 -44.5 -41.5t-20.5 -69.5q0 -49 14 -80t41.5 -43.5t50 -16t59.5 -3.5q86 0 128 43v-35q0 -30 -36 -58.5t-107 -28.5q-33 0 -64 5.5t-62.5 20t-55 37.5
t-38.5 60.5t-16 85.5q0 95 60 157t161 74q-34 46 -85 82.5t-87 45.5q0 7 2.5 38.5t2.5 46.5q24 11 70.5 39t86 44t80.5 16q52 0 95.5 -17.5t86.5 -48.5t49 -34q-20 -48 -63.5 -114.5t-90.5 -105.5q28 -17 90 -17h105zM207 284q32 -16 85 -67t79 -66q54 45 135 157
q-71 36 -131 36q-30 0 -60.5 -8.5t-48 -17.5t-36.5 -20.5t-23 -13.5zM343 493q-20 0 -34 14t-14 34t14 34.5t34 14.5q21 0 35 -14t14 -34q0 -21 -14 -35t-35 -14z" />
    <glyph glyph-name="ghain.init" unicode="&#x63a;" horiz-adv-x="540" arabic-form="initial" 
d="M-10 0v84h132q-31 59 -31 123q0 88 57.5 148.5t138.5 60.5q83 0 126.5 -44t43.5 -86q0 -26 -10 -41l-20 -29q-8 43 -45 80.5t-89 37.5q-47 0 -81 -35t-34 -90q0 -60 44 -125h268v-25q0 -33 -15 -46t-51 -13h-434zM271 493q-20 0 -34 14t-14 34t14 34.5t34 14.5
q21 0 35 -14t14 -34q0 -21 -14 -35t-35 -14z" />
    <glyph glyph-name="ghain.medi" unicode="&#x63a;" horiz-adv-x="557" arabic-form="medial" 
d="M562 84v-84h-47h-26h-25.5t-22 1t-25 3l-23.5 6t-28.5 10l-30 14.5t-36.5 19.5q-23 -19 -72.5 -36.5t-118.5 -17.5h-112v84h140q23 0 49.5 7t36.5 17q-33 46 -85 83t-88 46q0 7 2.5 38.5t2.5 46.5q24 11 70.5 39t86 44t80.5 16q52 0 95.5 -17.5t86.5 -48.5t49 -34
q-20 -48 -63.5 -114.5t-90.5 -105.5q28 -17 90 -17h105zM135 284q32 -16 85 -67t79 -66q54 45 135 157q-71 36 -131 36q-30 0 -60.5 -8.5t-48 -17.5t-36.5 -20.5t-23 -13.5zM271 493q-20 0 -34 14t-14 34t14 34.5t34 14.5q21 0 35 -14t14 -34q0 -21 -14 -35t-35 -14z" />
    <glyph glyph-name="feh.fina" unicode="&#x641;" horiz-adv-x="881" arabic-form="final" 
d="M876 84h15v-84h-4q-57 0 -95 28q-2 -3 -6.5 -7.5t-25.5 -12.5t-49 -8h-466q-80 0 -127.5 70t-47.5 150q0 85 33 125t81 40h34q-3 -2 -7.5 -5.5t-17 -17t-22 -29t-17 -41.5t-7.5 -54q0 -32 8.5 -64.5t36 -61t68.5 -28.5h230q-40 46 -40 122q0 102 51.5 160.5t138.5 58.5
q82 0 133 -56.5t51 -147.5v-128q18 -9 52 -9zM746 84v25v49.5t-1.5 44t-4.5 41.5t-8 34t-13.5 30t-20.5 21t-29 15t-38 4q-46 0 -73.5 -35t-27.5 -93q0 -36 11.5 -61.5t29 -40t47.5 -22.5t58 -10t70 -2zM641 493q-20 0 -34 14t-14 34t14 34.5t34 14.5q21 0 35 -14t14 -34
q0 -21 -14 -35t-35 -14z" />
    <glyph glyph-name="feh.init" unicode="&#x641;" horiz-adv-x="501" arabic-form="initial" 
d="M-10 0v84h137q-40 46 -40 122q0 102 51.5 160.5t138.5 58.5q82 0 133 -56.5t51 -147.5v-221h-471zM383 84v25v49.5t-1.5 44t-4.5 41.5t-8 34t-13.5 30t-20.5 21t-29 15t-38 4q-46 0 -73.5 -35t-27.5 -93q0 -36 11.5 -61.5t29 -40t47.5 -22.5t58 -10t70 -2zM278 493
q-20 0 -34 14t-14 34t14 34.5t34 14.5q21 0 35 -14t14 -34q0 -21 -14 -35t-35 -14z" />
    <glyph glyph-name="feh.medi" unicode="&#x641;" horiz-adv-x="547" arabic-form="medial" 
d="M-10 0v84h127q-40 46 -40 122q0 102 51.5 160.5t138.5 58.5q82 0 133 -56.5t51 -147.5v-137h106v-84h-567zM373 84v25v49.5t-1.5 44t-4.5 41.5t-8 34t-13.5 30t-20.5 21t-29 15t-38 4q-46 0 -73.5 -35t-27.5 -93q0 -36 11.5 -61.5t29 -40t47.5 -22.5t58 -10t70 -2z
M268 493q-20 0 -34 14t-14 34t14 34.5t34 14.5q21 0 35 -14t14 -34q0 -21 -14 -35t-35 -14z" />
    <glyph glyph-name="qaf.fina" unicode="&#x642;" horiz-adv-x="700" arabic-form="final" 
d="M710 84v-84h-100q-17 -77 -87.5 -132.5t-174.5 -55.5q-71 0 -126 24.5t-87 65.5t-48.5 90.5t-16.5 103.5q0 69 30 110.5t88 41.5l35 -3v-4q-33 -13 -53.5 -55.5t-20.5 -84.5q0 -51 17.5 -95t62.5 -76t112 -32q72 0 119 28.5t66 73.5q-286 9 -286 206q0 102 51.5 160.5
t138.5 58.5q82 0 133 -56.5t51 -147.5q0 -135 1 -137h95zM320 220q0 -36 11.5 -61.5t29 -40t47.5 -22.5t58 -10t70 -2v25v49.5t-1.5 44t-4.5 41.5t-8 34t-13.5 30t-20.5 21t-29 15t-38 4q-46 0 -73.5 -35t-27.5 -93zM498 493q-21 0 -35.5 14t-14.5 34t14.5 34t35.5 14
q19 0 33.5 -14t14.5 -34t-14.5 -34t-33.5 -14zM373 493q-20 0 -34.5 14t-14.5 34t14.5 34t34.5 14t34 -14t14 -34t-14 -34t-34 -14z" />
    <glyph glyph-name="qaf.init" unicode="&#x642;" horiz-adv-x="501" arabic-form="initial" 
d="M220 493q-20 0 -34.5 14t-14.5 34t14.5 34t34.5 14t34 -14t14 -34t-14 -34t-34 -14zM345 493q-21 0 -35.5 14t-14.5 34t14.5 34t35.5 14q19 0 33.5 -14t14.5 -34t-14.5 -34t-33.5 -14zM-10 0v84h137q-40 46 -40 122q0 102 51.5 160.5t138.5 58.5q82 0 133 -56.5
t51 -147.5v-221h-471zM383 84v25v49.5t-1.5 44t-4.5 41.5t-8 34t-13.5 30t-20.5 21t-29 15t-38 4q-46 0 -73.5 -35t-27.5 -93q0 -36 11.5 -61.5t29 -40t47.5 -22.5t58 -10t70 -2z" />
    <glyph glyph-name="qaf.medi" unicode="&#x642;" horiz-adv-x="547" arabic-form="medial" 
d="M207 493q-20 0 -34.5 14t-14.5 34t14.5 34t34.5 14t34 -14t14 -34t-14 -34t-34 -14zM332 493q-21 0 -35.5 14t-14.5 34t14.5 34t35.5 14q19 0 33.5 -14t14.5 -34t-14.5 -34t-33.5 -14zM-10 0v84h127q-40 46 -40 122q0 102 51.5 160.5t138.5 58.5q82 0 133 -56.5
t51 -147.5v-137h106v-84h-567zM373 84v25v49.5t-1.5 44t-4.5 41.5t-8 34t-13.5 30t-20.5 21t-29 15t-38 4q-46 0 -73.5 -35t-27.5 -93q0 -36 11.5 -61.5t29 -40t47.5 -22.5t58 -10t70 -2z" />
    <glyph glyph-name="kaf.fina" unicode="&#x643;" horiz-adv-x="801" arabic-form="final" 
d="M338 312h121q9 0 15 6t6 13v16h-85q-12 9 -12 37q0 39 27 39q32 0 49 -42q0 5 5 15.5t5 16.5q-10 40 -56 40q-30 0 -48 -20t-18 -52q0 -20 4 -28l3 -6h-36v-16q0 -7 5.5 -13t14.5 -6zM714 536q0 -14 -0.5 -62t-0.5 -79q0 -265 15 -287q21 -24 60 -24h23v-84h-45
q-60 3 -101 38q-34 -35 -91 -38h-307q-4 -1 -8 -1q-88 0 -138.5 67.5t-50.5 153.5q0 85 33 125t81 40h34q-3 -2 -7.5 -5.5t-17 -17t-22 -29t-17 -41.5t-7.5 -54q0 -32 8.5 -64.5t36 -61t68.5 -28.5h292q72 0 76 75v444h27q33 0 46 -15t13 -52z" />
    <glyph glyph-name="kaf.init" unicode="&#x643;" horiz-adv-x="502" arabic-form="initial" 
d="M67 311l-1 2l-16 21q-13 16 -13 34q0 25 28 46l374 278l24 -32q9 -12 9 -28q0 -20 -15 -32l-268 -200q62 -12 106.5 -45t66.5 -79.5t31.5 -93.5t9.5 -98l-1 -84h-412v84h322q-13 235 -191 235q-27 0 -54 -8z" />
    <glyph glyph-name="kaf.medi" unicode="&#x643;" horiz-adv-x="482" arabic-form="medial" 
d="M-10 0v84h322q-13 235 -191 235q-27 0 -54 -8l-17 23q-14 18 -13 34q0 25 28 46l374 278l24 -32q9 -12 9 -28q0 -20 -15 -32l-268 -200q62 -12 106.5 -45t66.5 -80t31.5 -93t9.5 -98h89v-84h-502z" />
    <glyph glyph-name="lam.fina" unicode="&#x644;" horiz-adv-x="680" arabic-form="final" 
d="M610 535v-319q0 -66 -4 -110q21 -22 61 -22h23v-84h-45q-25 0 -56 11q-56 -207 -241 -207q-71 0 -126 24t-87.5 65t-48.5 90.5t-16 104.5q0 70 29.5 111t88.5 41l35 -3v-4q-32 -13 -53.5 -55t-21.5 -83q0 -82 47 -143.5t146 -61.5q38 0 69 15t49.5 36.5t32 53.5t19.5 57
t9.5 57.5t3.5 44.5v27v3v418h27q33 0 46 -15t13 -52z" />
    <glyph glyph-name="lam.init" unicode="&#x644;" horiz-adv-x="225" arabic-form="initial" 
d="M185 193q0 -184 -140 -193h-55v84h33q72 0 76 75v443h27q33 0 46 -15t13 -52v-342z" />
    <glyph glyph-name="lam.medi" unicode="&#x644;" horiz-adv-x="264" arabic-form="medial" 
d="M175 536v-382q3 -70 76 -70h23v-84h-45q-62 3 -97 38q-37 -35 -97 -38h-45v84h23q72 0 76 75v444h27q33 0 46 -15t13 -52z" />
    <glyph glyph-name="meem.fina" unicode="&#x645;" horiz-adv-x="670" arabic-form="final" 
d="M652 0q-66 0 -98 46q-48 -46 -121 -46q-72 0 -122 44q-17 -62 -57.5 -103.5t-104.5 -44.5q-79 0 -79 54v30l61 1q37 1 60.5 11.5t35 32t15.5 44.5t4 58q0 13 -1.5 40t-1.5 41q0 89 48.5 150.5t141.5 65.5q81 0 132 -56.5t51 -147.5q0 -68 -24 -121q21 -15 75 -15h13v-84
h-6q-4 -1 -8 -1q-1 0 -5 0.5t-9 0.5zM440 79q45 0 70 34.5t25 90.5q0 67 -28.5 102t-81.5 35q-45 0 -72 -33.5t-27 -90.5q0 -64 30 -101t84 -37z" />
    <glyph glyph-name="meem.init" unicode="&#x645;" horiz-adv-x="519" arabic-form="initial" 
d="M296 422q81 0 132 -56t51 -147q0 -103 -49.5 -162t-133.5 -59q-86 0 -141 63q-46 -62 -151 -62q-4 0 -8 1h-26v84h33q63 0 83 25.5t20 93.5q0 102 51.5 160.5t138.5 58.5zM303 79q45 0 70 34.5t25 90.5q0 67 -28.5 102t-81.5 35q-45 0 -72 -33.5t-27 -90.5q0 -64 30 -101
t84 -37z" />
    <glyph glyph-name="meem.medi" unicode="&#x645;" horiz-adv-x="545" arabic-form="medial" 
d="M562 84h13v-84q-63 0 -101 13t-63 46q-49 -61 -135 -61t-141 63q-46 -62 -151 -62q-4 0 -8 1h-6v84h13q63 0 83 25.5t20 93.5q0 102 51.5 160.5t138.5 58.5q82 0 132.5 -59t50.5 -160q0 -68 20 -93.5t83 -25.5zM282 79q45 0 70 34.5t25 90.5q0 67 -28.5 102t-81.5 35
q-45 0 -72 -33.5t-27 -90.5q0 -64 30 -101t84 -37z" />
    <glyph glyph-name="noon.fina" unicode="&#x646;" horiz-adv-x="680" arabic-form="final" 
d="M610 275v-59q0 -66 -4 -110q21 -22 61 -22h23v-84h-45q-25 0 -56 11q-56 -207 -241 -207q-71 0 -126 24t-87.5 65t-48.5 90.5t-16 104.5q0 70 29.5 111t88.5 41l35 -3v-4q-32 -13 -53.5 -55t-21.5 -83q0 -82 47 -143.5t146 -61.5q38 0 69 15t49.5 36.5t32 53.5t19.5 57
t9.5 57.5t3.5 44.5v27v3v158h27q33 0 46 -15t13 -52zM360 342q-20 0 -34 14t-14 34t14 34.5t34 14.5q21 0 35 -14t14 -34q0 -21 -14 -35t-35 -14z" />
    <glyph glyph-name="noon.init" unicode="&#x646;" horiz-adv-x="260" arabic-form="initial" 
d="M210 193q0 -184 -140 -193h-85v84h63q72 0 76 75v182h27q33 0 46 -15t13 -52v-81zM165 395q-21 0 -35.5 14t-14.5 34t14.5 34t35.5 14q19 0 33.5 -14t14.5 -34t-14.5 -34t-33.5 -14z" />
    <glyph glyph-name="noon.medi" unicode="&#x646;" horiz-adv-x="264" arabic-form="medial" 
d="M131 395q-21 0 -35.5 14t-14.5 34t14.5 34t35.5 14q19 0 33.5 -14t14.5 -34t-14.5 -34t-33.5 -14zM175 274v-120q3 -70 76 -70h23v-84h-45q-62 3 -97 38q-37 -35 -97 -38h-45v84h23q72 0 76 75v182h27q33 0 46 -15t13 -52z" />
    <glyph glyph-name="heh.fina" unicode="&#x647;" horiz-adv-x="545" arabic-form="final" 
d="M560 84v-84h-196q-304 0 -304 206q0 102 51.5 160.5t138.5 58.5q82 0 133 -56.5t51 -147.5v-137h126zM356 84v25v49.5t-1.5 44t-4.5 41.5t-8 34t-13.5 30t-20.5 21t-29 15t-38 4q-46 0 -73.5 -35t-27.5 -93q0 -36 11.5 -61.5t29 -40t47.5 -22.5t58 -10t70 -2z" />
    <glyph glyph-name="heh.init" unicode="&#x647;" horiz-adv-x="563" arabic-form="initial" 
d="M499 267q14 -62 14 -126q0 -76 -17 -141h-95q-65 3 -91 29q-26 -29 -101 -29h-219v84h94q-32 49 -32 100q0 59 41 99.5t105 40.5q61 0 99 -41.5t38 -109.5v-89h87q7 35 7 70q0 64 -20.5 119.5t-73 96t-130.5 40.5q-76 0 -132 -46v21q0 54 31 81t123 27q214 0 272 -226z
M268 84v16q0 35 -0.5 51.5t-4 41t-11.5 35.5t-23 19.5t-37 8.5q-30 0 -48 -23t-18 -61q0 -29 16 -48t42.5 -27t45.5 -10.5t38 -2.5z" />
    <glyph glyph-name="heh.medi" unicode="&#x647;" horiz-adv-x="564" arabic-form="medial" 
d="M401 0q-26 1 -38 2.5t-27 7t-26 16.5q-28 -26 -101 -26h-219v84h94q-32 49 -32 100q0 59 41 99.5t105 40.5q61 0 99 -41.5t38 -109.5v-89h87q7 35 7 70q0 64 -20.5 119.5t-73 96t-130.5 40.5q-76 0 -132 -46v21q0 54 31 81t123 27q135 0 210.5 -96t75.5 -256
q0 -29 -3 -57h64v-84h-173zM268 84v16q0 35 -0.5 51.5t-4 41t-11.5 35.5t-23 19.5t-37 8.5q-30 0 -48 -23t-18 -61q0 -29 16 -48t42.5 -27t45.5 -10.5t38 -2.5z" />
    <glyph glyph-name="waw.fina" unicode="&#x648;" horiz-adv-x="490" arabic-form="final" 
d="M500 84v-84h-100q-14 -74 -80 -124.5t-159 -50.5q-83 0 -83 46v40q21 -4 50 -4q69 0 124 24.5t64 68.5q-286 9 -286 206q0 102 51.5 160.5t138.5 58.5q82 0 133 -56.5t51 -147.5q0 -135 1 -137h95zM110 220q0 -36 11.5 -61.5t29 -40t47.5 -22.5t58 -10t70 -2v25v49.5
t-1.5 44t-4.5 41.5t-8 34t-13.5 30t-20.5 21t-29 15t-38 4q-46 0 -73.5 -35t-27.5 -93z" />
    <glyph glyph-name="alefmaksura.fina" unicode="&#x649;" horiz-adv-x="920" arabic-form="final" 
d="M743 425h86v-341h101v-84h-187v336q-77 0 -123 -26.5t-61.5 -69t-21 -93.5t-10 -102t-18.5 -93.5t-57 -69t-117 -26.5q-138 0 -201.5 68t-63.5 186q0 70 28.5 116t85.5 46l45 -4v-3q-33 -15 -56.5 -60t-23.5 -87q0 -43 5.5 -70t24 -55t59 -41.5t103.5 -14.5q42 0 65.5 21
t30 55.5t11 78t6.5 89.5t18 89.5t43.5 78t85.5 55.5t142 21z" />
    <glyph glyph-name="yeh.fina" unicode="&#x64a;" horiz-adv-x="920" arabic-form="final" 
d="M388 -288q-21 0 -35.5 14t-14.5 34t14.5 34t35.5 14q19 0 33.5 -14t14.5 -34t-14.5 -34t-33.5 -14zM273 -288q-20 0 -34.5 14t-14.5 34t14.5 34t34.5 14t34 -14t14 -34t-14 -34t-34 -14zM743 425h86v-341h101v-84h-187v336q-77 0 -123 -26.5t-61.5 -69t-21 -93.5
t-10 -102t-18.5 -93.5t-57 -69t-117 -26.5q-138 0 -201.5 68t-63.5 186q0 70 28.5 116t85.5 46l45 -4v-3q-33 -15 -56.5 -60t-23.5 -87q0 -43 5.5 -70t24 -55t59 -41.5t103.5 -14.5q42 0 65.5 21t30 55.5t11 78t6.5 89.5t18 89.5t43.5 78t85.5 55.5t142 21z" />
    <glyph glyph-name="yeh.init" unicode="&#x64a;" horiz-adv-x="260" arabic-form="initial" 
d="M210 193q0 -184 -140 -193h-85v84h63q72 0 76 75v182h27q33 0 46 -15t13 -52v-81zM57 -157q-20 0 -34.5 14t-14.5 34t14.5 34t34.5 14t34 -14t14 -34t-14 -34t-34 -14zM172 -157q-21 0 -35.5 14t-14.5 34t14.5 34t35.5 14q19 0 33.5 -14t14.5 -34t-14.5 -34t-33.5 -14z
" />
    <glyph glyph-name="yeh.medi" unicode="&#x64a;" horiz-adv-x="264" arabic-form="medial" 
d="M175 274v-120q3 -70 76 -70h23v-84h-45q-62 3 -97 38q-37 -35 -97 -38h-45v84h23q72 0 76 75v182h27q33 0 46 -15t13 -52zM62 -157q-20 0 -34.5 14t-14.5 34t14.5 34t34.5 14t34 -14t14 -34t-14 -34t-34 -14zM177 -157q-21 0 -35.5 14t-14.5 34t14.5 34t35.5 14
q19 0 33.5 -14t14.5 -34t-14.5 -34t-33.5 -14z" />
    <glyph glyph-name=".notdef" horiz-adv-x="550" 
 />
    <glyph glyph-name=".null" 
 />
    <glyph glyph-name="nonmarkingreturn" horiz-adv-x="333" 
 />
    <glyph glyph-name="space" unicode=" " horiz-adv-x="244" 
 />
    <glyph glyph-name="exclam" unicode="!" horiz-adv-x="299" 
d="M178 198h-18q-50 0 -51 60l-12 355h39q54 0 54 -60zM210 63q0 -28 -18 -45.5t-45 -17.5t-46 18t-19 45t19 45.5t46 18.5t45 -18t18 -46z" />
    <glyph glyph-name="quotedbl" unicode="&#x22;" horiz-adv-x="387" 
d="M303 394h-11q-45 0 -51 70l-11 148h34q52 0 52 -67zM136 394h-10q-48 0 -52 70l-10 148h34q51 0 51 -67z" />
    <glyph glyph-name="numbersign" unicode="#" horiz-adv-x="520" 
d="M434 383h-40l-27 -156h74v-12q0 -44 -46 -44h-39l-32 -171h-20q-33 0 -33 32q0 9 3 24l21 115h-124l-30 -171h-22q-32 0 -32 33q0 11 3 24l21 114h-80v13q0 43 45 43h46l28 156h-80v12q0 43 45 43h44l31 174h14q39 0 39 -36q0 -4 -2 -18l-22 -120h124l31 174h13
q40 0 40 -39q0 -6 -2 -18l-21 -117h77v-11q0 -44 -47 -44zM209 383l-27 -156h124l28 156h-125z" />
    <glyph glyph-name="dollar" unicode="$" horiz-adv-x="520" 
d="M459 175q-1 -69 -47 -116t-130 -57v-109h-18q-19 0 -26 7t-7 25v74q-70 1 -118.5 36.5t-48.5 82.5v37h5q60 -84 173 -84q73 0 105.5 23t32.5 73q0 33 -11 50t-47.5 33t-115.5 35q-72 17 -111 49t-39 93q0 68 46.5 116.5t128.5 59.5v116h14q37 0 37 -32v-82q48 0 82 -13
t50 -33t22.5 -36t6.5 -30v-28h-7q-28 36 -65 52.5t-98 16.5q-59 0 -98.5 -21.5t-39.5 -71.5q0 -44 31.5 -63t138.5 -46q71 -18 112.5 -54.5t41.5 -102.5z" />
    <glyph glyph-name="percent" unicode="%" horiz-adv-x="902" 
d="M197 226q-64 0 -102.5 54t-38.5 133q0 89 39.5 144.5t109.5 55.5q64 0 102.5 -53.5t38.5 -132.5q0 -89 -39.5 -145t-109.5 -56zM337 0h-25q-29 0 -29 24q0 15 10 38l246 542h24q10 0 18.5 -10.5t8.5 -26.5q0 -10 -5 -23zM690 -9q-64 0 -103 54t-39 133q0 89 40 144
t110 55q64 0 102.5 -53t38.5 -132q0 -90 -39.5 -145.5t-109.5 -55.5zM198 545q-37 0 -54 -34t-17 -85q0 -131 77 -131q36 0 53 33.5t17 84.5q0 132 -76 132zM690 310q-36 0 -53 -34t-17 -85q0 -132 77 -132q36 0 53 34t17 85q0 132 -77 132z" />
    <glyph glyph-name="ampersand" unicode="&#x26;" horiz-adv-x="611" 
d="M538 -8q-47 -1 -90 42l-34 34q-25 -25 -41.5 -38t-52 -26t-79.5 -13q-92 0 -138.5 46t-46.5 122q0 105 120 177q-64 70 -64 128q0 61 42.5 105t121.5 44q64 0 104.5 -36t40.5 -95q0 -45 -32 -82.5t-108 -80.5q61 -77 134 -150q65 73 70 163h21q14 0 25.5 -13.5
t11.5 -36.5q0 -68 -79 -162q49 -49 71.5 -66t51.5 -21q-10 -27 -19.5 -34t-29.5 -7zM271 543q-80 0 -80 -78q0 -14 5.5 -28t11.5 -22.5t18 -23.5t17 -22q52 28 77 51.5t25 51.5q0 34 -20 52.5t-54 18.5zM216 284q-81 -50 -81 -110q0 -112 120 -112q58 0 114 56
q-64 64 -153 166z" />
    <glyph glyph-name="quotesingle" unicode="'" horiz-adv-x="304" 
d="M184 407h-10q-45 0 -51 69l-11 146h34q51 0 51 -66z" />
    <glyph glyph-name="parenleft" unicode="(" horiz-adv-x="322" 
d="M271 -150q-29 0 -65.5 27t-70.5 74t-57.5 123.5t-23.5 163.5q0 100 30 192.5t81.5 150.5t108.5 58h31q-80 -82 -121 -172t-41 -210q0 -248 157 -407h-29z" />
    <glyph glyph-name="parenright" unicode=")" horiz-adv-x="322" 
d="M52 -150h-29q157 159 157 407q0 120 -41 210t-121 172h31q57 0 108 -58t81.5 -151t30.5 -192q0 -87 -23.5 -163.5t-57.5 -123.5t-70.5 -74t-65.5 -27z" />
    <glyph glyph-name="asterisk" unicode="*" horiz-adv-x="467" 
d="M358 436q-56 0 -88 -8q16 -18 28 -36q21 -36 39 -51.5t43 -22.5q-11 -22 -22 -33t-28 -11q-21 0 -36.5 14t-22.5 30.5t-18 45t-19 44.5q-62 -76 -62 -142q-69 5 -69 54q0 25 16 45t44.5 41t34.5 27q-56 23 -107 23q-22 0 -48 -8q3 34 18 57.5t44 23.5q20 0 36 -7
t38.5 -23.5t37.5 -25.5q4 34 4 38q0 83 -30 120q24 8 36 8q29 0 47 -13.5t18 -40.5q0 -18 -12 -54t-17 -59q36 1 75 25.5t59 54.5q27 -40 27 -65q0 -26 -18.5 -38.5t-47.5 -12.5z" />
    <glyph glyph-name="plus" unicode="+" horiz-adv-x="515" 
d="M416 222h-131v-203h-23q-15 0 -27.5 15t-12.5 42v146h-187v33q0 13 10.5 23.5t27.5 10.5h149v183h31q12 0 22 -10.5t10 -29.5v-143h183v-24q0 -16 -13.5 -29.5t-38.5 -13.5z" />
    <glyph glyph-name="comma" unicode="," horiz-adv-x="272" 
d="M83 -139v6q43 45 43 88q0 23 -24.5 49.5t-24.5 47.5q0 24 16.5 40t46.5 16q27 0 46 -25t19 -74q0 -64 -33 -104.5t-89 -43.5z" />
    <glyph glyph-name="hyphen" unicode="-" horiz-adv-x="325" 
d="M272 289q0 -21 -12.5 -36t-32.5 -15h-173v27q0 19 14.5 33.5t35.5 14.5h168v-24z" />
    <glyph glyph-name="hyphen" unicode="&#xad;" horiz-adv-x="325" 
d="M272 289q0 -21 -12.5 -36t-32.5 -15h-173v27q0 19 14.5 33.5t35.5 14.5h168v-24z" />
    <glyph glyph-name="period" unicode="." horiz-adv-x="272" 
d="M199 62q0 -27 -18 -44.5t-45 -17.5t-45.5 17.5t-18.5 44.5t18.5 45t45.5 18t45 -18t18 -45z" />
    <glyph glyph-name="slash" unicode="/" horiz-adv-x="442" 
d="M117 -9h-28q-8 0 -17.5 9t-9.5 24t9 36l260 578h27q12 0 21.5 -9t9.5 -21q0 -11 -5 -20z" />
    <glyph glyph-name="zero" unicode="0" horiz-adv-x="516" 
d="M472 314q0 -164 -57 -244t-162 -80q-91 0 -150.5 80.5t-59.5 220.5q0 156 55 239t165 83q91 0 150 -74.5t59 -224.5zM392 289q0 138 -34 193t-105 55q-59 0 -93 -55t-34 -169q0 -127 37.5 -186.5t94.5 -59.5q59 0 96.5 53t37.5 169z" />
    <glyph glyph-name="one" unicode="1" horiz-adv-x="335" 
d="M235 0h-29q-53 0 -53 60v459l-91 -42q-10 -5 -23 -5q-12 0 -22.5 6t-12.5 16l-8 30l92 47q64 33 100 33q18 0 32.5 -12t14.5 -30v-562z" />
    <glyph glyph-name="two" unicode="2" horiz-adv-x="520" 
d="M452 46q0 -17 -13 -31.5t-40 -14.5h-306q-18 0 -29 10t-11 25q0 34 18 60.5t81 82.5l127 112q42 37 59 67.5t17 65.5q0 55 -33.5 85t-96.5 30q-110 0 -162 -90h-6v37q0 51 49 89.5t136 38.5q83 0 139 -51t56 -125q0 -67 -26.5 -109t-91.5 -97l-122 -104q-35 -30 -51 -52
h306v-29z" />
    <glyph glyph-name="three" unicode="3" horiz-adv-x="520" 
d="M449 179q0 -88 -54 -138t-164 -50q-73 0 -125.5 34.5t-52.5 84.5v37h5q62 -81 179 -81q130 0 130 103q0 106 -161 106q-41 0 -41 39v23q111 0 153 22t42 79q0 100 -139 100q-61 0 -102.5 -23t-60.5 -58h-6v35q0 42 50.5 81.5t132.5 39.5q97 0 152 -46t55 -118
q0 -113 -126 -138q57 -11 95 -48t38 -84z" />
    <glyph glyph-name="four" unicode="4" horiz-adv-x="510" 
d="M488 192q0 -42 -45 -42h-52v-150h-29q-23 0 -38 14t-15 42v94h-214q-27 0 -44 13t-17 30q0 23 5 35q40 87 126 208t137 168h34q24 0 39.5 -16t15.5 -51v-319h97v-26zM309 218v308q-38 -44 -102.5 -142t-97.5 -166h200z" />
    <glyph glyph-name="five" unicode="5" horiz-adv-x="521" 
d="M471 192q0 -94 -58.5 -147.5t-161.5 -53.5q-76 0 -123 33t-47 78v28h5q55 -64 170 -64q133 0 133 118q0 61 -35.5 86.5t-116.5 25.5q-72 0 -149 -25v249q0 84 77 84h279v-27q0 -48 -53 -48h-229v-176q57 13 101 13q99 0 153.5 -46.5t54.5 -127.5z" />
    <glyph glyph-name="six" unicode="6" horiz-adv-x="517" 
d="M475 194q0 -90 -57.5 -146.5t-154.5 -56.5q-91 0 -150.5 72.5t-59.5 212.5q0 149 68.5 243t185.5 94q66 0 102.5 -28.5t36.5 -65.5v-26h-5q-26 24 -55 36t-80 12q-80 0 -126 -62t-46 -187q15 38 58 65.5t93 27.5q87 0 138.5 -53t51.5 -138zM394 184q0 68 -31 98.5
t-93 30.5q-60 0 -96.5 -33.5t-36.5 -71.5q0 -65 36 -105.5t97 -40.5q60 0 92 34t32 88z" />
    <glyph glyph-name="seven" unicode="7" horiz-adv-x="519" 
d="M458 559q0 -38 -56 -147l-120 -234q-34 -65 -34 -142v-36h-33q-48 0 -48 55q0 71 41 146l123 229q35 66 43 99h-322v26q0 49 51 49h303q52 0 52 -45z" />
    <glyph glyph-name="eight" unicode="8" horiz-adv-x="517" 
d="M477 174q0 -77 -54 -130t-159 -53q-99 0 -153.5 49t-54.5 123q0 47 29.5 87t87.5 56q-109 35 -109 129q0 78 54.5 128t150.5 50q87 0 143 -45.5t56 -119.5q0 -57 -28.5 -89t-84.5 -46q55 -13 88.5 -55.5t33.5 -83.5zM387 440q0 45 -32 73t-91 28t-89 -26.5t-30 -70.5
q0 -48 32.5 -74.5t92.5 -26.5q117 0 117 97zM395 167q0 48 -32.5 77.5t-99.5 29.5q-59 0 -92.5 -29.5t-33.5 -74.5q0 -47 35.5 -75.5t96.5 -28.5q63 0 94.5 28t31.5 73z" />
    <glyph glyph-name="nine" unicode="9" horiz-adv-x="516" 
d="M464 326q0 -172 -53.5 -253.5t-169.5 -81.5q-77 0 -126 32t-49 91v27h5q52 -77 171 -77q74 0 107.5 55.5t33.5 169.5q-20 -36 -57 -57.5t-83 -21.5q-95 0 -149 55.5t-54 135.5q0 90 61.5 151t150.5 61q212 0 212 -287zM382 389q0 78 -33.5 114.5t-102.5 36.5
q-60 0 -93 -36t-33 -92q0 -133 135 -133q59 0 93 33t34 77z" />
    <glyph glyph-name="colon" unicode=":" horiz-adv-x="272" 
d="M199 62q0 -27 -18 -44.5t-45 -17.5t-45.5 17.5t-18.5 44.5t18.5 45t45.5 18t45 -18t18 -45zM199 411q0 -27 -18 -44.5t-45 -17.5t-45.5 17.5t-18.5 44.5t18.5 45t45.5 18t45 -18t18 -45z" />
    <glyph glyph-name="semicolon" unicode=";" horiz-adv-x="271" 
d="M82 -139v6q43 45 43 88q0 23 -24.5 49.5t-24.5 47.5q0 24 16.5 40t46.5 16q27 0 46 -25t19 -74q0 -64 -33 -104.5t-89 -43.5zM199 411q0 -27 -18 -44.5t-45 -17.5t-45.5 17.5t-18.5 44.5t18.5 45t45.5 18t45 -18t18 -45z" />
    <glyph glyph-name="semicolon" unicode="&#x37e;" horiz-adv-x="271" 
d="M82 -139v6q43 45 43 88q0 23 -24.5 49.5t-24.5 47.5q0 24 16.5 40t46.5 16q27 0 46 -25t19 -74q0 -64 -33 -104.5t-89 -43.5zM199 411q0 -27 -18 -44.5t-45 -17.5t-45.5 17.5t-18.5 44.5t18.5 45t45.5 18t45 -18t18 -45z" />
    <glyph glyph-name="less" unicode="&#x3c;" horiz-adv-x="522" 
d="M382 386q-35 -14 -111.5 -52.5t-135.5 -72.5q153 -95 297 -162v-16q0 -29 -44 -29q-31 0 -145 64.5t-189 123.5v20q0 23 127 93.5t255 119.5v-26q0 -21 -12 -35.5t-42 -27.5z" />
    <glyph glyph-name="equal" unicode="=" horiz-adv-x="524" 
d="M412 323h-326v32q0 35 39 35h325v-34q0 -14 -11 -23.5t-27 -9.5zM412 134h-326v32q0 35 39 35h325v-34q0 -14 -11 -23.5t-27 -9.5z" />
    <glyph glyph-name="greater" unicode="&#x3e;" horiz-adv-x="522" 
d="M134 386q-30 13 -42 27.5t-12 35.5v26q78 -30 186.5 -84t155.5 -86q40 -26 40 -43v-20q-75 -59 -189 -123.5t-145 -64.5q-44 0 -44 29v16q144 67 297 162q-58 34 -135 72.5t-112 52.5z" />
    <glyph glyph-name="question" unicode="?" horiz-adv-x="429" 
d="M304 465q0 39 -29.5 60t-79.5 21q-41 0 -72 -14t-41.5 -25.5t-28.5 -35.5h-5v27q0 48 40.5 85t121.5 37q83 0 129.5 -41.5t46.5 -103.5q0 -71 -65 -128l-76 -68q-25 -22 -25 -70v-26h-30q-13 0 -25.5 14t-12.5 34q0 54 42 91l65 58q27 24 36 41t9 44zM258 62
q0 -27 -18 -44.5t-45 -17.5t-45.5 17.5t-18.5 44.5t18.5 45t45.5 18t45 -17.5t18 -45.5z" />
    <glyph glyph-name="at" unicode="@" horiz-adv-x="682" 
d="M475 141q-29 0 -46.5 16t-25.5 53q-28 -69 -109 -69q-37 0 -68 38.5t-31 96.5q0 84 51 142t128 58q42 0 75 -22.5t33 -56.5q0 -14 -10.5 -72t-10.5 -77q0 -48 30 -48q33 0 60.5 42t27.5 116q0 93 -56 151.5t-156 58.5q-106 0 -181 -79t-75 -207q0 -111 63 -174.5
t163 -63.5q84 0 140 23v-21q0 -55 -156 -55q-114 0 -193 77.5t-79 206.5q0 144 91 245.5t236 101.5q116 0 190.5 -74t74.5 -187q0 -99 -47.5 -159.5t-118.5 -60.5zM361 407q-34 0 -59.5 -36t-25.5 -86q0 -72 44 -72q43 0 61 41t32 134q-17 19 -52 19z" />
    <glyph glyph-name="A" unicode="A" horiz-adv-x="534" 
d="M519 0h-29q-48 0 -56 43q-5 24 -17 69.5t-12 47.5h-282q-25 -95 -37 -160h-31q-36 0 -36 39q0 71 74 278.5t139 286.5h27q25 0 43 -16t38 -52q46 -82 102 -241.5t77 -294.5zM385 225q-49 172 -122 306q-73 -130 -122 -306h244z" />
    <glyph glyph-name="B" unicode="B" horiz-adv-x="556" 
d="M501 178q0 -82 -56.5 -132t-142.5 -50h-71q-156 0 -156 135v452q71 25 146 25h80q89 0 138.5 -44.5t49.5 -113.5q0 -103 -107 -134q64 -18 91.5 -57.5t27.5 -80.5zM155 526v-180h123q66 0 98.5 22t32.5 74q0 94 -126 94h-49q-38 0 -79 -10zM283 279h-128v-145
q0 -66 80 -66h63q57 0 89 27t32 78q0 58 -31 82t-105 24z" />
    <glyph glyph-name="C" unicode="C" horiz-adv-x="534" 
d="M509 470h-7q-44 67 -148 67q-97 0 -157 -61.5t-60 -158.5q0 -120 61.5 -185t159.5 -65q93 0 144 59h5v-25q0 -45 -45 -77.5t-120 -32.5q-121 0 -204 88t-83 225q0 126 81 217.5t217 91.5q70 0 113 -35t43 -77v-31z" />
    <glyph glyph-name="D" unicode="D" horiz-adv-x="609" 
d="M554 308q0 -139 -76 -225.5t-195 -86.5h-54q-75 0 -114.5 34.5t-39.5 93.5v467q70 17 135 17h75q113 0 191 -83.5t78 -216.5zM472 296q0 119 -54 179t-152 60h-35q-40 0 -75 -8v-380q0 -79 86 -79h32q93 0 145.5 62.5t52.5 165.5z" />
    <glyph glyph-name="E" unicode="E" horiz-adv-x="508" 
d="M471 63q0 -35 -22 -51t-90 -16h-75q-219 0 -219 251v109q0 107 24 177.5t73 70.5h315v-33q0 -42 -59 -42h-250q-22 -83 -22 -184h262v-25q0 -19 -13 -31.5t-39 -12.5h-210v-44q0 -91 37.5 -127t128.5 -36h46q54 0 113 17v-23z" />
    <glyph glyph-name="F" unicode="F" horiz-adv-x="444" 
d="M439 569q0 -15 -12.5 -28t-36.5 -13h-227v-174h235v-26q0 -22 -14 -34.5t-38 -12.5h-183v-281h-31q-52 0 -52 49v480q0 41 19 58t69 17h271v-35z" />
    <glyph glyph-name="G" unicode="G" horiz-adv-x="606" 
d="M383 613q72 0 117 -33t45 -77v-29h-4q-48 64 -168 64q-93 0 -157 -59.5t-64 -169.5q0 -122 63.5 -182.5t162.5 -60.5q57 0 77.5 17.5t20.5 64.5v56q0 33 -4 69h36q19 0 31 -12.5t12 -29.5v-103q0 -137 -188 -137q-120 0 -206.5 86.5t-86.5 221.5q0 138 82.5 226t230.5 88
z" />
    <glyph glyph-name="H" unicode="H" horiz-adv-x="627" 
d="M547 0h-27q-21 0 -37.5 15.5t-16.5 43.5v219h-304v-278h-30q-20 0 -36 15t-16 44v545h44q15 0 26.5 -11t11.5 -30v-210h304v251h39q17 0 29.5 -11.5t12.5 -29.5v-563z" />
    <glyph glyph-name="I" unicode="I" horiz-adv-x="253" 
d="M168 0h-29q-25 0 -39.5 15t-14.5 44v545h40q16 0 29.5 -12t13.5 -29v-563z" />
    <glyph glyph-name="J" unicode="J" horiz-adv-x="358" 
d="M283 178q0 -89 -45.5 -138t-129.5 -49q-43 0 -73 21.5t-30 54.5v33h5q12 -13 39 -23t57 -10q50 0 73.5 26t23.5 81v430h28q52 0 52 -53v-373z" />
    <glyph glyph-name="K" unicode="K" horiz-adv-x="518" 
d="M161 0h-30q-22 0 -36.5 15.5t-14.5 41.5v547h24q57 0 57 -56v-229l46 62.5l52 69.5l46 57.5t55 63.5q29 32 91 32h40v-5q-13 -11 -28.5 -27l-28.5 -29.5t-32.5 -37l-30 -35.5t-33 -40.5l-29.5 -37l-31 -39.5t-27 -34q27 -38 85.5 -111t88.5 -105q25 -28 44 -42t49 -26
q-8 -15 -13 -21.5t-15 -12t-25 -5.5q-48 0 -77 32q-49 54 -120 142t-107 139v-309z" />
    <glyph glyph-name="L" unicode="L" horiz-adv-x="451" 
d="M449 61q0 -31 -24 -48t-94 -17h-50q-201 0 -201 216v393h29q52 0 52 -61v-310q0 -97 27 -129.5t110 -32.5h33q73 0 118 13v-24z" />
    <glyph glyph-name="M" unicode="M" horiz-adv-x="836" 
d="M751 0h-30q-53 0 -53 65q0 80 -10 224.5t-23 220.5q-18 -32 -53 -134l-94 -271q-24 -67 -44 -105h-18q-14 0 -26.5 9.5t-32 46.5t-41.5 103l-75 228q-23 69 -52 122q-34 -223 -38 -509h-24q-23 0 -39.5 17t-16.5 48q0 225 56 539h30q53 0 83 -37t51 -98l80 -237
q28 -87 36 -121q11 43 40 123l78 217q17 47 40 91t37 62h21q40 0 60 -28.5t26 -86.5q27 -238 32 -489z" />
    <glyph glyph-name="N" unicode="N" horiz-adv-x="626" 
d="M546 0h-25q-45 0 -83.5 33.5t-83.5 125.5l-128 258q-33 67 -67 101v-518h-34q-19 0 -32 15t-13 40v550h39q95 0 155 -121l127 -259q48 -101 69 -126v505h34q18 0 30 -12t12 -31v-561z" />
    <glyph glyph-name="O" unicode="O" horiz-adv-x="657" 
d="M602 310q0 -142 -73.5 -230.5t-204.5 -88.5q-114 0 -191 82.5t-77 221.5q0 142 73.5 230t204.5 88q121 0 194.5 -84.5t73.5 -218.5zM521 295q0 122 -48 182.5t-149 60.5q-88 0 -137.5 -57.5t-49.5 -170.5q0 -118 50 -181t147 -63q87 0 137 61.5t50 167.5z" />
    <glyph glyph-name="P" unicode="P" horiz-adv-x="499" 
d="M489 423q0 -85 -59 -141t-147 -56q-83 0 -121 25v-251h-30q-52 0 -52 53v528q69 27 154 27h47q92 0 150 -49t58 -136zM408 414q0 119 -125 119h-47q-34 0 -74 -9v-203q44 -24 121 -24q61 0 93 31t32 86z" />
    <glyph glyph-name="Q" unicode="Q" horiz-adv-x="663" 
d="M580 -85q-69 0 -163 25t-161 60q-93 26 -147.5 108.5t-54.5 186.5q0 143 71.5 230.5t210.5 87.5q121 0 194 -83t73 -220q0 -121 -63 -203t-151 -92q87 -31 231 -36v-28q0 -15 -12 -25.5t-28 -10.5zM522 297q0 125 -48 183.5t-152 58.5q-51 0 -88.5 -20t-58 -54.5
t-30.5 -73t-10 -81.5q0 -119 52.5 -182.5t148.5 -63.5q84 0 135 63.5t51 169.5z" />
    <glyph glyph-name="R" unicode="R" horiz-adv-x="542" 
d="M520 2q-31 -5 -43 -5q-48 0 -67 46l-45 108q-26 61 -47.5 80t-53.5 22q-73 6 -102 13v-266h-30q-52 0 -52 52v529q69 27 153 27h54q92 0 144.5 -43.5t52.5 -121.5q0 -68 -39.5 -108t-101.5 -48q28 -9 49 -30t27.5 -34t17.5 -39l55 -130q14 -32 28 -48v-4zM402 431
q0 106 -121 106h-46q-36 0 -73 -10v-193q58 -9 109 -9q54 0 92.5 26t38.5 80z" />
    <glyph glyph-name="S" unicode="S" horiz-adv-x="526" 
d="M248 -9q-68 0 -125 35.5t-57 84.5v39h5q28 -37 77 -60t106 -23q74 0 105.5 25.5t31.5 73.5q0 47 -32.5 70.5t-125.5 43.5q-92 20 -133.5 54t-41.5 97q0 79 62.5 130.5t166.5 51.5q79 0 126 -34t47 -78v-37h-5q-57 72 -173 72q-67 0 -103 -24.5t-36 -68.5q0 -43 28 -63
t118 -40q78 -18 132 -58t54 -107q0 -80 -58.5 -132t-168.5 -52z" />
    <glyph glyph-name="T" unicode="T" horiz-adv-x="466" 
d="M461 574q0 -14 -14 -29t-33 -15h-142v-530h-30q-27 0 -40 11.5t-13 40.5v478h-184v30q0 19 13 32t39 13h404v-31z" />
    <glyph glyph-name="U" unicode="U" horiz-adv-x="623" 
d="M70 273v331h29q29 0 41 -14t12 -50v-260q0 -112 39 -162.5t123 -50.5q86 0 122 48t36 158v331h31q50 0 50 -60v-264q0 -139 -62.5 -214t-181.5 -75q-118 0 -178.5 73t-60.5 209z" />
    <glyph glyph-name="V" unicode="V" horiz-adv-x="540" 
d="M513 546q-25 -123 -93.5 -294.5t-120.5 -255.5h-21q-29 0 -52 40q-72 119 -125 271.5t-78 296.5h36q18 0 36.5 -13.5t22.5 -35.5q21 -103 64.5 -235.5t92.5 -220.5q51 99 99 244t67 261h39q15 0 25 -10t10 -22q0 -8 -2 -26z" />
    <glyph glyph-name="W" unicode="W" horiz-adv-x="855" 
d="M803 518q-52 -272 -182 -522h-20q-36 0 -89.5 138t-86.5 302q-26 -123 -70 -253t-77 -187h-18q-29 0 -46 28q-130 256 -176 580h42q20 0 33.5 -15.5t17.5 -37.5q38 -234 124 -437q92 237 135 470h23q31 0 44 -13t21 -55q47 -226 125 -402q46 113 83.5 247t49.5 243h41
q14 0 23.5 -10.5t9.5 -27.5q0 -11 -7 -48z" />
    <glyph glyph-name="X" unicode="X" horiz-adv-x="577" 
d="M496 -7q-34 0 -63.5 24.5t-76.5 93.5l-96 142q-152 -166 -155 -253h-33q-13 0 -23 12t-10 24q0 38 19.5 79.5t83.5 113.5l78 87l-88 128l-34 48.5l-31.5 45t-21.5 34.5t-15 32h48q41 0 108 -101l92 -139q139 150 167 240h28q13 0 22.5 -11t9.5 -30q0 -59 -187 -260
l102 -150q54 -79 127 -146q-18 -14 -51 -14z" />
    <glyph glyph-name="Y" unicode="Y" horiz-adv-x="494" 
d="M482 571q0 -28 -70 -142.5t-121 -175.5v-253h-30q-51 0 -51 49v203q-56 75 -111 173t-84 179h42q43 0 61 -44q44 -108 139 -246q46 66 92 147t68 143h33q32 0 32 -33z" />
    <glyph glyph-name="Z" unicode="Z" horiz-adv-x="535" 
d="M483 44q0 -19 -14.5 -31.5t-37.5 -12.5h-320q-23 0 -37.5 12.5t-14.5 31.5q0 30 20.5 66t74.5 105l172 217q44 56 55 98h-326v17q0 29 14.5 43t54.5 14h313q13 0 26 -13t13 -32q0 -52 -77 -150l-169 -216q-63 -81 -81 -119h334v-30z" />
    <glyph glyph-name="bracketleft" unicode="[" horiz-adv-x="296" 
d="M89 -151v790h138q23 0 36.5 -12.5t13.5 -35.5v-15h-113v-664h63q23 0 36.5 -12.5t13.5 -34.5v-16h-188z" />
    <glyph glyph-name="backslash" unicode="\" horiz-adv-x="446" 
d="M382 0q-55 0 -77 48l-254 556h29q21 0 39 -12t26 -29l256 -563h-19z" />
    <glyph glyph-name="bracketright" unicode="]" horiz-adv-x="295" 
d="M205 639v-790h-188v16q0 22 13.5 34.5t36.5 12.5h63v664h-113v15q0 23 13.5 35.5t36.5 12.5h138z" />
    <glyph glyph-name="asciicircum" unicode="^" horiz-adv-x="451" 
d="M308 407q-19 52 -82 159q-78 -129 -108 -196h-11q-38 0 -38 28q0 16 47.5 100t93.5 141h16q26 0 74 -80.5t90 -190.5q-69 1 -82 39z" />
    <glyph glyph-name="underscore" unicode="_" horiz-adv-x="502" 
d="M502 -253h-502v75h502v-75z" />
    <glyph glyph-name="grave" unicode="`" horiz-adv-x="501" 
d="M137 628q0 45 49 45q71 0 149 -124v-4h-39q-59 0 -109 25t-50 58z" />
    <glyph glyph-name="a" unicode="a" horiz-adv-x="474" 
d="M407 150q0 -73 -43 -116t-134 -43q-72 0 -123 38t-51 97q0 73 55 112t157 39h61v21q0 50 -25.5 72t-81.5 22q-99 0 -144 -62h-5v37q0 35 43 65.5t114 30.5q86 0 131.5 -44t45.5 -127v-142zM330 156v56h-62q-133 0 -133 -78q0 -30 27.5 -50.5t70.5 -20.5q52 0 74.5 21.5
t22.5 71.5z" />
    <glyph glyph-name="b" unicode="b" horiz-adv-x="541" 
d="M486 235q0 -106 -59 -175t-155 -69q-94 0 -148 62.5t-54 163.5v417h37q17 0 30 -13.5t13 -39.5v-208q19 42 58 66t87 24q82 0 136.5 -61t54.5 -167zM407 226q0 87 -36 126t-97 39q-55 0 -89.5 -45.5t-34.5 -119.5q0 -82 35 -122t97 -40q57 0 91 44t34 118z" />
    <glyph glyph-name="c" unicode="c" horiz-adv-x="459" 
d="M404 331h-4q-12 25 -47 42.5t-69 17.5q-67 0 -108.5 -44t-41.5 -113q0 -83 46 -126.5t106 -43.5q81 0 114 40h4v-33q0 -28 -33 -54t-99 -26q-79 0 -148 64t-69 167q0 100 62.5 170.5t162.5 70.5q53 0 88.5 -26t35.5 -73v-33z" />
    <glyph glyph-name="d" unicode="d" horiz-adv-x="539" 
d="M469 241q0 -131 -49.5 -190.5t-156.5 -59.5q-85 0 -146.5 67.5t-61.5 162.5q0 116 52 179t147 63q92 0 136 -87v258h21q58 0 58 -63v-330zM390 219q0 172 -134 172q-59 0 -91 -42.5t-32 -120.5q0 -69 38.5 -116.5t98.5 -47.5q62 0 91 36.5t29 118.5z" />
    <glyph glyph-name="e" unicode="e" horiz-adv-x="494" 
d="M439 305q0 -62 -40 -87.5t-153 -25.5h-112q5 -58 43.5 -93.5t101.5 -35.5q89 0 138 47h4v-34q0 -38 -39.5 -61.5t-113.5 -23.5q-93 0 -153 64.5t-60 162.5q0 109 60.5 177t151.5 68q69 0 120.5 -45.5t51.5 -112.5zM364 301q0 39 -27 66t-78 27q-54 0 -88.5 -37t-36.5 -85
l-1 -19l103 2q80 1 104 10.5t24 35.5z" />
    <glyph glyph-name="f" unicode="f" horiz-adv-x="313" 
d="M313 516h-4q-27 23 -68 23q-45 0 -64.5 -21.5t-19.5 -71.5v-56h135v-28q0 -17 -13.5 -29t-37.5 -12h-85v-321h-28q-48 0 -48 55v400q0 63 41 110t109 47q38 0 60.5 -17.5t22.5 -37.5v-41z" />
    <glyph glyph-name="g" unicode="g" horiz-adv-x="510" 
d="M443 145q0 -11 2 -41.5t2 -38.5q0 -101 -60 -153.5t-155 -52.5q-57 0 -99.5 25.5t-42.5 65.5v31h6q52 -49 145 -49q58 0 95 33t37 96q0 5 -2.5 26t-2.5 33v23q-35 -83 -125 -83q-82 0 -135.5 49t-53.5 132q0 92 56 157t161 65q79 0 125.5 -49.5t46.5 -143.5v-125z
M368 251q0 140 -109 140q-57 0 -92 -39.5t-35 -93.5q0 -127 120 -127q54 0 85 33.5t31 86.5z" />
    <glyph glyph-name="h" unicode="h" horiz-adv-x="526" 
d="M456 0h-21q-30 0 -43.5 12t-13.5 38v215q0 66 -27 95.5t-81 29.5q-44 0 -79 -34.5t-35 -94.5v-261h-22q-54 0 -54 50v584h23q55 0 55 -58v-193q43 80 123 80q175 0 175 -195v-268z" />
    <glyph glyph-name="i" unicode="i" horiz-adv-x="283" 
d="M179 570q0 -22 -15 -37t-37 -15q-21 0 -36.5 15t-15.5 37t15.5 38t36.5 16q22 0 37 -16t15 -38zM268 42q0 -22 -12 -34t-33 -12q-136 0 -136 135v324h23q22 0 38 -16.5t16 -44.5v-252q0 -75 71 -75h33v-25z" />
    <glyph glyph-name="j" unicode="j" horiz-adv-x="278" 
d="M203 570q-1 -22 -15.5 -37t-36.5 -15t-37.5 15t-15.5 37t15.5 38t37.5 16t37 -16t15 -38zM188 -9q0 -66 -35.5 -105t-100.5 -39q-29 0 -45.5 11.5t-16.5 27.5v26l48 4q72 6 72 79v460h24q30 0 42 -14t12 -47v-403z" />
    <glyph glyph-name="k" unicode="k" horiz-adv-x="437" 
d="M423 35q-5 -21 -14.5 -29.5t-37.5 -8.5q-33 0 -59 26q-21 21 -45 48.5t-39.5 47l-43.5 54.5l-39 49v-222h-24q-51 0 -51 61v573h24q51 0 51 -51v-328q75 94 167 182q17 17 59 17h54v-4q-78 -61 -207 -206q71 -97 124 -152q47 -49 81 -57z" />
    <glyph glyph-name="l" unicode="l" horiz-adv-x="285" 
d="M280 42q0 -45 -62 -45q-138 0 -138 135v502h24q24 0 39 -15.5t15 -44.5v-433q0 -40 18.5 -56.5t53.5 -16.5h50v-26z" />
    <glyph glyph-name="m" unicode="m" horiz-adv-x="780" 
d="M711 0h-27q-23 0 -37 15t-14 42v201q0 132 -98 132q-56 0 -81 -30.5t-25 -99.5v-260h-26q-52 0 -52 57v201q0 62 -27 97t-75 35q-102 0 -102 -132v-258h-25q-53 0 -53 57v211q0 82 49.5 138.5t135.5 56.5q97 0 141 -82q23 37 61 59.5t82 22.5q173 0 173 -203v-260z" />
    <glyph glyph-name="n" unicode="n" horiz-adv-x="516" 
d="M446 0h-28q-48 0 -48 50v209q0 71 -27.5 101t-88.5 30q-107 0 -107 -131v-259h-29q-22 0 -35 13.5t-13 39.5v208q0 94 52.5 148t140.5 54q87 0 135 -50.5t48 -150.5v-262z" />
    <glyph glyph-name="o" unicode="o" horiz-adv-x="526" 
d="M470 236q0 -114 -55.5 -179.5t-148.5 -65.5q-91 0 -151 63.5t-60 164.5q0 113 57 178t154 65q90 0 147 -62.5t57 -163.5zM391 218q0 171 -137 171q-55 0 -88 -41.5t-33 -112.5q0 -79 37 -124.5t103 -45.5q56 0 87 42t31 111z" />
    <glyph glyph-name="p" unicode="p" horiz-adv-x="539" 
d="M484 238q0 -114 -58 -180.5t-146 -66.5q-39 0 -76.5 22.5t-54.5 57.5v-216h-28q-51 0 -51 59v301q0 118 55.5 183t162.5 65q78 0 137 -64t59 -161zM405 217q0 89 -36 131t-98 42q-59 0 -91.5 -41.5t-32.5 -112.5q0 -85 38 -128.5t103 -43.5q55 0 86 39.5t31 113.5z" />
    <glyph glyph-name="q" unicode="q" horiz-adv-x="538" 
d="M470 -145h-31q-23 0 -36 14.5t-13 37.5v169q-15 -36 -53 -60.5t-84 -24.5q-81 0 -139.5 63t-58.5 167q0 103 62.5 172.5t157.5 69.5q90 0 142.5 -58.5t52.5 -163.5v-386zM391 230q0 161 -123 161q-62 0 -98.5 -45.5t-36.5 -119.5t37 -118t92 -44q129 0 129 166z" />
    <glyph glyph-name="r" unicode="r" horiz-adv-x="321" 
d="M309 359h-4q-27 23 -70 23q-46 0 -64.5 -27.5t-18.5 -99.5v-255h-33q-21 0 -32.5 14.5t-11.5 37.5v209q0 92 40.5 142.5t108.5 50.5q44 0 64.5 -16.5t20.5 -41.5v-37z" />
    <glyph glyph-name="s" unicode="s" horiz-adv-x="431" 
d="M378 138q0 -70 -49 -108.5t-129 -38.5q-58 0 -97.5 25.5t-39.5 65.5v33h4q46 -51 135 -51q97 0 97 66q0 29 -22.5 44.5t-97.5 31.5q-66 14 -95.5 39.5t-29.5 74.5q0 58 49.5 100.5t130.5 42.5q54 0 93.5 -23t39.5 -63v-34h-4q-16 19 -50 33t-73 14q-108 0 -108 -64
q0 -25 21 -37t91 -27q134 -30 134 -124z" />
    <glyph glyph-name="t" unicode="t" horiz-adv-x="333" 
d="M156 547v-93h157v-26q0 -46 -60 -46h-96v-226q0 -91 75 -91q52 0 72 12h4v-27q0 -59 -83 -59q-75 0 -110 39t-35 119v296q0 38 21 70t46 32h9z" />
    <glyph glyph-name="u" unicode="u" horiz-adv-x="516" 
d="M446 195q0 -99 -49.5 -151.5t-140.5 -52.5q-85 0 -135.5 56t-50.5 155v253h24q54 0 54 -61v-187q0 -68 31 -105t82 -37q54 0 81 33t27 105v252h21q56 0 56 -61v-199z" />
    <glyph glyph-name="v" unicode="v" horiz-adv-x="454" 
d="M423 360q-21 -87 -70.5 -199t-99.5 -170h-21q-23 0 -39 23q-132 194 -169 441h39q38 0 46 -44q37 -194 126 -332q46 70 85.5 185t51.5 191h27q33 0 33 -37q0 -22 -9 -58z" />
    <glyph glyph-name="w" unicode="w" horiz-adv-x="709" 
d="M679 416q-6 -102 -51 -219t-100 -205q-26 0 -38 4.5t-20 18.5q-37 62 -70.5 146t-41.5 151q-13 -72 -52 -171.5t-74 -149.5h-16q-26 0 -40 24q-117 202 -148 440h41q20 0 33 -13t15 -31q26 -170 96 -313q64 119 117 345h24q42 0 52 -46q38 -177 102 -299
q35 67 67.5 176.5t37.5 180.5h24q19 0 30.5 -10.5t11.5 -28.5z" />
    <glyph glyph-name="x" unicode="x" horiz-adv-x="442" 
d="M420 25v-5q0 -1 -4 -5.5t-6.5 -6.5l-7 -5.5t-9.5 -5t-12 -1.5q-28 0 -44 9.5t-43 42.5q-17 20 -92 130q-32 -34 -48 -54t-35 -55.5t-21 -68.5h-35q-13 0 -22.5 10t-9.5 27q0 31 23 70.5t46 65.5l63 68l-135 207v7h46q41 0 66 -41q12 -21 77 -123q100 100 111 164h20
q16 0 26.5 -12t10.5 -33q0 -27 -25.5 -63t-105.5 -118l86 -120q46 -65 80 -84z" />
    <glyph glyph-name="y" unicode="y" horiz-adv-x="460" 
d="M427 372q-31 -118 -136 -329q-54 -110 -92.5 -151.5t-86.5 -41.5q-25 0 -42 12t-17 27v29h37q30 0 52 19.5t59 88.5q-57 88 -106 205t-69 224h44q37 0 48 -46q37 -168 123 -310q38 65 78 174t51 182h31q36 0 36 -35q0 -16 -10 -48z" />
    <glyph glyph-name="z" unicode="z" horiz-adv-x="439" 
d="M399 42q0 -19 -15 -30.5t-39 -11.5h-252q-21 0 -35.5 12t-14.5 31q0 23 14 48t51 66l155 174q31 37 37 53h-260v27q0 19 13.5 31.5t33.5 12.5h259q47 0 47 -43q0 -41 -64 -113l-147 -163q-28 -31 -46 -65h263v-29z" />
    <glyph glyph-name="braceleft" unicode="{" horiz-adv-x="335" 
d="M121 504q0 61 36 98t89 37q62 0 62 -41v-17q-26 1 -47 1q-46 0 -59 -34t-13 -113q0 -17 2 -40t2 -39q0 -49 -19 -73.5t-60 -32.5v-2q79 -17 79 -114q0 -16 -2 -39t-2 -41q0 -80 14 -113t58 -33h8q14 0 27.5 -13.5t13.5 -29.5v-16h-63q-57 0 -91.5 36t-34.5 101
q0 27 3 77.5t3 70.5q0 69 -61 80q-33 6 -33 28v29l33 5q61 9 61 77q0 18 -3 65.5t-3 85.5z" />
    <glyph glyph-name="bar" unicode="|" horiz-adv-x="251" 
d="M150 -151h-19q-14 0 -25.5 11t-11.5 29v750h18q15 0 26.5 -9.5t11.5 -25.5v-755z" />
    <glyph glyph-name="braceright" unicode="}" horiz-adv-x="335" 
d="M215 504q0 -38 -3 -85.5t-3 -65.5q0 -68 61 -77l33 -5v-29q0 -22 -33 -28q-61 -11 -61 -80q0 -20 3 -70.5t3 -77.5q0 -65 -34.5 -101t-91.5 -36h-63v16q0 16 13.5 29.5t27.5 13.5h8q44 0 58 33t14 113q0 18 -2 41t-2 39q0 97 79 114v2q-41 8 -60 32.5t-19 73.5q0 16 2 39
t2 40q0 79 -13 113t-59 34q-21 0 -47 -1v17q0 41 62 41q53 0 89 -37t36 -98z" />
    <glyph glyph-name="asciitilde" unicode="~" horiz-adv-x="543" 
d="M354 204q-30 0 -84 30t-77 30q-26 0 -44 -19.5t-23 -50.5h-10q-11 0 -22.5 9.5t-11.5 31.5q0 51 33.5 77t71.5 26q30 0 82.5 -31t81.5 -31q60 0 66 67h17q10 0 19 -10t9 -31q0 -41 -30.5 -69.5t-77.5 -28.5z" />
    <glyph glyph-name="uni00A0" unicode="&#xa0;" horiz-adv-x="120" 
 />
    <glyph glyph-name="exclamdown" unicode="&#xa1;" horiz-adv-x="298" 
d="M210 411q0 -26 -18.5 -44t-44.5 -18q-27 0 -45.5 18t-18.5 44q0 27 18.5 45t45.5 18t45 -18t18 -45zM119 258h18q47 0 50 -60l12 -350h-38q-53 0 -53 59z" />
    <glyph glyph-name="cent" unicode="&#xa2;" horiz-adv-x="508" 
d="M417 331h-4q-12 25 -47 42.5t-69 17.5q-67 0 -108.5 -44t-41.5 -113q0 -83 46 -126.5t106 -43.5q74 0 107 40h4v-33q0 -22 -19 -44.5t-60 -30.5h3q0 -1 -2.5 -1t-9 -0.5t-13.5 -2.5v-99q-31 0 -44 6.5t-13 25.5v68h7q-75 12 -133 73.5t-58 155.5q0 89 50.5 156t133.5 82
v107h22q35 0 35 -32v-73q48 -4 78 -29.5t30 -68.5v-33z" />
    <glyph glyph-name="sterling" unicode="&#xa3;" horiz-adv-x="518" 
d="M208 424q0 -34 15 -97h151v-22q0 -20 -13.5 -30.5t-32.5 -10.5h-95q6 -29 6 -54q0 -32 -10 -71.5t-25 -61.5v-4h260v-26q0 -21 -15 -34t-42 -13h-324v21q0 22 19 45.5t38.5 56.5t19.5 77q0 21 -9 64h-97v22q0 41 43 41h44q-14 68 -14 97q0 81 53 135t141 54q50 0 85 -27
t35 -66v-42h-4q-12 25 -46 41.5t-70 16.5q-113 0 -113 -112z" />
    <glyph glyph-name="currency" unicode="&#xa4;" horiz-adv-x="550" 
d="M477 134l-59 -44l-71 96q-36 -22 -79 -22q-31 0 -60 12l-64 -86l-60 43l65 80q-35 41 -35 116q0 69 40 111l-70 86l59 42l66 -89q31 16 73 16q40 0 71 -16l67 90l57 -43l-69 -87q30 -38 30 -105q0 -63 -36 -107zM365 334q0 101 -92 101q-37 0 -62 -28.5t-25 -75.5
q0 -107 91 -107q37 0 62.5 29.5t25.5 80.5z" />
    <glyph glyph-name="yen" unicode="&#xa5;" horiz-adv-x="503" 
d="M295 313h149v-26q0 -16 -10 -26.5t-30 -10.5h-113v-82h153v-24q0 -14 -10.5 -25.5t-29.5 -11.5h-113v-107h-38q-16 0 -28 12.5t-12 34.5v60h-151v29q0 32 42 32h109v82h-151v28q0 14 10 24.5t32 10.5h105q-133 170 -181 291h35q47 0 60 -29q43 -93 135 -212
q109 138 147 241h36q27 0 27 -24q0 -27 -56.5 -112.5t-116.5 -154.5z" />
    <glyph glyph-name="brokenbar" unicode="&#xa6;" horiz-adv-x="251" 
d="M150 286h-19q-14 0 -25.5 11t-11.5 29v313h18q15 0 26.5 -9.5t11.5 -25.5v-318zM150 -151h-19q-14 0 -25.5 11t-11.5 29v313h18q15 0 26.5 -9.5t11.5 -25.5v-318z" />
    <glyph glyph-name="section" unicode="&#xa7;" horiz-adv-x="526" 
d="M351 149q62 -43 62 -102q0 -156 -183 -156q-55 0 -93 28t-38 63v33h4q55 -48 132 -48q96 0 96 69q0 32 -27.5 49.5t-124.5 51.5q-100 34 -100 126q0 74 89 109q-69 36 -69 108q0 63 45.5 102.5t131.5 39.5q51 0 84.5 -27.5t33.5 -61.5v-22h-4q-42 37 -121 37
q-42 0 -66 -17t-24 -41q0 -32 20.5 -48.5t89.5 -41.5q68 -25 104 -58t36 -84q0 -75 -78 -109zM286 316q-16 6 -92 40q-46 -34 -46 -70q0 -21 7 -35.5t25 -26t34 -18t50.5 -19.5t56.5 -22q35 29 35 75q0 51 -70 76z" />
    <glyph glyph-name="dieresis" unicode="&#xa8;" horiz-adv-x="461" 
d="M257 604q0 22 15.5 37.5t37.5 15.5t38 -15.5t16 -37.5t-16 -38t-38 -16t-37.5 16t-15.5 38zM72 604q0 22 16 37.5t38 15.5t37.5 -15.5t15.5 -37.5t-15.5 -38t-37.5 -16t-38 16t-16 38z" />
    <glyph glyph-name="copyright" unicode="&#xa9;" horiz-adv-x="729" 
d="M665 304q0 -127 -89.5 -216.5t-216.5 -89.5q-126 0 -215.5 89.5t-89.5 216.5q0 126 89.5 215.5t215.5 89.5q127 0 216.5 -89.5t89.5 -215.5zM606 304q0 102 -72.5 174.5t-174.5 72.5q-101 0 -173.5 -72.5t-72.5 -174.5t72.5 -174.5t173.5 -72.5q102 0 174.5 72.5
t72.5 174.5zM472 223h6v-24q0 -32 -32.5 -51t-69.5 -19q-68 0 -115 50t-47 124q0 82 46 132.5t122 50.5q43 0 70 -24t27 -58v-27h-6q-7 20 -31.5 35.5t-57.5 15.5q-51 0 -76 -32t-25 -83q0 -60 28 -92.5t73 -32.5q60 0 88 35z" />
    <glyph glyph-name="ordfeminine" unicode="&#xaa;" horiz-adv-x="378" 
d="M63 523v20q0 28 29 51t82 23q64 0 93.5 -32.5t29.5 -106.5v-73q0 -49 -30.5 -80t-78.5 -31h-23q-51 0 -83 28t-32 70q0 96 143 96h40v16q0 27 -16 39.5t-55 12.5q-65 0 -96 -33h-3zM231 438h-38q-41 0 -57 -10.5t-16 -33.5q0 -41 52 -41q59 0 59 51v34z" />
    <glyph glyph-name="guillemotleft" unicode="&#xab;" horiz-adv-x="406" 
d="M363 65q-65 0 -89 40l-78 129l78 129q23 38 89 38h13l-96 -167l96 -169h-13zM196 65q-63 0 -89 40l-86 129l86 129q25 38 89 38h13l-105 -167l105 -169h-13z" />
    <glyph glyph-name="logicalnot" unicode="&#xac;" horiz-adv-x="527" 
d="M489 356v-260h-73v187h-379v73h452z" />
    <glyph glyph-name="registered" unicode="&#xae;" horiz-adv-x="729" 
d="M665 304q0 -127 -89.5 -216.5t-216.5 -89.5q-126 0 -215.5 89.5t-89.5 216.5q0 126 89.5 215.5t215.5 89.5q127 0 216.5 -89.5t89.5 -215.5zM606 304q0 102 -72.5 174.5t-174.5 72.5q-101 0 -173.5 -72.5t-72.5 -174.5t72.5 -174.5t173.5 -72.5q102 0 174.5 72.5
t72.5 174.5zM464 135q-24 0 -39 13.5t-22.5 33.5t-16 40.5t-28 35.5t-51.5 17v-140h-25q-43 0 -43 46v290q41 13 86 13h38q50 0 80 -27.5t30 -75.5q0 -67 -70 -84q23 -13 50 -63q5 -10 12.5 -31.5t12.5 -31.5q1 -2 4.5 -7l5.5 -8l7 -9q-13 -12 -31 -12zM355 430h-20
q-1 0 -4.5 -0.5l-10 -1.5l-13.5 -2v-97q12 -2 30 -2q68 0 68 49q0 54 -50 54z" />
    <glyph glyph-name="macron" unicode="&#xaf;" horiz-adv-x="305" 
d="M202 558h-147v28q0 19 14.5 32.5t40.5 13.5h140v-32q0 -19 -13 -30.5t-35 -11.5z" />
    <glyph glyph-name="macron" unicode="&#x2c9;" horiz-adv-x="305" 
d="M202 558h-147v28q0 19 14.5 32.5t40.5 13.5h140v-32q0 -19 -13 -30.5t-35 -11.5z" />
    <glyph glyph-name="degree" unicode="&#xb0;" horiz-adv-x="383" 
d="M193 351q-58 0 -92.5 36.5t-34.5 92.5q0 58 33.5 95.5t93.5 37.5q59 0 92 -36.5t33 -95.5q0 -56 -34 -93t-91 -37zM193 564q-34 0 -53 -26t-19 -58q0 -30 19.5 -55t51.5 -25q34 0 53.5 24t19.5 57t-19 58t-53 25z" />
    <glyph glyph-name="plusminus" unicode="&#xb1;" horiz-adv-x="515" 
d="M429 342h-131v-179h-23q-16 0 -27.5 11t-11.5 36v132h-187v32q0 13 10.5 23.5t27.5 10.5h149v170h30q12 0 22 -11.5t10 -30.5v-128h184v-24q0 -16 -13.5 -29t-39.5 -13zM426 -1h-366v29q0 18 12.5 28t33.5 10h359v-31q0 -14 -12 -25t-27 -11z" />
    <glyph glyph-name="twosuperior" unicode="&#xb2;" horiz-adv-x="338" 
d="M286 266q0 -36 -51 -36h-175q-16 0 -26.5 10t-10.5 25q0 44 71 103l88 73q25 21 25 51q0 26 -17 40.5t-48 14.5q-76 0 -111 -49h-3v28q0 37 31.5 62.5t96.5 25.5q54 0 90 -33t36 -79q0 -41 -16.5 -65.5t-62.5 -60.5l-59 -47q-25 -19 -35 -35h177v-28z" />
    <glyph glyph-name="threesuperior" unicode="&#xb3;" horiz-adv-x="378" 
d="M320 332q0 -57 -39 -89.5t-113 -32.5q-49 0 -80.5 20t-31.5 59v30h2q39 -42 113 -42q72 0 72 52q0 28 -18 40t-55 13q-47 1 -47 30v25q4 1 42 3q76 3 76 50q0 56 -76 56q-74 0 -104 -42h-3v34q0 27 32.5 51t87.5 24q64 0 102 -30t38 -79q0 -74 -70 -90q27 -5 49.5 -30
t22.5 -52z" />
    <glyph glyph-name="acute" unicode="&#xb4;" horiz-adv-x="465" 
d="M138 558v5q25 55 69 88.5t72 33.5q17 0 26.5 -10t9.5 -26q0 -30 -39.5 -52.5t-75 -30.5t-48.5 -8h-14z" />
    <glyph glyph-name="mu" unicode="&#xb5;" horiz-adv-x="520" 
d="M296 0q-102 0 -135 80v-211h-29q-53 0 -53 59v556h44q15 0 26.5 -14.5t11.5 -30.5v-220q0 -73 34.5 -112.5t87.5 -39.5q49 0 79.5 37.5t30.5 105.5v274h37q19 0 31.5 -13t12.5 -32v-219q0 -106 -50.5 -163t-127.5 -57z" />
    <glyph glyph-name="mu" unicode="&#x3bc;" horiz-adv-x="520" 
d="M296 0q-102 0 -135 80v-211h-29q-53 0 -53 59v556h44q15 0 26.5 -14.5t11.5 -30.5v-220q0 -73 34.5 -112.5t87.5 -39.5q49 0 79.5 37.5t30.5 105.5v274h37q19 0 31.5 -13t12.5 -32v-219q0 -106 -50.5 -163t-127.5 -57z" />
    <glyph glyph-name="paragraph" unicode="&#xb6;" horiz-adv-x="485" 
d="M384 -9q-24 0 -34 9.5t-10 35.5v487q0 23 -10.5 31t-32.5 8h-36v-571h-20q-43 0 -43 45v226h-16q-58 0 -100.5 52t-42.5 118q0 89 60 139.5t172 50.5q63 0 97.5 -23t34.5 -65v-543h-19z" />
    <glyph glyph-name="periodcentered" unicode="&#xb7;" horiz-adv-x="236" 
d="M60 255q0 24 17 40.5t41 16.5t40.5 -16.5t16.5 -40.5t-16.5 -41t-40.5 -17t-41 17t-17 41z" />
    <glyph glyph-name="periodcentered" unicode="&#x2219;" horiz-adv-x="236" 
d="M60 255q0 24 17 40.5t41 16.5t40.5 -16.5t16.5 -40.5t-16.5 -41t-40.5 -17t-41 17t-17 41z" />
    <glyph glyph-name="cedilla" unicode="&#xb8;" horiz-adv-x="556" 
d="M338 -113q0 14 -10.5 19.5t-36.5 5.5q-25 0 -45 -3l24 91h43l-4 -44q94 0 94 -66q0 -79 -109 -79q-90 0 -90 51v21l1 -1h1l3 1q23 -22 79 -22q28 0 39 5.5t11 20.5z" />
    <glyph glyph-name="onesuperior" unicode="&#xb9;" horiz-adv-x="308" 
d="M229 226h-31q-20 0 -33 13t-13 37v257l-38 -14q-16 -6 -29 -6q-32 0 -37 29l-4 19l70 31q48 21 73 21q18 0 30 -13t12 -28v-346z" />
    <glyph glyph-name="ordmasculine" unicode="&#xba;" horiz-adv-x="374" 
d="M183 294q-61 0 -97.5 45.5t-36.5 109.5q0 73 37 120t104 47q62 0 99 -45.5t37 -110.5q0 -73 -37.5 -119.5t-105.5 -46.5zM183 552q-32 0 -48.5 -25t-16.5 -67q0 -102 72 -102q32 0 49 25t17 66q0 103 -73 103z" />
    <glyph glyph-name="guillemotright" unicode="&#xbb;" horiz-adv-x="406" 
d="M44 65h-13l96 169l-96 167h13q66 0 89 -38l78 -129l-78 -129q-24 -40 -89 -40zM211 65h-13l105 169l-105 167h13q64 0 89 -38l86 -129l-86 -129q-27 -40 -89 -40z" />
    <glyph glyph-name="onequarter" unicode="&#xbc;" horiz-adv-x="808" 
d="M229 226h-31q-20 0 -33 13t-13 37v257l-38 -14q-16 -6 -29 -6q-32 0 -37 29l-4 19l70 31q48 21 73 21q18 0 30 -13t12 -28v-346zM271 0h-18q-9 0 -18.5 9t-9.5 24q0 18 9 36l250 536h17q13 0 22 -9.5t9 -20.5q0 -14 -4 -21zM771 125q0 -33 -32 -33h-32v-92h-27
q-45 0 -45 50v42h-132q-19 0 -30.5 10.5t-11.5 24.5q0 27 9 43q27 48 78 119t87 100h26q21 0 33.5 -14t12.5 -40v-179h64v-31zM635 156v154q-64 -83 -103 -154h103z" />
    <glyph glyph-name="onehalf" unicode="&#xbd;" horiz-adv-x="812" 
d="M744 37q0 -18 -14 -27.5t-37 -9.5h-175q-16 0 -27 11t-11 26q0 44 71 102l89 72q26 22 26 51q0 26 -17.5 41t-48.5 15q-75 0 -111 -49h-3v27q0 37 31 62.5t97 25.5q53 0 89.5 -33t36.5 -79q0 -40 -16.5 -65t-62.5 -61l-58 -46q-32 -27 -36 -35h177v-28zM229 226h-31
q-20 0 -33 13t-13 37v257l-38 -14q-16 -6 -29 -6q-32 0 -37 29l-4 19l70 31q48 21 73 21q18 0 30 -13t12 -28v-346zM271 0h-18q-9 0 -18.5 9t-9.5 24q0 18 9 36l250 536h17q13 0 22 -9.5t9 -20.5q0 -14 -4 -21z" />
    <glyph glyph-name="threequarters" unicode="&#xbe;" horiz-adv-x="808" 
d="M772 125q0 -33 -32 -33h-32v-92h-27q-45 0 -45 50v42h-132q-19 0 -30.5 10.5t-11.5 24.5q0 27 9 43q27 48 78 119t87 100h26q21 0 33.5 -14t12.5 -40v-179h64v-31zM308 0h-19q-9 0 -18 9t-9 24q0 18 9 36l249 536h18q12 0 21.5 -9.5t9.5 -20.5q0 -12 -4 -21zM636 156v154
q-64 -83 -103 -154h103zM320 332q0 -57 -39 -89.5t-113 -32.5q-49 0 -80.5 20t-31.5 59v30h2q39 -42 113 -42q72 0 72 52q0 28 -18 40t-55 13q-47 1 -47 30v25q4 1 42 3q76 3 76 50q0 56 -76 56q-74 0 -104 -42h-3v34q0 27 32.5 51t87.5 24q64 0 102 -30t38 -79
q0 -74 -70 -90q27 -5 49.5 -30t22.5 -52z" />
    <glyph glyph-name="questiondown" unicode="&#xbf;" horiz-adv-x="429" 
d="M302 411q0 -26 -18.5 -44t-44.5 -18q-27 0 -45.5 18t-18.5 44q0 27 18.5 45t45.5 18q26 0 44.5 -18t18.5 -45zM130 -4q0 -39 29.5 -60t79.5 -21q31 0 55 6.5t41.5 20t25.5 22t21 26.5h5v-27q0 -48 -41 -85t-122 -37q-83 0 -129 41.5t-46 103.5q0 72 64 128l77 68
q25 21 25 70v26h30q12 0 24.5 -14.5t12.5 -33.5q0 -54 -42 -91l-65 -58q-27 -24 -36 -40.5t-9 -44.5z" />
    <glyph glyph-name="AE" unicode="&#xc6;" horiz-adv-x="773" 
d="M627 -8h-57q-93 0 -139.5 41.5t-56.5 131.5h-240q-15 -39 -54 -165h-34q-31 0 -31 28q0 11 1 18q11 77 103 278.5t166 279.5h458v-28q0 -21 -17.5 -34t-49.5 -13h-277q24 -122 32 -183h248v-29q0 -22 -13 -32.5t-45 -10.5h-183l10 -80q9 -72 36.5 -99.5t92.5 -27.5h50
q65 0 116 18v-24q0 -36 -25 -52.5t-91 -16.5zM315 535q-85 -127 -151 -305h199q-4 51 -19.5 153t-28.5 152z" />
    <glyph glyph-name="Eth" unicode="&#xd0;" horiz-adv-x="603" 
d="M548 308q0 -139 -76 -225.5t-195 -86.5h-54q-75 0 -114.5 34.5t-39.5 93.5v153h-74v31q0 29 41 29h33v254q70 17 135 17h75q113 0 191 -83.5t78 -216.5zM466 296q0 119 -54 179t-152 60h-35q-40 0 -75 -8v-190h131v-28q0 -14 -11.5 -23t-31.5 -9h-88v-130q0 -79 86 -79
h32q93 0 145.5 62.5t52.5 165.5z" />
    <glyph glyph-name="multiply" unicode="&#xd7;" horiz-adv-x="516" 
d="M460 75q-12 -12 -26 -12q-17 0 -35 18l-134 134l-158 -158l-25 26q-12 11 -12 25q0 16 19 35l124 125l-157 157l24 25q14 12 27 12q17 0 32 -15l126 -126l151 151l24 -25q12 -12 12 -28q0 -18 -14 -32l-120 -119l168 -168z" />
    <glyph glyph-name="Thorn" unicode="&#xde;" horiz-adv-x="528" 
d="M163 424q0 -37 -0.5 -103t-0.5 -101q42 -23 121 -23q61 0 93 31t32 85q0 119 -125 119h-47q-37 0 -73 -8zM80 604h39q17 0 30.5 -12t13.5 -29v-62q42 7 71 7h47q92 0 150 -49.5t58 -136.5q0 -84 -59.5 -140.5t-146.5 -56.5q-82 0 -121 26v-151h-30q-52 0 -52 53v551z" />
    <glyph glyph-name="germandbls" unicode="&#xdf;" horiz-adv-x="527" 
d="M327 -9q-47 0 -71.5 19t-24.5 43v32h4q11 -8 39 -14.5t47 -6.5q42 0 61 16t19 50q0 44 -38 68l-61 38q-44 27 -44 82q0 25 12 48t30 37l52 40q25 20 25 51q0 34 -24.5 54.5t-71.5 20.5q-129 0 -129 -159v-410h-27q-27 0 -41 17t-14 45v355q0 103 60 162.5t155 59.5
q74 0 123.5 -40t49.5 -97q0 -58 -50 -96l-45 -33q-35 -27 -35 -47q0 -26 26 -42l58 -36q70 -43 70 -117q0 -64 -42 -102t-113 -38z" />
    <glyph glyph-name="ae" unicode="&#xe6;" horiz-adv-x="757" 
d="M702 305q0 -61 -38 -84t-149 -23h-108q0 -60 39.5 -96.5t100.5 -36.5q92 0 134 46h4v-26q0 -44 -38 -69t-111 -25q-51 0 -98 25t-66 62q-48 -86 -149 -86q-72 0 -120 36.5t-48 95.5q0 151 212 151h61v22q0 49 -26 70t-82 21q-97 0 -141 -60h-6v32q0 41 43.5 71.5
t111.5 30.5q104 0 152 -82q24 39 64.5 61t86.5 22q67 0 119 -47t52 -111zM624 301q0 44 -27 68t-73 24q-54 0 -85.5 -38.5t-31.5 -93.5l87 1q59 1 86 4.5t35.5 11t8.5 23.5zM329 159v51h-62q-128 0 -128 -76q0 -31 24.5 -50.5t62.5 -19.5q50 0 76.5 25t26.5 70z" />
    <glyph glyph-name="eth" unicode="&#xf0;" horiz-adv-x="529" 
d="M472 236q0 -107 -56.5 -176.5t-155.5 -69.5q-93 0 -148 67.5t-55 163.5q0 107 53 173t150 66q39 0 74.5 -13.5t50.5 -39.5q-24 110 -109 157l-89 -70q-17 14 -17 27q0 15 15 27l49 40q-9 4 -30 8.5t-33 10.5t-12 18v29l25 -1q30 -2 105 -26l69 56l13 -13q4 -5 4 -11
q0 -8 -2 -14t-7.5 -12.5t-9 -9l-14 -10t-13.5 -10.5q143 -100 143 -366v-1zM392 219q0 171 -135 171q-59 0 -90.5 -41t-31.5 -111q0 -174 135 -174q60 0 91 42.5t31 112.5z" />
    <glyph glyph-name="divide" unicode="&#xf7;" horiz-adv-x="487" 
d="M415 263h-366v29q0 18 12.5 28t33.5 10h359v-31q0 -14 -12 -25t-27 -11zM314 464q0 -28 -18 -45.5t-45 -17.5t-46 18t-19 45t19 45.5t46 18.5t45 -18t18 -46zM314 124q0 -28 -18 -45.5t-45 -17.5t-46 18t-19 45t19 45.5t46 18.5t45 -18t18 -46z" />
    <glyph glyph-name="logo.001" unicode="&#xfb;" horiz-adv-x="1492" 
d="M1408 188q-43 0 -43 -23q0 -7 9.5 -11.5t37.5 -10.5q33 -7 51.5 -24t18.5 -42q0 -36 -25.5 -56t-67.5 -20q-32 0 -52 14t-20 37l2 33q32 -36 71 -36t39 25q0 10 -10 15t-41 12q-33 7 -49 21.5t-16 40.5q0 31 25 53t67 22q29 0 50.5 -12.5t21.5 -35.5v-23q-46 21 -69 21z
M1223 194q20 22 20 38q0 7 -11 19t-11 24q0 15 9.5 24.5t26.5 9.5q16 0 26.5 -13.5t10.5 -38.5q0 -29 -15 -47t-40 -18q-4 0 -16 2zM1130 39v254h24q10 0 19 -7.5t9 -18.5v-263h-21q-31 0 -31 35zM968 4h-24q-77 0 -77 65v217q29 8 68 8h34q54 0 91.5 -39.5t37.5 -103.5
q0 -66 -36 -106.5t-94 -40.5zM961 247h-16q-13 0 -26 -3v-165q0 -28 31 -28h16q38 0 59 25.5t21 68.5q0 102 -85 102zM779 42q0 80 -12 174q-1 -4 -4.5 -15t-3.5 -13l-3 -9q-15 -47 -43 -121q-10 -26 -25 -54h-11q-25 0 -53 78l-45 135q-10 -66 -13 -213h-19
q-14 0 -23.5 10.5t-9.5 27.5q0 107 26 251h21q22 0 38.5 -16.5t23 -32t13.5 -39.5l13 -43q9 -21 15 -42v1q4 -18 10 -29q0 1 3 12.5t7 16.5h-1q40 121 75 172h14q38 0 46 -57q13 -145 14 -232h-22q-31 0 -31 38zM483 4q-14 0 -22 7.5t-10.5 15.5t-5.5 25t-5 25h-115
q-6 -20 -17 -73h-20q-24 0 -24 26q0 32 35 129t65 134h16q30 0 69.5 -88.5t57.5 -200.5h-24zM427 121q-18 60 -45 116q-27 -49 -45 -116h90zM198 39v92h-122v-127h-22q-12 0 -21 9.5t-9 25.5v254h26q10 0 18 -7.5t8 -18.5v-88h122v114h25q11 0 19 -7.5t8 -18.5v-263h-20
q-12 0 -22 9.5t-10 25.5zM212 346h-29q-85 0 -85 72v207q56 14 80 14h33q44 0 70.5 -22t26.5 -59q0 -43 -30 -59q35 -24 35 -59q0 -45 -29 -69.5t-72 -24.5zM202 527q36 0 36 26q0 24 -34 24h-21q-11 -1 -16 -1v-49h35zM204 469h-37v-47q0 -10 16 -10h24q36 0 36 25
q0 18 -9 25t-30 7zM0 391v246h33q14 0 25.5 -10.5t11.5 -27.5v-251h-29q-15 0 -28 11.5t-13 31.5zM1420 391q0 74 -7 133q0 -1 -1 -4v-2q-4 -9 -11.5 -34.5t-13.5 -38.5l-13 -45q-6 -21 -28 -52h-18q-34 0 -52 47l-40 122q-2 1 -3 5q-8 -82 -8 -174h-26q-43 0 -43 43
q0 98 23 246h19q62 0 83 -50l37 -109l4 -11.5t5 -11.5q0 2 2 6.5t2 6.5q49 150 73 169h12q25 0 41.5 -17t20.5 -46q14 -126 14 -226h-29q-43 0 -43 43zM1065 391v246h31q14 0 25.5 -10.5t11.5 -27.5v-251h-27q-16 0 -28.5 11.5t-12.5 31.5zM966 392v74h-95v-118h-28
q-19 0 -30 11.5t-11 32.5v245h35q15 0 24 -10.5t9 -26.5v-74h96v111h34q14 0 25.5 -10.5t11.5 -26.5v-252h-30q-17 0 -29 11.5t-12 32.5zM722 380q-1 19 -6 37h-97q-14 -45 -14 -69h-27q-33 0 -33 33q0 35 33.5 128.5t64.5 127.5h25q34 0 51 -30q21 -39 46 -117.5t32 -141.5
h-30q-41 0 -45 32zM700 475q-10 34 -32 88q-19 -38 -34 -88h66zM514 444l24 -52l-1 1l8 -15.5t6.5 -11.5t2.5 -7q-11 -14 -35 -14q-21 0 -36.5 17t-22 37.5t-17 37.5t-23.5 17l-20 3v-109h-24q-45 0 -45 44v235q8 5 34 9t44 4h31q44 0 71 -24.5t27 -63.5q0 -24 -13 -45
t-32 -31q11 -9 21 -32zM466 543q0 34 -33 34h-16q-12 -1 -17 -1v-61q10 -1 32 -1q14 0 24 8t10 21z" />
    <glyph glyph-name="thorn" unicode="&#xfe;" horiz-adv-x="557" 
d="M152 279v-67q8 -72 46 -108.5t99 -36.5q58 0 90.5 41t32.5 118q0 93 -37.5 137.5t-102.5 44.5q-55 0 -88 -34.5t-40 -94.5zM70 138v87v414h25q26 0 41.5 -16t15.5 -46v-147q20 25 59.5 39.5t85.5 14.5q82 0 143.5 -66.5t61.5 -168.5q0 -119 -60.5 -188.5t-152.5 -69.5
q-91 0 -137 72v-214h-29q-53 0 -53 61v228z" />
    <glyph glyph-name="OE" unicode="&#x152;" horiz-adv-x="963" 
d="M882 61q0 -34 -22 -49.5t-89 -15.5h-59q-161 0 -195 125q-47 -130 -205 -130q-108 0 -182 82.5t-74 221.5q0 143 67 230.5t196 87.5q60 0 113.5 -30t75.5 -80q4 48 23 73t50 25h302v-30q0 -17 -12 -30t-36 -13h-247q-13 -66 -13 -182h239v-24q0 -18 -13 -30.5t-38 -12.5
h-188v-51q0 -89 36.5 -125t124.5 -36h35q56 0 111 17v-23zM495 309q0 66 -15.5 114.5t-57.5 81.5t-109 33q-82 0 -130 -58t-48 -170q0 -119 47.5 -181.5t139.5 -62.5q50 0 85.5 21.5t53.5 58.5t26 76.5t8 86.5z" />
    <glyph glyph-name="oe" unicode="&#x153;" horiz-adv-x="831" 
d="M776 302q0 -61 -40 -85.5t-153 -24.5h-113q6 -59 44.5 -94.5t100.5 -35.5q94 0 138 48h5v-25q0 -44 -39.5 -69t-114.5 -25q-59 0 -105 27.5t-70 69.5q-50 -97 -163 -97q-91 0 -151 63.5t-60 164.5q0 113 57 178t154 65q115 0 170 -99q23 43 68 71.5t98 28.5
q69 0 121.5 -46t52.5 -115zM702 298q0 48 -29.5 71.5t-77.5 23.5q-51 0 -87 -38t-38 -83v-17l102 2q81 1 105.5 9.5t24.5 31.5zM391 218q0 173 -137 173q-55 0 -88.5 -42.5t-33.5 -113.5q0 -79 37.5 -125.5t103.5 -46.5q56 0 87 43t31 112z" />
    <glyph glyph-name="florin" unicode="&#x192;" horiz-adv-x="528" 
d="M410 547q-80 0 -90 -78l-15 -108h125v-24q0 -13 -14.5 -25t-45.5 -12h-71l-25 -213q-12 -104 -46 -145t-97 -41q-34 0 -52.5 13t-18.5 31v37h5q27 -12 52 -12q39 0 57 21.5t25 83.5l25 225h-106v23q0 15 13 26.5t31 11.5h70l13 102q19 153 157 153q27 0 44 -14.5
t17 -34.5v-37h-4q-22 17 -49 17z" />
    <glyph glyph-name="circumflex" unicode="&#x2c6;" horiz-adv-x="573" 
d="M421 536l-136 70l-133 -70v36q0 33 28 50l106 62l104 -61q31 -18 31 -51v-36z" />
    <glyph glyph-name="tilde" unicode="&#x2dc;" horiz-adv-x="380" 
d="M242 553q-25 0 -60 30.5t-46 30.5q-36 0 -36 -62h-25q-9 0 -18 10t-9 27q0 43 26.5 65.5t59.5 22.5q25 0 61 -31t47 -31q37 0 37 63h25q10 0 19 -10.5t9 -27.5q0 -40 -25.5 -63.5t-64.5 -23.5z" />
    <glyph glyph-name="comma.arabic" unicode="&#x60c;" horiz-adv-x="206" 
d="M60 82q0 49 30.5 87t71.5 38h14q-14 -14 -23 -37.5t-9 -40.5q0 -20 16 -40t16 -38q0 -22 -16 -37t-39 -15q-28 0 -44.5 21.5t-16.5 61.5z" />
    <glyph glyph-name="uni0615" unicode="&#x615;" 
d="M-137 20v11h24v179h10q22 0 22 -24v-96q28 67 80 67q51 0 76 -33.5t25 -81.5q0 -42 -15 -42h-200q-22 0 -22 20zM0 123q-28 0 -49 -27t-30 -65h146q-6 92 -67 92z" />
    <glyph glyph-name="semicolon.arabic" unicode="&#x61b;" horiz-adv-x="210" 
d="M122 114q-24 0 -40.5 -17t-16.5 -41t16.5 -41t40.5 -17t41 17t17 41t-17 41t-41 17zM60 302q0 49 30.5 87t71.5 38h14q-14 -14 -23 -37.5t-9 -40.5q0 -20 16 -40t16 -38q0 -22 -16 -37t-39 -15q-28 0 -44.5 21.5t-16.5 61.5z" />
    <glyph glyph-name="questionmark.arabic" unicode="&#x61f;" horiz-adv-x="429" 
d="M125 465q0 -27 9 -44t36 -41l65 -58q42 -37 42 -91q0 -20 -12.5 -34t-25.5 -14h-30v26q0 48 -25 70l-76 68q-65 57 -65 128q0 62 46.5 103.5t129.5 41.5q81 0 121.5 -37t40.5 -85v-27h-5q-18 24 -28.5 35.5t-41.5 25.5t-72 14q-50 0 -79.5 -21t-29.5 -60zM171 62
q0 28 18 45.5t45 17.5t45.5 -18t18.5 -45t-18.5 -44.5t-45.5 -17.5t-45 17.5t-18 44.5z" />
    <glyph glyph-name="kashida" unicode="&#x640;" horiz-adv-x="115" 
d="M0 0v84h130v-84h-130z" />
    <glyph glyph-name="madda" unicode="&#x653;" 
d="M79 59v-19q0 -14 -9 -27t-24 -13h-118v31q0 10 7 19t18 9h126z" />
    <glyph glyph-name="hamza_above" unicode="&#x654;" 
d="M59 0h-121q-9 0 -14.5 6t-5.5 13v16h36l-3 6q-4 8 -4 28q0 32 18 52t48 20q46 0 56 -40q0 -20 -10 -32q-17 42 -49 42q-27 0 -27 -39q0 -28 12 -37h85v-16q0 -7 -6 -13t-15 -6z" />
    <glyph glyph-name="hamza_below" unicode="&#x655;" 
d="M60 -140h-121q-9 0 -14.5 6t-5.5 13v16h36l-3 6q-4 8 -4 28q0 32 18 52t48 20q46 0 56 -40q0 -19 -10 -32q-17 42 -49 42q-27 0 -27 -39q0 -28 12 -37h85v-16q0 -7 -6 -13t-15 -6z" />
    <glyph glyph-name="alef_subscript" unicode="&#x656;" 
d="M-28 -193v181h57v-167q-18 -9 -57 -14z" />
    <glyph glyph-name="uni0658" unicode="&#x658;" horiz-adv-x="400" 
d="M249 902h40q0 -39 -22.5 -65t-65.5 -26q-42 0 -63 26t-21 65h37q2 -21 14 -35t34 -14t34.5 13t12.5 36z" />
    <glyph glyph-name="zero.indic" unicode="&#x660;" horiz-adv-x="253" 
d="M126 233q-28 0 -47 19.5t-19 46.5t19 46.5t47 19.5t47.5 -19.5t19.5 -46.5t-19.5 -46.5t-47.5 -19.5z" />
    <glyph glyph-name="one.indic" unicode="&#x661;" horiz-adv-x="163" 
d="M123 0h-29q-22 0 -38 14.5t-16 45.5v543q57 -3 83 -29v-574z" />
    <glyph glyph-name="two.indic" unicode="&#x662;" horiz-adv-x="483" 
d="M376 519h-183q-67 -6 -67 -79v-440h-27q-33 0 -46 15t-13 52v377q0 69 34.5 111.5t98.5 47.5h270v-25q0 -33 -15 -46t-52 -13z" />
    <glyph glyph-name="three.indic" unicode="&#x663;" horiz-adv-x="609" 
d="M510 603q33 0 46 -15t13 -52v-72q0 -93 -41.5 -143t-109.5 -50q-67 0 -115 38q-40 -38 -95 -38h-82v-271h-27q-33 0 -46 15t-13 52v536h27q33 0 46 -15t13 -52v-181h70q63 0 66 75v173h27q33 0 46 -15t13 -52q0 -115 1 -117q-2 -23 -6 -41q42 -24 73 -24q63 0 67 76v173
h27z" />
    <glyph glyph-name="four.indic" unicode="&#x664;" horiz-adv-x="467" 
d="M204 518q-36 -2 -57 -17t-21 -43q0 -25 7 -61t18 -57h250v-25q0 -33 -15 -46t-51 -13h-187q-22 -41 -22 -77q0 -92 78 -95h223v-26q0 -33 -15 -45.5t-52 -12.5h-122q-103 0 -146 47.5t-43 119.5q0 76 30 132q-39 59 -39 140q0 70 45.5 117t152.5 47h189v-26
q0 -33 -15 -46t-52 -13h-156z" />
    <glyph glyph-name="five.indic" unicode="&#x665;" horiz-adv-x="598" 
d="M40 283q0 46 27 94.5t59.5 83t78 70t64.5 47.5l37 23q252 -164 252 -299q0 -133 -67.5 -217.5t-198.5 -84.5q-121 0 -186.5 82t-65.5 201zM302 493q-2 0 -17.5 -8t-39 -25t-45.5 -38.5t-38 -52.5t-16 -64q0 -221 161 -221q73 0 109 53.5t36 143.5q0 39 -15.5 75.5
t-37.5 60t-44 41.5t-37 26z" />
    <glyph glyph-name="six.indic" unicode="&#x666;" horiz-adv-x="483" 
d="M290 519h-183q-37 0 -52 13t-15 46v25l270 -1q64 -5 98.5 -47t34.5 -111v-377q0 -37 -13 -52t-46 -15h-27v440q0 73 -67 79z" />
    <glyph glyph-name="seven.indic" unicode="&#x667;" horiz-adv-x="494" 
d="M79 602q8 2 12 2q14 0 25.5 -8t15.5 -21l115 -431l115 431q4 13 15.5 21t25.5 8q4 0 12 -2l39 -11l-147 -543q-6 -23 -24 -36t-37 -13t-36 12.5t-23 36.5l-147 543z" />
    <glyph glyph-name="eight.indic" unicode="&#x668;" horiz-adv-x="494" 
d="M79 1l-39 11l147 543q6 23 23 35.5t36 12.5q20 0 37.5 -12.5t23.5 -35.5l147 -543l-39 -11q-8 -2 -12 -2q-33 0 -41 29l-115 431l-115 -431q-8 -29 -41 -29q-4 0 -12 2z" />
    <glyph glyph-name="nine.indic" unicode="&#x669;" horiz-adv-x="453" 
d="M412 0h-29q-22 0 -38 14.5t-16 45.5v128q-289 9 -289 206q0 102 51.5 160.5t138.5 58.5q45 0 78.5 -14t52 -39t31 -58.5t16 -71.5t5 -79.5t-0.5 -81.5v-48v-221zM120 408q0 -36 11.5 -61.5t29 -40t47.5 -22.5t58 -10t70 -2v25v49.5t-1.5 44t-4.5 41.5t-8 34t-13.5 30
t-20.5 21t-29 15t-38 4q-46 0 -73.5 -35t-27.5 -93z" />
    <glyph glyph-name="percentsign.arabic" unicode="&#x66a;" horiz-adv-x="489" 
d="M127 0h-25q-29 0 -29 24q0 15 10 38l246 542h24q10 0 18.5 -10.5t8.5 -26.5q0 -10 -5 -23zM172 540q0 -27 -18 -44.5t-45 -17.5t-45.5 17.5t-18.5 44.5t18.5 45t45.5 18t45 -17.5t18 -45.5zM439 59q0 -27 -18 -44.5t-45 -17.5t-45.5 17.5t-18.5 44.5t18.5 45t45.5 18
t45 -17.5t18 -45.5z" />
    <glyph glyph-name="decimal.arabic" unicode="&#x66b;" horiz-adv-x="300" 
d="M174 32q0 -49 -30.5 -87.5t-71.5 -38.5h-14q14 14 23 37.5t9 40.5q0 20 -16 40t-16 38q0 22 16 37t39 15q28 0 44.5 -21.5t16.5 -60.5z" />
    <glyph glyph-name="thousands.arabic" unicode="&#x66c;" horiz-adv-x="300" 
d="M172 452q0 -49 -30.5 -87.5t-71.5 -38.5h-14q14 14 23 37.5t9 40.5q0 20 -16 40t-16 38q0 22 16 37t39 15q28 0 44.5 -21.5t16.5 -60.5z" />
    <glyph glyph-name="fivept_star.arabic" unicode="&#x66d;" horiz-adv-x="604" 
d="M209 35l-63 49l105 129l-162 41l26 75l145 -61v167h81l-12 -166l154 61l28 -76l-162 -40l104 -130l-63 -48l-90 143z" />
    <glyph glyph-name="alef_superscript" unicode="&#x670;" 
d="M27 0h-19q-14 0 -25.5 11t-11.5 29v190h18q15 0 26.5 -9.5t11.5 -25.5v-195z" />
    <glyph glyph-name="uni06C3" unicode="&#x6c3;" horiz-adv-x="464" 
d="M241 425q87 0 140 -66t53 -153q0 -94 -53 -150t-149 -56q-88 0 -140 60t-52 146q0 95 53 157t148 62zM234 74q63 0 89.5 36t26.5 110q0 54 -31 91.5t-78 37.5q-60 0 -88 -41t-28 -103q0 -55 28 -93t81 -38zM298 493q-21 0 -35.5 14t-14.5 34t14.5 34t35.5 14
q19 0 33.5 -14t14.5 -34t-14.5 -34t-33.5 -14zM173 493q-20 0 -34.5 14t-14.5 34t14.5 34t34.5 14t34 -14t14 -34t-14 -34t-34 -14z" />
    <glyph glyph-name="arabicae" unicode="&#x6d5;" horiz-adv-x="474" 
d="M241 425q87 0 140 -66t53 -153q0 -94 -53 -150t-149 -56q-88 0 -140 60t-52 146q0 95 53 157t148 62zM234 74q63 0 89.5 36t26.5 110q0 54 -31 91.5t-78 37.5q-60 0 -88 -41t-28 -103q0 -55 28 -93t81 -38z" />
    <glyph glyph-name="zero_ext.indic" unicode="&#x6f0;" horiz-adv-x="253" 
d="M135 232q-28 0 -47 19.5t-19 46.5t19 46.5t47 19.5t47.5 -19.5t19.5 -46.5t-19.5 -46.5t-47.5 -19.5z" />
    <glyph glyph-name="one_ext.indic" unicode="&#x6f1;" horiz-adv-x="163" 
d="M123 0h-29q-22 0 -38 14.5t-16 45.5v543q57 -3 83 -29v-574z" />
    <glyph glyph-name="two_ext.indic" unicode="&#x6f2;" horiz-adv-x="483" 
d="M376 519h-183q-67 -6 -67 -79v-440h-27q-33 0 -46 15t-13 52v377q0 69 34.5 111.5t98.5 47.5h270v-25q0 -33 -15 -46t-52 -13z" />
    <glyph glyph-name="three_ext.indic" unicode="&#x6f3;" horiz-adv-x="609" 
d="M510 603q33 0 46 -15t13 -52v-132q0 -93 -41.5 -143t-109.5 -50q-67 0 -115 38q-40 -38 -95 -38h-82v-211h-27q-33 0 -46 15t-13 52v536h27q33 0 46 -15t13 -52v-241h70q63 0 66 75v233h27q33 0 46 -15t13 -52q0 -175 1 -177q-2 -23 -6 -41q42 -24 73 -24q63 0 67 76v233
h27z" />
    <glyph glyph-name="four_ext.indic" unicode="&#x6f4;" horiz-adv-x="467" 
d="M204 518q-36 -2 -57 -17t-21 -43q0 -25 7 -61t18 -57h250v-25q0 -33 -15 -46t-51 -13h-187q-22 -41 -22 -77q0 -92 78 -95h223v-26q0 -33 -15 -45.5t-52 -12.5h-122q-103 0 -146 47.5t-43 119.5q0 76 30 132q-39 59 -39 140q0 70 45.5 117t152.5 47h189v-26
q0 -33 -15 -46t-52 -13h-156z" />
    <glyph glyph-name="five_ext.indic" unicode="&#x6f5;" horiz-adv-x="598" 
d="M40 283q0 46 27 94.5t59.5 83t78 70t64.5 47.5l37 23q252 -164 252 -299q0 -133 -67.5 -217.5t-198.5 -84.5q-121 0 -186.5 82t-65.5 201zM302 493q-2 0 -17.5 -8t-39 -25t-45.5 -38.5t-38 -52.5t-16 -64q0 -221 161 -221q73 0 109 53.5t36 143.5q0 39 -15.5 75.5
t-37.5 60t-44 41.5t-37 26z" />
    <glyph glyph-name="six_ext.indic" unicode="&#x6f6;" horiz-adv-x="483" 
d="M290 519h-183q-37 0 -52 13t-15 46v25h270q64 -5 98.5 -47.5t34.5 -111.5v-377q0 -37 -13 -52t-46 -15h-27v440q0 73 -67 79z" />
    <glyph glyph-name="seven_ext.indic" unicode="&#x6f7;" horiz-adv-x="494" 
d="M79 602q8 2 12 2q14 0 25.5 -8t15.5 -21l115 -431l115 431q4 13 15.5 21t25.5 8q4 0 12 -2l39 -11l-147 -543q-6 -23 -24 -36t-37 -13t-36 12.5t-23 36.5l-147 543z" />
    <glyph glyph-name="eight_ext.indic" unicode="&#x6f8;" horiz-adv-x="494" 
d="M79 1l-39 11l147 543q6 23 23 35.5t36 12.5q20 0 37.5 -12.5t23.5 -35.5l147 -543l-39 -11q-8 -2 -12 -2q-33 0 -41 29l-115 431l-115 -431q-8 -29 -41 -29q-4 0 -12 2z" />
    <glyph glyph-name="nine_ext.indic" unicode="&#x6f9;" horiz-adv-x="453" 
d="M412 0h-29q-22 0 -38 14.5t-16 45.5v128q-289 9 -289 206q0 102 51.5 160.5t138.5 58.5q45 0 78.5 -14t52 -39t31 -58.5t16 -71.5t5 -79.5t-0.5 -81.5v-48v-221zM120 408q0 -36 11.5 -61.5t29 -40t47.5 -22.5t58 -10t70 -2v25v49.5t-1.5 44t-4.5 41.5t-8 34t-13.5 30
t-20.5 21t-29 15t-38 4q-46 0 -73.5 -35t-27.5 -93z" />
    <glyph glyph-name="endash" unicode="&#x2013;" horiz-adv-x="524" 
d="M405 238h-325v21q0 48 51 48h315v-32q0 -14 -11.5 -25.5t-29.5 -11.5z" />
    <glyph glyph-name="emdash" unicode="&#x2014;" horiz-adv-x="919" 
d="M805 238h-750v21q0 48 51 48h740v-32q0 -14 -11.5 -25.5t-29.5 -11.5z" />
    <glyph glyph-name="quoteleft" unicode="&#x2018;" horiz-adv-x="249" 
d="M180 657v-5q-43 -46 -43 -88q0 -23 24 -49.5t24 -48.5q0 -24 -16 -40t-46 -16q-28 0 -46.5 25t-18.5 75q0 63 33 104t89 43z" />
    <glyph glyph-name="quoteright" unicode="&#x2019;" horiz-adv-x="260" 
d="M79 392v6q44 44 44 88q0 22 -24.5 48.5t-24.5 48.5q0 24 16 40t46 16q28 0 47 -25t19 -74q0 -64 -33.5 -104.5t-89.5 -43.5z" />
    <glyph glyph-name="quotesinglbase" unicode="&#x201a;" horiz-adv-x="240" 
d="M191 30q0 -59 -36.5 -105t-86.5 -46h-24v5q17 16 29 43t12 47q0 22 -19 45t-19 46q0 27 19.5 46t48.5 19q35 0 55.5 -26t20.5 -74z" />
    <glyph glyph-name="quotedblleft" unicode="&#x201c;" horiz-adv-x="391" 
d="M336 657v-5q-43 -46 -43 -88q0 -22 24 -49t24 -49q0 -24 -16 -40t-46 -16q-27 0 -46 25.5t-19 74.5q0 63 33 104t89 43zM160 657v-5q-43 -46 -43 -88q0 -23 24.5 -49.5t24.5 -48.5q0 -24 -16.5 -40t-46.5 -16q-27 0 -46 25.5t-19 74.5q0 63 33 104t89 43z" />
    <glyph glyph-name="quotedblright" unicode="&#x201d;" horiz-adv-x="392" 
d="M55 410v5q43 46 43 88q0 23 -24 49t-24 49q0 24 16 40t46 16q27 0 46 -25.5t19 -74.5q0 -63 -33 -104t-89 -43zM231 410v5q43 46 43 88q0 23 -24.5 49.5t-24.5 48.5q0 24 16.5 40t46.5 16q27 0 46 -25.5t19 -74.5q0 -63 -33 -104t-89 -43z" />
    <glyph glyph-name="quotedblbase" unicode="&#x201e;" horiz-adv-x="387" 
d="M292 -139v6q44 44 44 88q0 22 -24.5 48.5t-24.5 48.5q0 24 16 40t46 16q28 0 47 -25t19 -74q0 -64 -33 -104.5t-90 -43.5zM79 -139v6q44 44 44 88q0 22 -24.5 48.5t-24.5 48.5q0 24 16 40t46 16q28 0 47 -25t19 -74q0 -64 -33.5 -104.5t-89.5 -43.5z" />
    <glyph glyph-name="dagger" unicode="&#x2020;" horiz-adv-x="445" 
d="M359 406h-102v-538h-24q-18 0 -30.5 12.5t-12.5 34.5v491h-148v24q0 18 12.5 32t32.5 14h103v183h22q19 0 32 -13t13 -34v-136h148v-28q0 -18 -13 -30t-33 -12z" />
    <glyph glyph-name="daggerdbl" unicode="&#x2021;" horiz-adv-x="445" 
d="M350 96h-93v-248h-24q-21 0 -32 13t-11 34v201h-148v25q0 18 12.5 32t32.5 14h103v237h-148v25q0 18 12.5 32t32.5 14h103v163h31q17 0 26.5 -10.5t9.5 -27.5v-125h148v-23q0 -22 -14 -35t-41 -13h-93v-237h148v-23q0 -22 -14 -35t-41 -13z" />
    <glyph glyph-name="bullet" unicode="&#x2022;" horiz-adv-x="305" 
d="M68 321q0 35 25 60t60 25t59.5 -25t24.5 -60t-24.5 -59.5t-59.5 -24.5t-60 25t-25 59z" />
    <glyph glyph-name="ellipsis" unicode="&#x2026;" horiz-adv-x="731" 
d="M672 62q0 -27 -18 -44.5t-45 -17.5t-45.5 17.5t-18.5 44.5t18.5 45t45.5 18t45 -17.5t18 -45.5zM432 62q0 -27 -18 -44.5t-45 -17.5t-45.5 17.5t-18.5 44.5t18.5 45t45.5 18t45 -17.5t18 -45.5zM193 62q0 -27 -18 -44.5t-45 -17.5t-45.5 17.5t-18.5 44.5t18.5 45t45.5 18
t45 -18t18 -45z" />
    <glyph glyph-name="perthousand" unicode="&#x2030;" horiz-adv-x="1259" 
d="M199 226q-64 0 -102.5 54t-38.5 133q0 89 39.5 144.5t109.5 55.5q64 0 102.5 -53.5t38.5 -132.5q0 -89 -39.5 -145t-109.5 -56zM339 0h-25q-29 0 -29 24q0 15 10 38l246 542h24q10 0 18.5 -10.5t8.5 -26.5q0 -10 -5 -23zM1045 -9q-64 0 -102.5 54t-38.5 133
q0 89 39.5 144t109.5 55q64 0 102.5 -53t38.5 -132q0 -90 -39.5 -145.5t-109.5 -55.5zM692 -9q-64 0 -103 54t-39 133q0 89 40 144t110 55q64 0 102.5 -53t38.5 -132q0 -90 -39.5 -145.5t-109.5 -55.5zM200 545q-37 0 -54 -34t-17 -85q0 -131 77 -131q36 0 53 33.5t17 84.5
q0 132 -76 132zM1046 310q-37 0 -53.5 -34t-16.5 -85q0 -132 76 -132q36 0 53 34t17 85q0 132 -76 132zM692 310q-36 0 -53 -34t-17 -85q0 -132 77 -132q36 0 53 34t17 85q0 132 -77 132z" />
    <glyph glyph-name="guilsinglleft" unicode="&#x2039;" horiz-adv-x="309" 
d="M258 82h-37q-65 0 -93 40l-87 127l87 128q26 38 93 38h37l-106 -166z" />
    <glyph glyph-name="guilsinglright" unicode="&#x203a;" horiz-adv-x="315" 
d="M67 65h-12l105 169l-105 167h12q65 0 90 -38l86 -129l-86 -129q-27 -40 -90 -40z" />
    <glyph glyph-name="Euro" unicode="&#x20ac;" horiz-adv-x="516" 
d="M478 93q0 -41 -40 -71.5t-102 -30.5q-89 0 -155 64t-74 164h-79v30q0 12 10.5 18.5t21.5 6.5h43q-1 15 -1 25l1 29h-75v27q0 11 10 19.5t22 8.5h46q13 101 79 165.5t158 64.5q57 0 96 -33t39 -75v-26h-4q-17 23 -52 41t-66 18q-151 0 -168 -155h206v-23q0 -13 -10 -22.5
t-23 -9.5h-178q-2 -18 -2 -29l2 -25h211v-24q0 -11 -9.5 -21t-23.5 -10h-175q8 -79 53.5 -116t115.5 -37q30 0 65 15t54 37h4v-25z" />
    <glyph glyph-name="trademark" unicode="&#x2122;" horiz-adv-x="724" 
d="M649 291q-31 0 -38 18t-10 100q-3 75 -7 128l-18.5 -67t-17 -60.5l-13.5 -44.5t-15.5 -43t-15.5 -32h-17q-24 0 -38 29.5t-47 137.5l-25 81q-10 -151 -10 -248l-27 1q-19 1 -31 13t-12 33q0 143 24 281h17q33 0 55.5 -15t30.5 -36q24 -56 59 -179l17 53.5l18.5 58.5
t17.5 50.5t21 44t22 24.5h5q62 0 70 -70q16 -137 16 -258h-31zM234 551h-49v-264h-32q-43 0 -43 41v223h-89v28q0 13 11 25t32 12h212v-25q0 -13 -12.5 -26.5t-29.5 -13.5z" />
    <glyph glyph-name="minus" unicode="&#x2212;" horiz-adv-x="524" 
d="M405 238h-325v21q0 48 51 48h315v-32q0 -14 -11.5 -25.5t-29.5 -11.5z" />
    <glyph glyph-name="notequal" unicode="&#x2260;" horiz-adv-x="523" 
d="M202 11h-25q-29 0 -29 24q0 15 10 38l28 61h-101v32q0 35 39 35h92l56 122h-187v32q0 35 39 35h179l59 129h24q10 0 18.5 -10.5t8.5 -26.5q0 -10 -5 -23l-32 -69h73v-34q0 -14 -11 -23.5t-27 -9.5h-66l-56 -122h160v-34q0 -14 -11 -23.5t-27 -9.5h-153z" />
    <glyph glyph-name="parenthesis_left_ornate" unicode="&#xfd3e;" horiz-adv-x="322" 
d="M271 -150q-29 0 -65.5 27t-70.5 74t-57.5 123.5t-23.5 163.5q0 100 30 192.5t81.5 150.5t108.5 58h31q-80 -82 -121 -172t-41 -210q0 -248 157 -407h-29z" />
    <glyph glyph-name="parenthesis_right_ornate" unicode="&#xfd3f;" horiz-adv-x="322" 
d="M88 -150h-29q157 159 157 407q0 120 -41 210t-121 172h31q57 0 108 -58t81.5 -151t30.5 -192q0 -87 -23.5 -163.5t-57.5 -123.5t-70.5 -74t-65.5 -27z" />
    <glyph glyph-name="CR" horiz-adv-x="500" 
 />
    <glyph glyph-name="uni00AD" horiz-adv-x="325" 
d="M272 289q0 -21 -12.5 -36t-32.5 -15h-173v27q0 19 14.5 33.5t35.5 14.5h168v-24z" />
    <glyph glyph-name="zero.basic" horiz-adv-x="516" 
d="M472 314q0 -164 -57 -244t-162 -80q-91 0 -150.5 80.5t-59.5 220.5q0 156 55 239t165 83q91 0 150 -74.5t59 -224.5zM392 289q0 138 -34 193t-105 55q-59 0 -93 -55t-34 -169q0 -127 37.5 -186.5t94.5 -59.5q59 0 96.5 53t37.5 169z" />
    <glyph glyph-name="one.basic" horiz-adv-x="334" 
d="M234 0h-29q-53 0 -53 60v459l-91 -42q-10 -5 -23 -5q-12 0 -22.5 6t-12.5 16l-8 30l92 47q64 33 100 33q19 0 33 -12t14 -30v-562z" />
    <glyph glyph-name="two.basic" horiz-adv-x="520" 
d="M462 46q0 -17 -13 -31.5t-40 -14.5h-306q-18 0 -29 10t-11 25q0 34 18 60.5t81 82.5l127 112q42 37 59 67.5t17 65.5q0 55 -33.5 85t-96.5 30q-110 0 -162 -90h-6v37q0 51 49 89.5t136 38.5q83 0 139 -51t56 -125q0 -67 -26.5 -109t-91.5 -97l-122 -104q-35 -30 -51 -52
h306v-29z" />
    <glyph glyph-name="three.basic" horiz-adv-x="510" 
d="M449 179q0 -88 -54 -138t-164 -50q-73 0 -125.5 34.5t-52.5 84.5v37h5q62 -81 179 -81q130 0 130 103q0 106 -161 106q-41 0 -41 39v23q111 0 153 22t42 79q0 100 -139 100q-61 0 -102.5 -23t-60.5 -58h-6v35q0 42 50.5 81.5t132.5 39.5q97 0 152 -46t55 -118
q0 -113 -126 -138q57 -11 95 -48t38 -84z" />
    <glyph glyph-name="four.basic" horiz-adv-x="513" 
d="M491 192q0 -42 -45 -42h-52v-150h-29q-23 0 -38 14t-15 42v94h-214q-27 0 -44 13t-17 30q0 23 5 35q40 87 126 208t137 168h34q24 0 39.5 -16t15.5 -51v-319h97v-26zM312 218v308q-38 -44 -102.5 -142t-97.5 -166h200z" />
    <glyph glyph-name="five.basic" horiz-adv-x="521" 
d="M471 192q0 -94 -58.5 -147.5t-161.5 -53.5q-76 0 -123 33t-47 78v28h5q55 -64 170 -64q133 0 133 118q0 61 -35.5 86.5t-116.5 25.5q-72 0 -149 -25v249q0 84 77 84h279v-27q0 -48 -53 -48h-229v-176q57 13 101 13q99 0 153.5 -46.5t54.5 -127.5z" />
    <glyph glyph-name="six.basic" horiz-adv-x="517" 
d="M475 194q0 -90 -57.5 -146.5t-154.5 -56.5q-91 0 -150.5 72.5t-59.5 212.5q0 149 68.5 243t185.5 94q66 0 102.5 -28.5t36.5 -65.5v-26h-5q-26 24 -55 36t-80 12q-80 0 -126 -62t-46 -187q15 38 58 65.5t93 27.5q87 0 138.5 -53t51.5 -138zM394 184q0 68 -31 98.5
t-93 30.5q-60 0 -96.5 -33.5t-36.5 -71.5q0 -65 36 -105.5t97 -40.5q60 0 92 34t32 88z" />
    <glyph glyph-name="seven.basic" horiz-adv-x="519" 
d="M458 559q0 -38 -56 -147l-120 -234q-34 -65 -34 -142v-36h-33q-48 0 -48 55q0 71 41 146l123 229q35 66 43 99h-322v26q0 49 51 49h303q52 0 52 -45z" />
    <glyph glyph-name="eight.basic" horiz-adv-x="517" 
d="M477 174q0 -77 -54 -130t-159 -53q-99 0 -153.5 49t-54.5 123q0 47 29.5 87t87.5 56q-109 35 -109 129q0 78 54.5 128t150.5 50q87 0 143 -45.5t56 -119.5q0 -57 -28.5 -89t-84.5 -46q55 -13 88.5 -55.5t33.5 -83.5zM387 440q0 45 -32 73t-91 28t-89 -26.5t-30 -70.5
q0 -48 32.5 -74.5t92.5 -26.5q117 0 117 97zM395 167q0 48 -32.5 77.5t-99.5 29.5q-59 0 -92.5 -29.5t-33.5 -74.5q0 -47 35.5 -75.5t96.5 -28.5q63 0 94.5 28t31.5 73z" />
    <glyph glyph-name="nine.basic" horiz-adv-x="516" 
d="M464 326q0 -172 -53.5 -253.5t-169.5 -81.5q-77 0 -126 32t-49 91v27h5q52 -77 171 -77q74 0 107.5 55.5t33.5 169.5q-20 -36 -57 -57.5t-83 -21.5q-95 0 -149 55.5t-54 135.5q0 90 61.5 151t150.5 61q212 0 212 -287zM382 389q0 78 -33.5 114.5t-102.5 36.5
q-60 0 -93 -36t-33 -92q0 -133 135 -133q59 0 93 33t34 77z" />
    <glyph glyph-name="Euro.basic" horiz-adv-x="516" 
d="M478 93q0 -41 -40 -71.5t-102 -30.5q-89 0 -155 64t-74 164h-79v30q0 12 10.5 18.5t21.5 6.5h43q-1 15 -1 25l1 29h-75v27q0 11 10 19.5t22 8.5h46q13 101 79 165.5t158 64.5q57 0 96 -33t39 -75v-26h-4q-17 23 -52 41t-66 18q-151 0 -168 -155h206v-23q0 -13 -10 -22.5
t-23 -9.5h-178q-2 -18 -2 -29l2 -25h211v-24q0 -11 -9.5 -21t-23.5 -10h-175q8 -79 53.5 -116t115.5 -37q30 0 65 15t54 37h4v-25z" />
    <glyph glyph-name="dollar.basic" horiz-adv-x="520" 
d="M459 175q-1 -69 -47 -116t-130 -57v-109h-18q-19 0 -26 7t-7 25v74q-70 1 -118.5 36.5t-48.5 82.5v37h5q60 -84 173 -84q73 0 105.5 23t32.5 73q0 33 -11 50t-47.5 33t-115.5 35q-72 17 -111 49t-39 93q0 68 46.5 116.5t128.5 59.5v116h14q37 0 37 -32v-82q48 0 82 -13
t50 -33t22.5 -36t6.5 -30v-28h-7q-28 36 -65 52.5t-98 16.5q-59 0 -98.5 -21.5t-39.5 -71.5q0 -44 31.5 -63t138.5 -46q71 -18 112.5 -54.5t41.5 -102.5z" />
    <glyph glyph-name="cent.basic" horiz-adv-x="508" 
d="M417 331h-4q-12 25 -47 42.5t-69 17.5q-67 0 -108.5 -44t-41.5 -113q0 -83 46 -126.5t106 -43.5q74 0 107 40h4v-33q0 -22 -19 -44.5t-60 -30.5h3q0 -1 -2.5 -1t-9 -0.5t-13.5 -2.5v-99q-31 0 -44 6.5t-13 25.5v68h7q-75 12 -133 73.5t-58 155.5q0 89 50.5 156t133.5 82
v107h22q35 0 35 -32v-73q48 -4 78 -29.5t30 -68.5v-33z" />
    <glyph glyph-name="sterling.basic" horiz-adv-x="518" 
d="M208 424q0 -34 15 -97h151v-22q0 -20 -13.5 -30.5t-32.5 -10.5h-95q6 -29 6 -54q0 -32 -10 -71.5t-25 -61.5v-4h260v-26q0 -21 -15 -34t-42 -13h-324v21q0 22 19 45.5t38.5 56.5t19.5 77q0 21 -9 64h-97v22q0 41 43 41h44q-14 68 -14 97q0 81 53 135t141 54q50 0 85 -27
t35 -66v-42h-4q-12 25 -46 41.5t-70 16.5q-113 0 -113 -112z" />
    <glyph glyph-name="florin.basic" horiz-adv-x="528" 
d="M410 547q-80 0 -90 -78l-15 -108h125v-24q0 -13 -14.5 -25t-45.5 -12h-71l-25 -213q-12 -104 -46 -145t-97 -41q-34 0 -52.5 13t-18.5 31v37h5q27 -12 52 -12q39 0 57 21.5t25 83.5l25 225h-106v23q0 15 13 26.5t31 11.5h70l13 102q19 153 157 153q27 0 44 -14.5
t17 -34.5v-37h-4q-22 17 -49 17z" />
    <glyph glyph-name="yen.basic" horiz-adv-x="503" 
d="M295 313h149v-26q0 -16 -10 -26.5t-30 -10.5h-113v-82h153v-24q0 -14 -10.5 -25.5t-29.5 -11.5h-113v-107h-38q-16 0 -28 12.5t-12 34.5v60h-151v29q0 32 42 32h109v82h-151v28q0 14 10 24.5t32 10.5h105q-133 170 -181 291h35q47 0 60 -29q43 -93 135 -212
q109 138 147 241h36q27 0 27 -24q0 -27 -56.5 -112.5t-116.5 -154.5z" />
    <glyph glyph-name="numbersign.basic" horiz-adv-x="520" 
d="M434 383h-40l-27 -156h74v-12q0 -44 -46 -44h-39l-32 -171h-20q-33 0 -33 32q0 9 3 24l21 115h-124l-30 -171h-22q-32 0 -32 33q0 11 3 24l21 114h-80v13q0 43 45 43h46l28 156h-80v12q0 43 45 43h44l31 174h14q39 0 39 -36q0 -4 -2 -18l-22 -120h124l31 174h13
q40 0 40 -39q0 -6 -2 -18l-21 -117h77v-11q0 -44 -47 -44zM209 383l-27 -156h124l28 156h-125z" />
    <glyph glyph-name="percent.basic" horiz-adv-x="902" 
d="M197 226q-64 0 -102.5 54t-38.5 133q0 89 39.5 144.5t109.5 55.5q64 0 102.5 -53.5t38.5 -132.5q0 -89 -39.5 -145t-109.5 -56zM337 0h-25q-29 0 -29 24q0 15 10 38l246 542h24q10 0 18.5 -10.5t8.5 -26.5q0 -10 -5 -23zM690 -9q-64 0 -103 54t-39 133q0 89 40 144
t110 55q64 0 102.5 -53t38.5 -132q0 -90 -39.5 -145.5t-109.5 -55.5zM198 545q-37 0 -54 -34t-17 -85q0 -131 77 -131q36 0 53 33.5t17 84.5q0 132 -76 132zM690 310q-36 0 -53 -34t-17 -85q0 -132 77 -132q36 0 53 34t17 85q0 132 -77 132z" />
    <glyph glyph-name="perthousand.basic" horiz-adv-x="1259" 
d="M199 226q-64 0 -102.5 54t-38.5 133q0 89 39.5 144.5t109.5 55.5q64 0 102.5 -53.5t38.5 -132.5q0 -89 -39.5 -145t-109.5 -56zM339 0h-25q-29 0 -29 24q0 15 10 38l246 542h24q10 0 18.5 -10.5t8.5 -26.5q0 -10 -5 -23zM1045 -9q-64 0 -102.5 54t-38.5 133
q0 89 39.5 144t109.5 55q64 0 102.5 -53t38.5 -132q0 -90 -39.5 -145.5t-109.5 -55.5zM692 -9q-64 0 -103 54t-39 133q0 89 40 144t110 55q64 0 102.5 -53t38.5 -132q0 -90 -39.5 -145.5t-109.5 -55.5zM200 545q-37 0 -54 -34t-17 -85q0 -131 77 -131q36 0 53 33.5t17 84.5
q0 132 -76 132zM1046 310q-37 0 -53.5 -34t-16.5 -85q0 -132 76 -132q36 0 53 34t17 85q0 132 -76 132zM692 310q-36 0 -53 -34t-17 -85q0 -132 77 -132q36 0 53 34t17 85q0 132 -77 132z" />
    <glyph glyph-name="zero.onum" horiz-adv-x="516" 
d="M472 314q0 -164 -57 -244t-162 -80q-91 0 -150.5 80.5t-59.5 220.5q0 156 55 239t165 83q91 0 150 -74.5t59 -224.5zM392 289q0 138 -34 193t-105 55q-59 0 -93 -55t-34 -169q0 -127 37.5 -186.5t94.5 -59.5q59 0 96.5 53t37.5 169z" />
    <glyph glyph-name="one.onum" horiz-adv-x="334" 
d="M234 0h-29q-53 0 -53 60v459l-91 -42q-10 -5 -23 -5q-12 0 -22.5 6t-12.5 16l-8 30l92 47q64 33 100 33q19 0 33 -12t14 -30v-562z" />
    <glyph glyph-name="two.onum" horiz-adv-x="520" 
d="M462 46q0 -17 -13 -31.5t-40 -14.5h-306q-18 0 -29 10t-11 25q0 34 18 60.5t81 82.5l127 112q42 37 59 67.5t17 65.5q0 55 -33.5 85t-96.5 30q-110 0 -162 -90h-6v37q0 51 49 89.5t136 38.5q83 0 139 -51t56 -125q0 -67 -26.5 -109t-91.5 -97l-122 -104q-35 -30 -51 -52
h306v-29z" />
    <glyph glyph-name="three.onum" horiz-adv-x="510" 
d="M449 179q0 -88 -54 -138t-164 -50q-73 0 -125.5 34.5t-52.5 84.5v37h5q62 -81 179 -81q130 0 130 103q0 106 -161 106q-41 0 -41 39v23q111 0 153 22t42 79q0 100 -139 100q-61 0 -102.5 -23t-60.5 -58h-6v35q0 42 50.5 81.5t132.5 39.5q97 0 152 -46t55 -118
q0 -113 -126 -138q57 -11 95 -48t38 -84z" />
    <glyph glyph-name="four.onum" horiz-adv-x="513" 
d="M491 192q0 -42 -45 -42h-52v-150h-29q-23 0 -38 14t-15 42v94h-214q-27 0 -44 13t-17 30q0 23 5 35q40 87 126 208t137 168h34q24 0 39.5 -16t15.5 -51v-319h97v-26zM312 218v308q-38 -44 -102.5 -142t-97.5 -166h200z" />
    <glyph glyph-name="five.onum" horiz-adv-x="521" 
d="M471 192q0 -94 -58.5 -147.5t-161.5 -53.5q-76 0 -123 33t-47 78v28h5q55 -64 170 -64q133 0 133 118q0 61 -35.5 86.5t-116.5 25.5q-72 0 -149 -25v249q0 84 77 84h279v-27q0 -48 -53 -48h-229v-176q57 13 101 13q99 0 153.5 -46.5t54.5 -127.5z" />
    <glyph glyph-name="six.onum" horiz-adv-x="517" 
d="M475 194q0 -90 -57.5 -146.5t-154.5 -56.5q-91 0 -150.5 72.5t-59.5 212.5q0 149 68.5 243t185.5 94q66 0 102.5 -28.5t36.5 -65.5v-26h-5q-26 24 -55 36t-80 12q-80 0 -126 -62t-46 -187q15 38 58 65.5t93 27.5q87 0 138.5 -53t51.5 -138zM394 184q0 68 -31 98.5
t-93 30.5q-60 0 -96.5 -33.5t-36.5 -71.5q0 -65 36 -105.5t97 -40.5q60 0 92 34t32 88z" />
    <glyph glyph-name="seven.onum" horiz-adv-x="519" 
d="M458 559q0 -38 -56 -147l-120 -234q-34 -65 -34 -142v-36h-33q-48 0 -48 55q0 71 41 146l123 229q35 66 43 99h-322v26q0 49 51 49h303q52 0 52 -45z" />
    <glyph glyph-name="eight.onum" horiz-adv-x="517" 
d="M477 174q0 -77 -54 -130t-159 -53q-99 0 -153.5 49t-54.5 123q0 47 29.5 87t87.5 56q-109 35 -109 129q0 78 54.5 128t150.5 50q87 0 143 -45.5t56 -119.5q0 -57 -28.5 -89t-84.5 -46q55 -13 88.5 -55.5t33.5 -83.5zM387 440q0 45 -32 73t-91 28t-89 -26.5t-30 -70.5
q0 -48 32.5 -74.5t92.5 -26.5q117 0 117 97zM395 167q0 48 -32.5 77.5t-99.5 29.5q-59 0 -92.5 -29.5t-33.5 -74.5q0 -47 35.5 -75.5t96.5 -28.5q63 0 94.5 28t31.5 73z" />
    <glyph glyph-name="nine.onum" horiz-adv-x="516" 
d="M464 326q0 -172 -53.5 -253.5t-169.5 -81.5q-77 0 -126 32t-49 91v27h5q52 -77 171 -77q74 0 107.5 55.5t33.5 169.5q-20 -36 -57 -57.5t-83 -21.5q-95 0 -149 55.5t-54 135.5q0 90 61.5 151t150.5 61q212 0 212 -287zM382 389q0 78 -33.5 114.5t-102.5 36.5
q-60 0 -93 -36t-33 -92q0 -133 135 -133q59 0 93 33t34 77z" />
    <glyph glyph-name="wasla" 
d="M-112 20v11h24v90h10q22 0 22 -24v-7q28 67 80 67q51 0 76 -33.5t25 -81.5q0 -42 -15 -42h-200q-22 0 -22 20zM25 123q-28 0 -49 -27t-30 -65h146q-6 92 -67 92z" />
    <glyph glyph-name="hamza_medial" 
d="M156 0h-285q-18 0 -29.5 12t-11.5 29v31h88l-12 21q-16 29 -16 74q0 80 43 130t115 50q113 0 131 -89q0 -39 -14 -70q-36 89 -122 89q-33 0 -53 -26t-20 -72q0 -87 34 -106l194 -1v-31q0 -15 -10.5 -28t-31.5 -13z" />
    <glyph glyph-name="xx.TahAbove" 
d="M-137 20v11h24v179h10q22 0 22 -24v-96q28 67 80 67q51 0 76 -33.5t25 -81.5q0 -42 -15 -42h-200q-22 0 -22 20zM0 123q-28 0 -49 -27t-30 -65h146q-6 92 -67 92z" />
    <glyph glyph-name="shadda_fathatan" 
d="M-126 -1h4l7 -71q1 -15 10 -24t20 -9q9 0 16 6.5t7 18.5l-3 31.5t-3 29.5q-1 10 5 13.5t19 3.5l8 -73q3 -30 27 -30q12 0 19 10t5 28q-3 23 -5 51q0 13 22 13l8 -76q0 -43 -44 -47q-28 0 -44 17q-12 -16 -36 -16q-23 0 -38.5 16t-17.5 40q-4 40 -4 52q0 16 18 16zM30 29
q-67 -4 -146 -7q-13 0 -13 23l89 3.5t54 2.5q10 0 16 -22zM24 67q-79 -4 -146 -7q-13 0 -13 23q40 1 84.5 3t58.5 3q10 0 16 -22z" />
    <glyph glyph-name="hamza_above_damma" 
d="M11 244q0 -25 16.5 -37.5t32.5 -2.5t16 38q0 20 -10 31.5t-25 11.5q-14 0 -22 -11.5t-8 -29.5zM43 304q24 0 41 -15.5t17 -40.5q0 -94 -186 -94q-10 0 -12.5 4t-3.5 14l19 1q63 2 95 14q-26 20 -26 52q0 28 16 46.5t40 18.5zM-61 0h121q9 0 15 6t6 13v16h-85
q-12 9 -12 37q0 39 27 39q32 0 49 -42q10 12 10 32q-10 40 -56 40q-30 0 -48 -20t-18 -52q0 -20 4 -28l3 -6h-36v-16q0 -7 5.5 -13t14.5 -6z" />
    <glyph glyph-name="hamza_above_sukun" 
d="M2 304q33 0 50.5 -22t17.5 -51q0 -32 -22.5 -54.5t-52.5 -22.5q-31 0 -48 23t-17 52q0 34 20.5 54.5t51.5 20.5zM4 279q-21 0 -32 -15.5t-11 -38.5q0 -46 39 -46q18 0 27.5 16.5t9.5 40.5q0 37 -33 43zM-61 0h121q9 0 15 6t6 13v16h-85q-12 9 -12 37q0 39 27 39
q32 0 49 -42q10 12 10 32q-10 40 -56 40q-30 0 -48 -20t-18 -52q0 -20 4 -28l3 -6h-36v-16q0 -7 5.5 -13t14.5 -6z" />
    <glyph glyph-name="hamza_above_fathatan" 
d="M82 161q-67 -4 -146 -7q-13 0 -13 23l89 3.5t54 2.5q10 0 16 -22zM76 199q-79 -4 -146 -7q-13 0 -13 23q40 1 84.5 3t58.5 3q10 0 16 -22zM-61 0h121q9 0 15 6t6 13v16h-85q-12 9 -12 37q0 39 27 39q32 0 49 -42q10 12 10 32q-10 40 -56 40q-30 0 -48 -20t-18 -52
q0 -20 4 -28l3 -6h-36v-16q0 -7 5.5 -13t14.5 -6z" />
    <glyph glyph-name="hamza_above_dammatan" 
d="M-61 0h121q9 0 15 6t6 13v16h-85q-12 9 -12 37q0 39 27 39q32 0 49 -42q10 12 10 32q-10 40 -56 40q-30 0 -48 -20t-18 -52q0 -20 4 -28l3 -6h-36v-16q0 -7 5.5 -13t14.5 -6zM63 305q24 0 40.5 -17t16.5 -42q0 -30 -22.5 -50.5t-57.5 -28.5t-58 -10.5t-44 -2.5
q-14 0 -17 3t-4 16l8 1q22 13 22 44q0 36 -36 36q-18 0 -27 -13q-4 8 -4 12q0 8 9.5 15t25.5 7q27 0 42.5 -17t15.5 -40q0 -18 -15 -42q48 4 75 11q-29 23 -29 53q0 27 17 46t42 19zM61 201q33 0 33 42q0 19 -9.5 30t-24.5 11t-23.5 -11t-8.5 -28q0 -18 9.5 -31t23.5 -13z
" />
    <glyph glyph-name="hamza_above_fatha" 
d="M-61 0h121q9 0 15 6t6 13v16h-85q-12 9 -12 37q0 39 27 39q32 0 49 -42q10 12 10 32q-10 40 -56 40q-30 0 -48 -20t-18 -52q0 -20 4 -28l3 -6h-36v-16q0 -7 5.5 -13t14.5 -6zM80 161q-67 -4 -146 -7q-13 0 -13 23l89 3.5t54 2.5q10 0 16 -22z" />
    <glyph glyph-name="hamza_below_kasratan" 
d="M97 -215q-67 -4 -146 -7q-13 0 -13 23l89 3.5t54 2.5q10 0 16 -22zM91 -177q-79 -4 -146 -7q-13 0 -13 23q40 1 84.5 3t58.5 3q10 0 16 -22zM71 -141h-121q-9 0 -14.5 6t-5.5 13v16h36l-3 6q-4 8 -4 28q0 32 18 52t48 20q46 0 56 -40q0 -20 -10 -32q-17 42 -49 42
q-27 0 -27 -39q0 -28 12 -37h85v-16q0 -7 -6 -13t-15 -6z" />
    <glyph glyph-name="hamza_below_kasra" 
d="M92 -178q-67 -4 -146 -7q-13 0 -13 23l89 3.5t54 2.5q10 0 16 -22zM71 -141h-121q-9 0 -14.5 6t-5.5 13v16h36l-3 6q-4 8 -4 28q0 32 18 52t48 20q46 0 56 -40q0 -20 -10 -32q-17 42 -49 42q-27 0 -27 -39q0 -28 12 -37h85v-16q0 -7 -6 -13t-15 -6z" />
    <glyph glyph-name="wasle" horiz-adv-x="103" 
d="M0 0v84h117v-84h-117z" />
    <glyph glyph-name="Kashida.Narrow" horiz-adv-x="189" 
d="M0 0v84h209v-84h-209z" />
    <glyph glyph-name="kashida.long" horiz-adv-x="209" 
d="M-1 0v84h211v-84h-211z" />
    <glyph glyph-name="tooth.init" horiz-adv-x="250" 
d="M210 193q0 -184 -140 -193h-85v84h63q72 0 76 75v182h27q33 0 46 -15t13 -52v-81z" />
    <glyph glyph-name="tooth.init.long" horiz-adv-x="250" 
d="M210 193q0 -184 -140 -193h-85v84h63q72 0 76 75v182h27q33 0 46 -15t13 -52v-81z" />
    <glyph glyph-name="logo" horiz-adv-x="1245" 
 />
    </font>
</defs>
</svg>
